<svg width="24" height="24" viewBox="0 0 24 24" fill="none" xmlns="http://www.w3.org/2000/svg">
<path d="M5.6676 14.0346L4.867 17.0234L1.94083 17.0853C1.06634 15.4633 0.570312 13.6075 0.570312 11.6354C0.570312 9.72845 1.03409 7.93013 1.85616 6.34668H1.85678L4.46189 6.82429L5.60309 9.41377C5.36424 10.1101 5.23406 10.8576 5.23406 11.6354C5.23415 12.4796 5.38706 13.2884 5.6676 14.0346Z" fill="#FBBB00"/>
<path d="M23.3744 9.48828C23.5064 10.1839 23.5753 10.9024 23.5753 11.6366C23.5753 12.46 23.4887 13.2631 23.3238 14.0378C22.764 16.6739 21.3012 18.9758 19.2748 20.6048L19.2742 20.6041L15.9929 20.4367L15.5285 17.5377C16.8731 16.7491 17.924 15.5151 18.4775 14.0378H12.3281V9.48828H18.5672H23.3744Z" fill="#518EF8"/>
<path d="M19.2658 20.6044L19.2665 20.605C17.2957 22.1891 14.7922 23.1369 12.067 23.1369C7.6875 23.1369 3.87988 20.6891 1.9375 17.0868L5.66426 14.0361C6.63543 16.628 9.13573 18.4731 12.067 18.4731C13.3269 18.4731 14.5073 18.1325 15.5201 17.5379L19.2658 20.6044Z" fill="#28B446"/>
<path d="M19.4139 2.78424L15.6884 5.83426C14.6402 5.17903 13.4011 4.80052 12.0735 4.80052C9.07594 4.80052 6.52887 6.73023 5.60635 9.41508L1.86 6.34799H1.85938C3.77332 2.65787 7.62896 0.136719 12.0735 0.136719C14.8638 0.136719 17.4223 1.13066 19.4139 2.78424Z" fill="#F14336"/>
</svg>
