<svg width="29" height="26" viewBox="0 0 29 26" fill="none" xmlns="http://www.w3.org/2000/svg">
<path d="M22.8357 4.21369C20.6744 2.05169 17.7965 0.867188 14.7337 0.867188C8.42318 0.867188 3.27996 5.98469 3.27996 12.2637C3.27996 14.2762 3.81162 16.2312 4.80559 17.9562L3.1875 23.8672L9.25534 22.2802C10.9312 23.1887 12.8151 23.6717 14.7337 23.6717C21.0443 23.6717 26.1875 18.5542 26.1875 12.2752C26.1875 9.22769 24.997 6.36419 22.8357 4.21369ZM14.7337 21.7397C13.0232 21.7397 11.3473 21.2797 9.87946 20.4172L9.53273 20.2102L5.9267 21.1532L6.88599 17.6572L6.65484 17.3007C5.7071 15.7942 5.19856 14.0462 5.19856 12.2637C5.19856 7.04269 9.47494 2.78769 14.7222 2.78769C17.2649 2.78769 19.6573 3.77669 21.4488 5.57069C23.2518 7.36469 24.2342 9.74519 24.2342 12.2752C24.2573 17.4962 19.981 21.7397 14.7337 21.7397ZM19.9578 14.6557C19.6689 14.5177 18.2589 13.8277 18.0046 13.7242C17.7388 13.6322 17.5538 13.5862 17.3573 13.8622C17.1609 14.1497 16.6177 14.7937 16.4558 14.9777C16.294 15.1732 16.1207 15.1962 15.8317 15.0467C15.5428 14.9087 14.6182 14.5982 13.5317 13.6322C12.6764 12.8732 12.1101 11.9417 11.9367 11.6542C11.7749 11.3667 11.9136 11.2172 12.0639 11.0677C12.191 10.9412 12.3528 10.7342 12.4915 10.5732C12.6302 10.4122 12.688 10.2857 12.7805 10.1017C12.8729 9.90619 12.8267 9.74519 12.7573 9.60719C12.688 9.46919 12.1101 8.06619 11.879 7.49119C11.6478 6.93919 11.4051 7.00819 11.2317 6.99669C11.0584 6.99669 10.8734 6.99669 10.6769 6.99669C10.4805 6.99669 10.18 7.06569 9.91413 7.35319C9.65986 7.64069 8.92016 8.33069 8.92016 9.73369C8.92016 11.1367 9.94881 12.4937 10.0875 12.6777C10.2262 12.8732 12.1101 15.7482 14.9764 16.9787C15.6584 17.2777 16.19 17.4502 16.6061 17.5767C17.288 17.7952 17.9121 17.7607 18.4091 17.6917C18.9639 17.6112 20.1081 17.0017 20.3393 16.3347C20.582 15.6677 20.582 15.1042 20.5011 14.9777C20.4202 14.8512 20.2468 14.7937 19.9578 14.6557Z" fill="#31B747"/>
</svg>
