<svg width="18" height="20" viewBox="0 0 18 20" fill="none" xmlns="http://www.w3.org/2000/svg">
<path d="M11 3H17M13 10H10M17 17H8M1 10H7M1 3H4M11 3C11 1.89543 10.1046 1 9 1C7.8954 1 7 1.89543 7 3C7 4.10457 7.8954 5 9 5C10.1046 5 11 4.10457 11 3ZM13 10C13 11.1046 13.8954 12 15 12C16.1046 12 17 11.1046 17 10C17 8.8954 16.1046 8 15 8C13.8954 8 13 8.8954 13 10ZM3 15C4.10457 15 5 15.8954 5 17C5 18.1046 4.10457 19 3 19C1.89543 19 1 18.1046 1 17C1 15.8954 1.89543 15 3 15Z" stroke="#01C0CC" stroke-width="1.5" stroke-linecap="round"/>
</svg>
