<svg width="45" height="43" viewBox="0 0 45 43" fill="none" xmlns="http://www.w3.org/2000/svg">
<path d="M34.4997 14.5C26.0997 14.5 23.333 20.5 22.9997 23.5C20.9994 14.3 14.1662 13.3333 10.9997 14C4.59968 16.4 5.33301 23.3333 6.49968 26.5C9.29968 34.1 18.6663 40 22.9997 42C33.3997 36.8 38.6663 28.5 39.9997 25C41.9997 17.4 37.1663 14.8333 34.4997 14.5Z" stroke="black"/>
<path d="M1 8.5L7 12" stroke="black"/>
<path d="M15 1C15.4 2.2 16.5 6.83333 17 9" stroke="black"/>
<path d="M31.5 1.5C31.1 2.3 30 6.5 29.5 8.5" stroke="black"/>
<path d="M44.5 7.5L40 12" stroke="black"/>
</svg>
