<svg width="18" height="18" viewBox="0 0 18 18" fill="none" xmlns="http://www.w3.org/2000/svg">
<path d="M9.02237 0.00946555C11.0413 0.00946555 13.0604 0.00274421 15.0794 0.0116337C16.4787 0.0177046 17.5518 0.815161 17.8918 2.07487C17.9613 2.33245 17.9972 2.59524 17.9972 2.86171C17.9981 6.95111 18.0044 11.0405 17.9946 15.1297C17.9907 16.7845 16.7765 17.9936 15.1251 17.996C11.0296 18.0021 6.93393 18.0017 2.83847 17.9915C1.27777 17.9876 0.0460137 16.807 0.0286894 15.2498C-0.000761827 12.5931 0.0154797 9.93604 0.0219763 7.27915C0.0234922 6.66296 0.364347 6.40321 0.97113 6.514C2.20007 6.73819 2.95541 7.52568 3.17976 8.85499C3.33893 9.79901 3.47449 10.7474 3.60788 11.6955C3.71248 12.4377 3.94333 12.6508 4.69065 12.6508C6.71738 12.651 9.56051 12.6118 11.5086 12.6114C12.1591 12.6111 12.4413 12.4457 12.6551 11.8195C13.2729 10.0098 13.8907 8.2002 14.507 6.38977C14.726 5.7469 14.5776 5.54418 13.8948 5.54201C10.8492 5.5329 6.93869 5.52943 3.89309 5.51035C3.1659 5.5058 2.44759 5.40064 1.74726 5.18491C0.341609 4.75171 -0.129611 3.99631 0.0295557 2.538C0.203881 0.939831 1.60542 -0.0213226 2.93051 0.000359198C4.96091 0.033966 6.99175 0.00946555 9.02237 0.00946555ZM4.87429 13.2534C4.30844 13.2596 3.84306 13.7252 3.83981 14.2882C3.83657 14.8548 4.33507 15.3513 4.89876 15.3428C5.45552 15.3346 5.92826 14.8559 5.93107 14.298C5.93389 13.7176 5.45768 13.2469 4.87429 13.2534ZM10.5428 13.2531C9.96243 13.2475 9.48038 13.7243 9.48515 14.2993C9.48969 14.8548 9.96568 15.3346 10.5203 15.3426C11.0848 15.3509 11.5814 14.8543 11.5766 14.2869C11.5716 13.7197 11.1104 13.2586 10.5428 13.2531Z" fill="white"/>
</svg>
