<svg width="34" height="34" viewBox="0 0 34 34" fill="none" xmlns="http://www.w3.org/2000/svg">
<rect x="0.5" y="0.5" width="33" height="33" rx="1.5" stroke="#253D4E"/>
<path d="M26.5333 11H7.46667C6.6567 11 6 10.3284 6 9.5C6 8.67162 6.6567 8 7.46667 8H26.5333C27.3433 8 28 8.67162 28 9.5C28 10.3284 27.3433 11 26.5333 11Z" fill="#253D4E"/>
<path d="M26.5333 26H7.46667C6.6567 26 6 25.3284 6 24.5C6 23.6716 6.6567 23 7.46667 23H26.5333C27.3433 23 28 23.6716 28 24.5C28 25.3284 27.3433 26 26.5333 26Z" fill="#253D4E"/>
<path d="M26.5333 18.5H7.46667C6.6567 18.5 6 17.8284 6 17C6 16.1716 6.6567 15.5 7.46667 15.5H26.5333C27.3433 15.5 28 16.1716 28 17C28 17.8284 27.3433 18.5 26.5333 18.5Z" fill="#253D4E"/>
</svg>
