<svg width="24" height="21" viewBox="0 0 24 21" fill="none" xmlns="http://www.w3.org/2000/svg">
<path fill-rule="evenodd" clip-rule="evenodd" d="M4.951 1.481C5.72893 1.15798 6.56298 0.991699 7.40531 0.991699C8.24764 0.991699 9.08168 1.15798 9.85961 1.481C10.6375 1.80402 11.3441 2.27743 11.9386 2.87408L11.942 2.87742L12.0003 2.93653L12.0587 2.87743L12.062 2.87408C12.6566 2.27743 13.3631 1.80402 14.141 1.481C14.9189 1.15798 15.753 0.991699 16.5953 0.991699C17.4376 0.991699 18.2717 1.15798 19.0496 1.481C19.8273 1.80391 20.5336 2.2771 21.128 2.87346C23.6731 5.41916 23.7296 9.62831 20.7139 12.7005L20.7074 12.7071L12.7074 20.7071C12.5199 20.8946 12.2655 21 12.0003 21C11.7351 21 11.4807 20.8946 11.2932 20.7071L3.28664 12.7005C0.270943 9.62833 0.327563 5.41915 2.87259 2.87346C3.46705 2.2771 4.17334 1.80391 4.951 1.481ZM7.40531 2.9917C6.82621 2.9917 6.2528 3.10602 5.71797 3.32809C5.18314 3.55017 4.69742 3.87564 4.28864 4.28584L4.28741 4.28706C2.5938 5.98068 2.39006 8.92921 4.71082 11.2963L12.0003 18.5857L19.2898 11.2963C21.6106 8.92922 21.4068 5.98068 19.7132 4.28706L19.712 4.28584C19.3032 3.87564 18.8175 3.55017 18.2826 3.32809C17.7478 3.10602 17.1744 2.9917 16.5953 2.9917C16.0162 2.9917 15.4428 3.10602 14.908 3.32809C14.3738 3.54988 13.8887 3.87478 13.4803 4.28422C13.4797 4.28476 13.4792 4.2853 13.4786 4.28584L12.712 5.06249C12.5241 5.25282 12.2678 5.35996 12.0003 5.35996C11.7329 5.35996 11.4765 5.25282 11.2887 5.06249L10.522 4.28584C10.5214 4.2853 10.5209 4.28476 10.5204 4.28422C10.1119 3.87478 9.62677 3.54988 9.09264 3.32809C8.55781 3.10602 7.98441 2.9917 7.40531 2.9917Z" fill="white"/>
</svg>
