<svg width="726" height="425" viewBox="0 0 726 425" fill="none" xmlns="http://www.w3.org/2000/svg">
<path d="M485.052 409.62C484.633 408.105 483.836 406.705 482.725 405.533C481.614 404.36 480.221 403.449 478.661 402.874C477.062 402.381 475.321 402.476 473.796 403.141C472.271 403.806 471.077 404.99 470.459 406.449C467.526 404.172 463.053 405.977 460.7 408.776C456.898 413.296 459.849 420.7 460.482 421.172C461.272 421.52 462.147 421.665 463.017 421.594L491.443 421.459C494.025 421.303 496.581 420.885 499.066 420.211C503.918 418.406 507.213 410.631 504.099 406.719C501.962 404.054 497.78 403.498 494.394 404.493C490.939 405.617 487.761 407.378 485.052 409.67" fill="#6CDD6C"/>
<path d="M462.599 422.403C461.644 422.454 460.696 422.23 459.883 421.762C458.76 420.919 455.936 412.942 459.883 408.152C461.504 406.175 463.887 404.862 466.528 404.492C467.71 404.366 468.906 404.565 469.968 405.066C470.624 404.003 471.6 403.141 472.774 402.586C474.66 401.685 476.849 401.503 478.876 402.08C480.367 402.591 481.723 403.396 482.848 404.441C483.973 405.487 484.842 406.747 485.394 408.135C487.953 406.151 490.88 404.62 494.03 403.615C497.416 402.603 502.232 402.957 504.767 406.145C505.522 407.229 506 408.461 506.164 409.745C506.327 411.028 506.171 412.33 505.708 413.549C505.289 415.136 504.503 416.619 503.405 417.895C502.308 419.171 500.925 420.208 499.353 420.936C496.775 421.64 494.122 422.075 491.441 422.234L462.943 422.386L462.599 422.403ZM467.324 406.212C467.15 406.196 466.974 406.196 466.799 406.212C464.639 406.507 462.689 407.579 461.367 409.198C458.036 413.161 460.517 419.772 461.06 420.446C461.649 420.594 462.261 420.651 462.87 420.615L491.35 420.463C493.803 420.306 496.231 419.904 498.593 419.266C499.895 418.639 501.037 417.759 501.943 416.685C502.849 415.612 503.497 414.37 503.843 413.043C504.225 412.081 504.366 411.052 504.256 410.032C504.146 409.012 503.788 408.029 503.21 407.157C501.218 404.661 497.325 404.425 494.555 405.251C491.2 406.348 488.12 408.07 485.502 410.311C485.387 410.409 485.246 410.477 485.094 410.51C484.942 410.542 484.783 410.538 484.633 410.496C484.481 410.456 484.341 410.38 484.228 410.277C484.114 410.174 484.029 410.047 483.981 409.906C483.611 408.529 482.894 407.254 481.89 406.186C480.885 405.119 479.623 404.29 478.206 403.767C476.657 403.334 474.988 403.479 473.553 404.172C472.999 404.42 472.504 404.768 472.096 405.197C471.689 405.626 471.378 406.126 471.181 406.668C471.135 406.802 471.056 406.925 470.948 407.025C470.841 407.125 470.71 407.199 470.565 407.241C470.417 407.282 470.26 407.288 470.108 407.258C469.956 407.229 469.815 407.165 469.696 407.072C469.035 406.54 468.197 406.237 467.324 406.212Z" fill="#50AA50"/>
<path d="M455.138 408.607C454.319 410.063 453.985 411.713 454.178 413.347C454.269 414.173 455.681 414.19 455.591 413.347C455.403 411.951 455.668 410.536 456.351 409.282C456.767 408.523 455.554 407.865 455.138 408.607Z" fill="#50AA50"/>
<path d="M451.028 409.67C450.593 411.128 450.556 412.664 450.919 414.139C451.1 414.965 452.458 414.611 452.277 413.785C451.978 412.542 452.015 411.25 452.386 410.024C452.425 409.86 452.395 409.688 452.302 409.543C452.209 409.399 452.061 409.293 451.887 409.248C451.713 409.203 451.527 409.221 451.367 409.3C451.207 409.378 451.086 409.511 451.028 409.67Z" fill="#50AA50"/>
<path d="M458.94 407.005C459.128 407.005 459.307 406.936 459.44 406.812C459.572 406.689 459.647 406.522 459.647 406.347C459.647 406.173 459.572 406.005 459.44 405.882C459.307 405.759 459.128 405.689 458.94 405.689C458.753 405.689 458.574 405.759 458.441 405.882C458.309 406.005 458.234 406.173 458.234 406.347C458.234 406.522 458.309 406.689 458.441 406.812C458.574 406.936 458.753 407.005 458.94 407.005Z" fill="#50AA50"/>
<path d="M462.926 413.346V414.51C462.926 414.684 463 414.852 463.133 414.975C463.265 415.098 463.445 415.168 463.632 415.168C463.819 415.168 463.999 415.098 464.131 414.975C464.264 414.852 464.338 414.684 464.338 414.51V413.346C464.338 413.172 464.264 413.004 464.131 412.881C463.999 412.758 463.819 412.688 463.632 412.688C463.445 412.688 463.265 412.758 463.133 412.881C463 413.004 462.926 413.172 462.926 413.346Z" fill="#50AA50"/>
<path d="M486.715 415.387V415.977C486.742 416.131 486.826 416.272 486.954 416.373C487.082 416.474 487.244 416.53 487.412 416.53C487.58 416.53 487.742 416.474 487.87 416.373C487.997 416.272 488.082 416.131 488.109 415.977V415.387C488.082 415.232 487.997 415.092 487.87 414.991C487.742 414.89 487.58 414.834 487.412 414.834C487.244 414.834 487.082 414.89 486.954 414.991C486.826 415.092 486.742 415.232 486.715 415.387Z" fill="#50AA50"/>
<path d="M484.107 413.801L484.415 414.105C484.55 414.213 484.724 414.27 484.902 414.264C485.08 414.257 485.249 414.189 485.375 414.071C485.501 413.954 485.574 413.797 485.581 413.631C485.588 413.465 485.527 413.303 485.411 413.177L485.103 412.874C484.451 412.283 483.455 413.211 484.107 413.801Z" fill="#50AA50"/>
<path d="M83.9367 384.894H36.2646C35.7676 384.894 35.2909 384.711 34.9395 384.383C34.5881 384.056 34.3906 383.612 34.3906 383.149C34.3906 382.686 34.5881 382.242 34.9395 381.915C35.2909 381.587 35.7676 381.403 36.2646 381.403H83.9367C84.4337 381.403 84.9103 381.587 85.2618 381.915C85.6132 382.242 85.8106 382.686 85.8106 383.149C85.8106 383.612 85.6132 384.056 85.2618 384.383C84.9103 384.711 84.4337 384.894 83.9367 384.894Z" fill="#405B91"/>
<path d="M503.773 230.9H502.415C502.415 230.395 502.199 229.91 501.815 229.553C501.432 229.195 500.911 228.994 500.369 228.994C499.826 228.994 499.306 229.195 498.922 229.553C498.538 229.91 498.323 230.395 498.323 230.9H496.965C496.965 230.059 497.323 229.253 497.962 228.658C498.6 228.064 499.466 227.729 500.369 227.729C501.271 227.729 502.137 228.064 502.776 228.658C503.414 229.253 503.773 230.059 503.773 230.9Z" fill="white"/>
<path d="M508.569 157.048H507.211C507.211 156.542 506.996 156.057 506.612 155.7C506.229 155.343 505.708 155.142 505.166 155.142C504.623 155.142 504.103 155.343 503.719 155.7C503.335 156.057 503.12 156.542 503.12 157.048H501.762C501.762 156.207 502.12 155.4 502.759 154.806C503.397 154.211 504.263 153.877 505.166 153.877C506.068 153.877 506.934 154.211 507.572 154.806C508.211 155.4 508.569 156.207 508.569 157.048Z" fill="white"/>
<path d="M339.01 413.65H274.301L275.387 411.221C279.642 401.844 280.076 393.8 279.443 384.625L279.262 382.837L333.905 382.686V384.372C334.247 393.493 335.711 402.546 338.268 411.356L339.01 413.65ZM279.823 410.159H333.959C331.907 402.268 330.64 394.217 330.175 386.109L283.227 386.244C283.965 394.346 282.829 402.501 279.895 410.159H279.823Z" fill="#415B91"/>
<path d="M255.724 386.075C206.531 386.075 166.681 385.839 164.943 385.249C160.724 383.849 155.22 378.419 155.148 374.557C154.985 366.208 154.604 354.841 154.152 341.67C152.812 301.986 150.965 247.613 153.355 217.526C153.551 214.899 154.806 212.439 156.868 210.637C158.929 208.836 161.645 207.826 164.472 207.812H164.653L448.241 208.199C451.139 208.26 453.898 209.364 455.94 211.279C457.983 213.194 459.149 215.771 459.195 218.47C459.413 227.257 459.72 236.246 460.028 245.336C461.332 283.451 462.672 322.916 458.127 360.137C457.964 361.604 457.874 363.223 457.801 364.91C457.421 372.718 456.932 382.449 446.123 384.439C440.782 385.418 335.824 386.075 255.724 386.075ZM164.49 210.679C162.421 210.691 160.434 211.431 158.926 212.751C157.419 214.071 156.502 215.873 156.361 217.796C153.989 247.731 155.836 302.003 157.175 341.636C157.628 354.808 158.008 366.191 158.171 374.557C158.171 377.002 162.589 381.539 165.957 382.652C171.986 383.799 438.609 382.955 445.544 381.741C454.035 380.173 454.416 372.381 454.778 364.876C454.778 363.189 454.959 361.503 455.14 359.918C459.648 322.814 458.308 283.536 456.95 245.539C456.643 236.415 456.335 227.442 456.117 218.639C456.09 216.669 455.245 214.786 453.76 213.384C452.275 211.982 450.265 211.169 448.151 211.117L164.581 210.729L164.49 210.679Z" fill="#415B91"/>
<path fill-rule="evenodd" clip-rule="evenodd" d="M440.257 217.307L173.054 216.969C170.854 216.844 168.684 217.497 166.979 218.798C165.273 220.099 164.158 221.951 163.857 223.985C160.869 257.294 164.943 326.862 165.559 354.774C165.559 357.506 170.393 361.52 173.833 362.599C177.889 363.797 431.802 362.886 438.012 361.891C449.147 360.07 447.246 349.445 448.187 342.631C453.474 304.162 450.233 262.336 449.183 224.71C449.003 222.644 447.975 220.722 446.313 219.343C444.65 217.964 442.482 217.235 440.257 217.307Z" fill="#84ABEA"/>
<path d="M362.276 423.313H251.09C249.26 423.313 247.506 422.636 246.212 421.431C244.918 420.226 244.191 418.592 244.191 416.888C244.191 415.183 244.918 413.549 246.212 412.344C247.506 411.139 249.26 410.462 251.09 410.462H362.276C364.106 410.462 365.86 411.139 367.154 412.344C368.448 413.549 369.175 415.183 369.175 416.888C369.175 418.592 368.448 420.226 367.154 421.431C365.86 422.636 364.106 423.313 362.276 423.313ZM251.09 413.194C250.105 413.257 249.183 413.665 248.51 414.337C247.837 415.008 247.462 415.893 247.462 416.812C247.462 417.73 247.837 418.615 248.51 419.287C249.183 419.958 250.105 420.367 251.09 420.429H362.276C363.261 420.367 364.182 419.958 364.856 419.287C365.529 418.615 365.904 417.73 365.904 416.812C365.904 415.893 365.529 415.008 364.856 414.337C364.182 413.665 363.261 413.257 362.276 413.194H251.09Z" fill="#415B91"/>
<path d="M173.67 376.277C178.667 376.277 178.667 369.059 173.67 369.059C168.673 369.059 168.673 376.277 173.67 376.277Z" fill="#415B91"/>
<path d="M189.314 376.277C194.311 376.277 194.311 369.059 189.314 369.059C184.317 369.059 184.317 376.277 189.314 376.277Z" fill="#415B91"/>
<path d="M205.029 376.277C210.026 376.277 210.026 369.059 205.029 369.059C200.032 369.059 200.032 376.277 205.029 376.277Z" fill="#415B91"/>
<path d="M306.674 215.147C307.154 215.147 307.615 214.97 307.954 214.653C308.294 214.337 308.484 213.908 308.484 213.461C308.484 213.014 308.294 212.585 307.954 212.268C307.615 211.952 307.154 211.774 306.674 211.774C306.194 211.774 305.733 211.952 305.394 212.268C305.054 212.585 304.863 213.014 304.863 213.461C304.863 213.908 305.054 214.337 305.394 214.653C305.733 214.97 306.194 215.147 306.674 215.147Z" fill="#415B91"/>
<path d="M620.226 416.366H581.914L596.652 371.285H605.488L620.226 416.366Z" fill="#B6D0FB"/>
<path d="M623.376 416.365H578.746V421.509H623.376V416.365Z" fill="#B6D0FB"/>
<path d="M585.59 405.1L581.914 416.365H620.226L616.532 405.1H585.59Z" fill="#415B91"/>
<path d="M589.285 393.817H612.859L609.165 382.551H592.961L589.285 393.817Z" fill="#415B91"/>
<path d="M635.943 421.222H644.435V390.561H688.069V421.222H696.579V390.561H705.632V366.09H698.389V363.813H686.005V366.09H647.295V363.813H634.911V366.09H627.035V390.561H635.943V421.222ZM702.825 368.637V368.738L697.502 388.015H688.16L693.429 368.637H702.825ZM678.455 388.015H669.095L674.363 368.637H683.724L678.455 388.015ZM659.299 388.015H649.957L655.226 368.637H664.568L659.299 388.015ZM635.943 368.637H645.304L640.035 388.015H630.674L635.943 368.637Z" fill="#B6D0FB"/>
<path d="M217.791 121.513L220.326 119.135C220.561 118.909 220.692 118.607 220.692 118.292C220.692 117.977 220.561 117.675 220.326 117.449L218.117 115.391C217.851 115.137 217.679 114.811 217.623 114.459C217.568 114.108 217.633 113.75 217.81 113.435L219.62 109.353C219.731 109.012 219.956 108.712 220.262 108.497C220.568 108.281 220.939 108.162 221.322 108.156H224.454C224.802 108.156 225.135 108.029 225.383 107.801C225.63 107.574 225.771 107.265 225.776 106.942V103.569C225.771 103.245 225.63 102.936 225.383 102.709C225.135 102.482 224.802 102.354 224.454 102.354H221.322C220.939 102.348 220.568 102.229 220.262 102.014C219.956 101.799 219.731 101.499 219.62 101.157L217.81 97.0757C217.633 96.7609 217.568 96.4023 217.623 96.0511C217.679 95.6998 217.851 95.3737 218.117 95.1193L220.326 93.0618C220.561 92.8354 220.692 92.5331 220.692 92.2185C220.692 91.9039 220.561 91.6016 220.326 91.3753L217.791 88.9973C217.546 88.7827 217.223 88.6632 216.886 88.6632C216.55 88.6632 216.226 88.7827 215.981 88.9973L213.772 91.0548C213.499 91.3025 213.149 91.4635 212.772 91.5149C212.395 91.5664 212.01 91.5058 211.672 91.3415L207.29 89.655C206.927 89.5486 206.609 89.3381 206.381 89.0535C206.153 88.7688 206.028 88.4246 206.023 88.0697V85.1521C206.023 84.8255 205.883 84.5124 205.636 84.2815C205.388 84.0506 205.052 83.9209 204.701 83.9209H201.08C200.729 83.9209 200.393 84.0506 200.145 84.2815C199.897 84.5124 199.758 84.8255 199.758 85.1521V88.0697C199.753 88.4246 199.628 88.7688 199.4 89.0535C199.172 89.3381 198.854 89.5486 198.491 89.655L194.091 91.3415C193.753 91.5058 193.368 91.5664 192.991 91.5149C192.614 91.4635 192.264 91.3025 191.991 91.0548L189.782 88.9973C189.539 88.7788 189.214 88.6567 188.877 88.6567C188.539 88.6567 188.214 88.7788 187.971 88.9973L185.419 91.3753C185.184 91.6016 185.053 91.9039 185.053 92.2185C185.053 92.5331 185.184 92.8354 185.419 93.0618L187.627 95.1193C187.893 95.3737 188.066 95.6998 188.121 96.0511C188.177 96.4023 188.112 96.7609 187.935 97.0757L186.125 101.157C186.014 101.499 185.789 101.799 185.483 102.014C185.177 102.229 184.806 102.348 184.423 102.354H181.29C180.943 102.354 180.61 102.482 180.362 102.709C180.115 102.936 179.974 103.245 179.969 103.569V106.942C179.974 107.265 180.115 107.574 180.362 107.801C180.61 108.029 180.943 108.156 181.29 108.156H184.423C184.806 108.162 185.177 108.281 185.483 108.497C185.789 108.712 186.014 109.012 186.125 109.353L187.935 113.435C188.112 113.75 188.177 114.108 188.121 114.459C188.066 114.811 187.893 115.137 187.627 115.391L185.419 117.449C185.184 117.675 185.053 117.977 185.053 118.292C185.053 118.607 185.184 118.909 185.419 119.135L187.971 121.513C188.214 121.732 188.539 121.854 188.877 121.854C189.214 121.854 189.539 121.732 189.782 121.513L191.991 119.456C192.264 119.208 192.614 119.047 192.991 118.996C193.368 118.944 193.753 119.005 194.091 119.169L198.491 120.855C198.854 120.962 199.172 121.172 199.4 121.457C199.628 121.742 199.753 122.086 199.758 122.441V125.358C199.758 125.685 199.897 125.998 200.145 126.229C200.393 126.46 200.729 126.59 201.08 126.59H204.701C205.052 126.59 205.388 126.46 205.636 126.229C205.883 125.998 206.023 125.685 206.023 125.358V122.441C206.028 122.086 206.153 121.742 206.381 121.457C206.609 121.172 206.927 120.962 207.29 120.855L211.672 119.169C212.01 119.005 212.395 118.944 212.772 118.996C213.149 119.047 213.499 119.208 213.772 119.456L215.981 121.513C216.226 121.728 216.55 121.847 216.886 121.847C217.223 121.847 217.546 121.728 217.791 121.513ZM202.818 115.02C200.734 115.02 198.697 114.444 196.964 113.366C195.231 112.287 193.88 110.754 193.083 108.961C192.285 107.167 192.076 105.194 192.483 103.29C192.89 101.386 193.893 99.6368 195.367 98.264C196.841 96.8913 198.718 95.9565 200.762 95.5778C202.806 95.199 204.925 95.3934 206.851 96.1363C208.776 96.8792 210.422 98.1373 211.58 99.7514C212.738 101.366 213.356 103.263 213.356 105.205C213.351 107.807 212.239 110.301 210.264 112.14C208.289 113.98 205.611 115.016 202.818 115.02Z" fill="#B6D0FB"/>
<path d="M242.145 130.788L241.511 128.798C241.48 128.701 241.429 128.611 241.36 128.533C241.291 128.455 241.206 128.39 241.11 128.343C241.014 128.296 240.908 128.267 240.8 128.258C240.692 128.25 240.583 128.261 240.479 128.292L238.669 128.815C238.439 128.868 238.198 128.856 237.975 128.781C237.753 128.706 237.559 128.571 237.419 128.394L235.609 126.269C235.455 126.108 235.354 125.91 235.319 125.697C235.284 125.485 235.315 125.267 235.41 125.071L236.333 123.469C236.436 123.292 236.46 123.085 236.399 122.892C236.338 122.699 236.197 122.537 236.007 122.44L233.997 121.428C233.902 121.381 233.798 121.353 233.691 121.343C233.584 121.334 233.476 121.345 233.374 121.374C233.271 121.404 233.176 121.453 233.093 121.517C233.011 121.581 232.943 121.66 232.893 121.749L231.97 123.435C231.845 123.619 231.666 123.765 231.453 123.855C231.241 123.945 231.005 123.975 230.775 123.941L227.86 123.671C227.624 123.664 227.396 123.591 227.206 123.462C227.015 123.332 226.871 123.153 226.791 122.946L226.23 121.26C226.167 121.068 226.025 120.906 225.835 120.812C225.645 120.717 225.423 120.696 225.216 120.754L223.08 121.361C222.976 121.388 222.88 121.434 222.796 121.497C222.712 121.559 222.643 121.637 222.592 121.725C222.541 121.813 222.51 121.91 222.501 122.01C222.491 122.11 222.503 122.21 222.537 122.305L223.098 123.992C223.156 124.203 223.143 124.426 223.063 124.631C222.982 124.835 222.836 125.013 222.645 125.139L220.364 126.825C220.195 126.974 219.982 127.072 219.752 127.105C219.523 127.139 219.287 127.105 219.078 127.011L217.358 126.151C217.263 126.104 217.159 126.075 217.052 126.065C216.945 126.056 216.837 126.067 216.735 126.097C216.632 126.126 216.537 126.175 216.454 126.239C216.372 126.303 216.304 126.382 216.254 126.471L215.186 128.292C215.088 128.475 215.069 128.685 215.133 128.879C215.197 129.074 215.339 129.238 215.53 129.338L217.25 130.198C217.449 130.308 217.608 130.472 217.705 130.667C217.802 130.863 217.833 131.082 217.793 131.294L217.503 134.027C217.494 134.244 217.415 134.453 217.276 134.628C217.137 134.802 216.945 134.934 216.725 135.005L214.914 135.528C214.707 135.59 214.533 135.725 214.432 135.905C214.33 136.085 214.308 136.294 214.371 136.489L215.023 138.479C215.086 138.671 215.227 138.832 215.418 138.927C215.608 139.022 215.83 139.043 216.037 138.985L217.847 138.462C218.074 138.408 218.313 138.42 218.533 138.495C218.753 138.57 218.943 138.706 219.078 138.884L220.889 140.992C221.051 141.151 221.157 141.353 221.192 141.57C221.228 141.787 221.191 142.009 221.088 142.206L220.165 143.808C220.114 143.897 220.083 143.994 220.073 144.093C220.063 144.193 220.075 144.294 220.107 144.389C220.139 144.485 220.191 144.574 220.26 144.651C220.329 144.728 220.413 144.791 220.509 144.837L222.464 145.815C222.658 145.908 222.882 145.928 223.09 145.871C223.299 145.815 223.477 145.686 223.587 145.512L224.492 143.825C224.614 143.638 224.792 143.489 225.005 143.396C225.217 143.303 225.455 143.271 225.687 143.302L228.602 143.572C228.841 143.576 229.073 143.65 229.265 143.783C229.456 143.916 229.598 144.102 229.67 144.314L230.232 146.001C230.26 146.097 230.31 146.187 230.377 146.265C230.444 146.343 230.528 146.408 230.623 146.455C230.717 146.503 230.821 146.531 230.928 146.54C231.035 146.549 231.143 146.538 231.245 146.507L233.4 145.916C233.605 145.851 233.775 145.715 233.876 145.536C233.977 145.357 234.001 145.15 233.943 144.955L233.382 143.269C233.32 143.059 233.328 142.837 233.406 142.632C233.483 142.427 233.627 142.249 233.816 142.122L236.098 140.435C236.274 140.292 236.49 140.199 236.721 140.166C236.951 140.133 237.188 140.162 237.401 140.25L239.103 141.11C239.296 141.207 239.521 141.229 239.731 141.172C239.941 141.116 240.119 140.984 240.226 140.806L241.276 138.968C241.326 138.88 241.357 138.783 241.367 138.683C241.377 138.583 241.366 138.483 241.334 138.387C241.302 138.291 241.25 138.202 241.181 138.126C241.112 138.049 241.027 137.985 240.932 137.939L239.23 137.079C239.029 136.97 238.868 136.807 238.768 136.612C238.668 136.416 238.633 136.197 238.669 135.983L238.958 133.251C238.969 133.032 239.048 132.821 239.187 132.644C239.325 132.467 239.516 132.332 239.737 132.256L241.548 131.733C241.655 131.709 241.755 131.666 241.844 131.605C241.932 131.545 242.007 131.468 242.063 131.38C242.119 131.291 242.155 131.193 242.169 131.092C242.183 130.99 242.175 130.887 242.145 130.788ZM233.997 136.489C233.387 137.551 232.452 138.422 231.311 138.989C230.17 139.556 228.873 139.795 227.586 139.676C226.299 139.557 225.078 139.084 224.08 138.318C223.081 137.552 222.349 136.527 221.975 135.374C221.602 134.22 221.605 132.989 221.984 131.837C222.362 130.684 223.099 129.662 224.101 128.901C225.104 128.139 226.326 127.671 227.614 127.557C228.902 127.443 230.197 127.687 231.336 128.259C232.092 128.636 232.76 129.148 233.303 129.766C233.845 130.384 234.252 131.095 234.499 131.86C234.747 132.624 234.83 133.426 234.743 134.221C234.657 135.015 234.404 135.786 233.997 136.489Z" fill="#B6D0FB"/>
<path d="M348.769 169.207H289.745C289.248 169.207 288.771 169.023 288.42 168.696C288.069 168.368 287.871 167.924 287.871 167.461C287.871 166.998 288.069 166.554 288.42 166.227C288.771 165.9 289.248 165.716 289.745 165.716H348.769C349.266 165.716 349.743 165.9 350.094 166.227C350.446 166.554 350.643 166.998 350.643 167.461C350.643 167.924 350.446 168.368 350.094 168.696C349.743 169.023 349.266 169.207 348.769 169.207Z" fill="#405B91"/>
<path d="M228.566 194.185H133.258C132.759 194.185 132.28 194 131.927 193.671C131.573 193.342 131.375 192.896 131.375 192.431C131.375 191.966 131.573 191.519 131.927 191.19C132.28 190.862 132.759 190.677 133.258 190.677H228.566C229.065 190.677 229.544 190.862 229.898 191.19C230.251 191.519 230.449 191.966 230.449 192.431C230.449 192.896 230.251 193.342 229.898 193.671C229.544 194 229.065 194.185 228.566 194.185Z" fill="#405B91"/>
<path d="M685.731 241.474H590.387C589.888 241.474 589.409 241.289 589.055 240.96C588.702 240.631 588.504 240.185 588.504 239.72C588.504 239.255 588.702 238.808 589.055 238.48C589.409 238.151 589.888 237.966 590.387 237.966H685.731C686.231 237.966 686.71 238.151 687.063 238.48C687.416 238.808 687.614 239.255 687.614 239.72C687.614 240.185 687.416 240.631 687.063 240.96C686.71 241.289 686.231 241.474 685.731 241.474Z" fill="#405B91"/>
<path d="M723.211 425H1.88299C1.38359 425 0.904646 424.815 0.551518 424.486C0.19839 424.157 0 423.711 0 423.246C0 422.781 0.19839 422.335 0.551518 422.006C0.904646 421.677 1.38359 421.492 1.88299 421.492H723.211C723.711 421.492 724.19 421.677 724.543 422.006C724.896 422.335 725.094 422.781 725.094 423.246C725.094 423.711 724.896 424.157 724.543 424.486C724.19 424.815 723.711 425 723.211 425Z" fill="#405B91"/>
<path d="M458.615 147.232C455.949 147.236 453.331 147.895 451.026 149.143C448.72 150.39 446.809 152.182 445.485 154.338C444.16 156.493 443.47 158.936 443.484 161.42C443.497 163.903 444.214 166.339 445.561 168.482L445.797 168.87L430.479 183.155C430.238 183.375 430.047 183.637 429.917 183.927C429.786 184.217 429.719 184.527 429.719 184.842C429.742 185.259 429.857 185.667 430.056 186.041C430.255 186.416 430.535 186.748 430.877 187.017C431.197 187.361 431.588 187.642 432.026 187.842C432.465 188.042 432.943 188.157 433.43 188.181C434.084 188.174 434.718 187.973 435.241 187.607L450.54 173.356L450.957 173.576C452.965 174.679 455.22 175.336 457.546 175.494C459.872 175.653 462.206 175.31 464.366 174.491C466.526 173.672 468.454 172.4 470 170.774C471.545 169.148 472.668 167.211 473.279 165.115C473.89 163.018 473.973 160.819 473.522 158.688C473.072 156.556 472.099 154.551 470.68 152.827C469.261 151.103 467.434 149.708 465.342 148.749C463.249 147.79 460.947 147.294 458.615 147.3V147.232ZM458.615 171.265C455.792 171.265 453.084 170.22 451.087 168.361C449.091 166.501 447.969 163.979 447.969 161.348C447.969 158.718 449.091 156.196 451.087 154.336C453.084 152.477 455.792 151.432 458.615 151.432C461.439 151.432 464.147 152.477 466.143 154.336C468.14 156.196 469.261 158.718 469.261 161.348C469.261 163.979 468.14 166.501 466.143 168.361C464.147 170.22 461.439 171.265 458.615 171.265Z" fill="#B6D0FB"/>
<path d="M453.074 163.406H463.938V160.792H453.074V163.406Z" fill="#B6D0FB"/>
<path d="M177.416 421.745C176.936 421.745 176.475 421.568 176.136 421.251C175.796 420.935 175.605 420.506 175.605 420.059V285.29C175.605 284.825 175.804 284.379 176.157 284.05C176.51 283.721 176.989 283.536 177.488 283.536C177.988 283.536 178.467 283.721 178.82 284.05C179.173 284.379 179.371 284.825 179.371 285.29V419.941C179.391 420.184 179.353 420.428 179.261 420.656C179.17 420.884 179.026 421.091 178.84 421.263C178.654 421.434 178.431 421.566 178.185 421.65C177.939 421.733 177.677 421.766 177.416 421.745Z" fill="#405B91"/>
<path d="M211.022 421.745C210.541 421.745 210.081 421.568 209.741 421.251C209.402 420.935 209.211 420.506 209.211 420.059V285.29C209.211 284.825 209.409 284.379 209.762 284.05C210.116 283.721 210.595 283.536 211.094 283.536C211.593 283.536 212.072 283.721 212.425 284.05C212.779 284.379 212.977 284.825 212.977 285.29V419.941C212.996 420.184 212.959 420.428 212.867 420.656C212.775 420.884 212.631 421.091 212.446 421.263C212.26 421.434 212.036 421.566 211.79 421.65C211.545 421.733 211.282 421.766 211.022 421.745Z" fill="#405B91"/>
<path d="M211.021 296.235H177.417C177.171 296.235 176.927 296.19 176.7 296.102C176.472 296.015 176.266 295.886 176.092 295.724C175.918 295.562 175.78 295.369 175.686 295.158C175.591 294.946 175.543 294.719 175.543 294.49C175.543 294.26 175.591 294.034 175.686 293.822C175.78 293.61 175.918 293.418 176.092 293.255C176.266 293.093 176.472 292.965 176.7 292.877C176.927 292.789 177.171 292.744 177.417 292.744H211.021C211.267 292.744 211.511 292.789 211.738 292.877C211.965 292.965 212.172 293.093 212.346 293.255C212.52 293.418 212.658 293.61 212.752 293.822C212.846 294.034 212.895 294.26 212.895 294.49C212.895 294.719 212.846 294.946 212.752 295.158C212.658 295.369 212.52 295.562 212.346 295.724C212.172 295.886 211.965 296.015 211.738 296.102C211.511 296.19 211.267 296.235 211.021 296.235Z" fill="#405B91"/>
<path d="M211.022 311.633H177.418C176.919 311.633 176.44 311.448 176.087 311.119C175.734 310.79 175.535 310.344 175.535 309.879C175.535 309.414 175.734 308.968 176.087 308.639C176.44 308.31 176.919 308.125 177.418 308.125H211.022C211.522 308.125 212.001 308.31 212.354 308.639C212.707 308.968 212.905 309.414 212.905 309.879C212.905 310.344 212.707 310.79 212.354 311.119C212.001 311.448 211.522 311.633 211.022 311.633Z" fill="#405B91"/>
<path d="M211.021 327.014H177.417C176.92 327.014 176.443 326.83 176.092 326.502C175.74 326.175 175.543 325.731 175.543 325.268C175.543 324.805 175.74 324.361 176.092 324.034C176.443 323.706 176.92 323.522 177.417 323.522H211.021C211.518 323.522 211.995 323.706 212.346 324.034C212.697 324.361 212.895 324.805 212.895 325.268C212.895 325.731 212.697 326.175 212.346 326.502C211.995 326.83 211.518 327.014 211.021 327.014Z" fill="#405B91"/>
<path d="M211.022 342.361H177.418C176.919 342.361 176.44 342.177 176.087 341.848C175.734 341.519 175.535 341.073 175.535 340.607C175.535 340.142 175.734 339.696 176.087 339.367C176.44 339.038 176.919 338.854 177.418 338.854H211.022C211.522 338.854 212.001 339.038 212.354 339.367C212.707 339.696 212.905 340.142 212.905 340.607C212.905 341.073 212.707 341.519 212.354 341.848C212.001 342.177 211.522 342.361 211.022 342.361Z" fill="#405B91"/>
<path d="M211.021 357.793H177.417C176.92 357.793 176.443 357.609 176.092 357.282C175.74 356.954 175.543 356.51 175.543 356.047C175.543 355.584 175.74 355.14 176.092 354.813C176.443 354.486 176.92 354.302 177.417 354.302H211.021C211.518 354.302 211.995 354.486 212.346 354.813C212.697 355.14 212.895 355.584 212.895 356.047C212.895 356.51 212.697 356.954 212.346 357.282C211.995 357.609 211.518 357.793 211.021 357.793Z" fill="#405B91"/>
<path d="M211.022 373.191H177.418C176.919 373.191 176.44 373.006 176.087 372.677C175.734 372.348 175.535 371.902 175.535 371.437C175.535 370.971 175.734 370.525 176.087 370.196C176.44 369.867 176.919 369.683 177.418 369.683H211.022C211.522 369.683 212.001 369.867 212.354 370.196C212.707 370.525 212.905 370.971 212.905 371.437C212.905 371.902 212.707 372.348 212.354 372.677C212.001 373.006 211.522 373.191 211.022 373.191Z" fill="#405B91"/>
<path d="M211.021 388.571H177.417C176.92 388.571 176.443 388.387 176.092 388.06C175.74 387.733 175.543 387.289 175.543 386.826C175.543 386.363 175.74 385.919 176.092 385.591C176.443 385.264 176.92 385.08 177.417 385.08H211.021C211.518 385.08 211.995 385.264 212.346 385.591C212.697 385.919 212.895 386.363 212.895 386.826C212.895 387.289 212.697 387.733 212.346 388.06C211.995 388.387 211.518 388.571 211.021 388.571Z" fill="#405B91"/>
<path d="M211.022 403.969H177.418C176.919 403.969 176.44 403.784 176.087 403.455C175.734 403.126 175.535 402.68 175.535 402.215C175.535 401.75 175.734 401.304 176.087 400.975C176.44 400.646 176.919 400.461 177.418 400.461H211.022C211.522 400.461 212.001 400.646 212.354 400.975C212.707 401.304 212.905 401.75 212.905 402.215C212.905 402.68 212.707 403.126 212.354 403.455C212.001 403.784 211.522 403.969 211.022 403.969Z" fill="#405B91"/>
<path d="M131.647 291.766C131.166 291.766 130.706 291.588 130.366 291.272C130.027 290.955 129.836 290.526 129.836 290.079V283.333C129.836 282.868 130.034 282.422 130.387 282.093C130.741 281.764 131.22 281.579 131.719 281.579C132.218 281.579 132.697 281.764 133.05 282.093C133.404 282.422 133.602 282.868 133.602 283.333V290.079C133.603 290.312 133.552 290.543 133.452 290.757C133.352 290.971 133.205 291.164 133.021 291.322C132.838 291.481 132.621 291.602 132.384 291.678C132.147 291.754 131.896 291.784 131.647 291.766Z" fill="#405B91"/>
<path d="M135.304 288.392H128.061C127.564 288.392 127.088 288.209 126.736 287.881C126.385 287.554 126.188 287.11 126.188 286.647C126.188 286.184 126.385 285.74 126.736 285.413C127.088 285.085 127.564 284.901 128.061 284.901H135.304C135.801 284.901 136.277 285.085 136.629 285.413C136.98 285.74 137.178 286.184 137.178 286.647C137.178 287.11 136.98 287.554 136.629 287.881C136.277 288.209 135.801 288.392 135.304 288.392Z" fill="#405B91"/>
<path d="M300.518 48.2337C300.037 48.2337 299.577 48.056 299.237 47.7398C298.898 47.4235 298.707 46.9945 298.707 46.5472V39.8012C298.707 39.3382 298.904 38.8943 299.256 38.5669C299.607 38.2396 300.084 38.0557 300.581 38.0557C301.078 38.0557 301.555 38.2396 301.906 38.5669C302.257 38.8943 302.455 39.3382 302.455 39.8012V46.5472C302.455 46.779 302.405 47.0084 302.306 47.2211C302.207 47.4338 302.062 47.6253 301.881 47.7835C301.699 47.9418 301.484 48.0634 301.249 48.1409C301.015 48.2184 300.766 48.25 300.518 48.2337Z" fill="#405B91"/>
<path d="M304.176 44.8273H296.934C296.434 44.8273 295.955 44.6425 295.602 44.3135C295.249 43.9846 295.051 43.5385 295.051 43.0733C295.051 42.6081 295.249 42.162 295.602 41.8331C295.955 41.5041 296.434 41.3193 296.934 41.3193H304.176C304.675 41.3193 305.154 41.5041 305.507 41.8331C305.861 42.162 306.059 42.6081 306.059 43.0733C306.059 43.5385 305.861 43.9846 305.507 44.3135C305.154 44.6425 304.675 44.8273 304.176 44.8273Z" fill="#405B91"/>
<path d="M359.706 400.815C359.532 400.839 359.355 400.839 359.181 400.815L352.156 398.943C351.914 398.887 351.688 398.786 351.491 398.645C351.293 398.504 351.129 398.327 351.009 398.124C350.888 397.922 350.813 397.698 350.79 397.467C350.766 397.237 350.793 397.004 350.87 396.784C350.93 396.559 351.039 396.348 351.19 396.165C351.341 395.981 351.532 395.828 351.749 395.716C351.967 395.603 352.206 395.534 352.454 395.512C352.701 395.489 352.951 395.515 353.188 395.587L360.213 397.459C360.693 397.521 361.127 397.759 361.419 398.12C361.711 398.48 361.837 398.934 361.77 399.381C361.703 399.829 361.447 400.233 361.06 400.505C360.673 400.777 360.186 400.894 359.706 400.832V400.815Z" fill="#405B91"/>
<path d="M355.178 403.16C355.01 403.185 354.839 403.185 354.671 403.16C354.43 403.104 354.204 403.003 354.006 402.862C353.809 402.721 353.645 402.544 353.524 402.341C353.404 402.139 353.329 401.915 353.305 401.685C353.281 401.454 353.309 401.222 353.386 401.001L355.395 394.441C355.532 393.994 355.854 393.615 356.291 393.389C356.727 393.163 357.242 393.108 357.722 393.235C358.202 393.363 358.608 393.663 358.851 394.069C359.094 394.475 359.153 394.955 359.017 395.402L357.007 401.963C356.89 402.324 356.646 402.639 356.315 402.856C355.983 403.073 355.583 403.18 355.178 403.16Z" fill="#405B91"/>
<path d="M322.714 195.112C322.546 195.137 322.375 195.137 322.207 195.112L315.164 193.24C314.683 193.113 314.277 192.813 314.034 192.406C313.792 192 313.732 191.52 313.869 191.073C314.006 190.626 314.328 190.247 314.764 190.021C315.2 189.795 315.715 189.739 316.196 189.867L323.221 191.739C323.701 191.802 324.135 192.039 324.427 192.4C324.719 192.76 324.845 193.214 324.778 193.662C324.71 194.109 324.455 194.513 324.068 194.785C323.681 195.057 323.194 195.175 322.714 195.112Z" fill="#405B91"/>
<path d="M318.245 197.456C318.076 197.478 317.906 197.478 317.738 197.456C317.496 197.4 317.27 197.299 317.073 197.158C316.875 197.017 316.711 196.84 316.591 196.637C316.47 196.435 316.395 196.211 316.372 195.981C316.348 195.75 316.375 195.517 316.452 195.297L318.462 188.753C318.53 188.532 318.644 188.325 318.797 188.145C318.951 187.964 319.141 187.814 319.357 187.702C319.573 187.59 319.811 187.519 320.056 187.492C320.302 187.466 320.551 187.485 320.788 187.548C321.026 187.611 321.248 187.717 321.442 187.86C321.636 188.003 321.797 188.18 321.918 188.381C322.038 188.583 322.114 188.804 322.143 189.033C322.171 189.262 322.151 189.493 322.083 189.715L320.073 196.258C319.956 196.62 319.713 196.934 319.381 197.151C319.049 197.368 318.649 197.476 318.245 197.456Z" fill="#405B91"/>
<path d="M336.283 147.835C346.472 138.344 346.472 122.957 336.283 113.466C326.094 103.975 309.575 103.975 299.386 113.466C289.197 122.957 289.197 138.344 299.386 147.835C309.575 157.326 326.094 157.326 336.283 147.835Z" fill="#B6D0FB"/>
<path d="M317.845 148.851C328.634 148.851 337.381 140.704 337.381 130.653C337.381 120.603 328.634 112.456 317.845 112.456C307.055 112.456 298.309 120.603 298.309 130.653C298.309 140.704 307.055 148.851 317.845 148.851Z" fill="white"/>
<path d="M317.843 149.56C313.829 149.56 309.905 148.451 306.567 146.373C303.229 144.296 300.628 141.343 299.092 137.889C297.556 134.434 297.154 130.633 297.937 126.965C298.72 123.298 300.653 119.929 303.492 117.285C306.33 114.641 309.947 112.841 313.884 112.111C317.821 111.382 321.902 111.756 325.61 113.187C329.319 114.618 332.489 117.041 334.719 120.15C336.949 123.259 338.14 126.915 338.14 130.654C338.135 135.667 335.995 140.473 332.19 144.017C328.384 147.562 323.225 149.555 317.843 149.56ZM317.843 113.165C314.125 113.165 310.491 114.192 307.4 116.116C304.309 118.04 301.9 120.776 300.479 123.975C299.057 127.175 298.685 130.696 299.412 134.092C300.139 137.488 301.93 140.608 304.561 143.055C307.191 145.503 310.541 147.169 314.188 147.842C317.835 148.516 321.614 148.167 325.048 146.839C328.482 145.512 331.416 143.265 333.478 140.384C335.541 137.503 336.641 134.117 336.637 130.654C336.632 126.014 334.65 121.565 331.126 118.286C327.602 115.007 322.825 113.165 317.843 113.165Z" fill="#405B91"/>
<path d="M317.842 131.363C317.641 131.363 317.447 131.288 317.305 131.155C317.162 131.022 317.082 130.842 317.082 130.654V121.429C317.082 121.241 317.162 121.061 317.305 120.928C317.447 120.795 317.641 120.721 317.842 120.721C318.044 120.721 318.238 120.795 318.38 120.928C318.523 121.061 318.603 121.241 318.603 121.429V130.688C318.594 130.87 318.509 131.042 318.368 131.167C318.226 131.293 318.038 131.363 317.842 131.363Z" fill="#405B91"/>
<path d="M329.502 131.362H317.842C317.641 131.362 317.447 131.287 317.305 131.154C317.162 131.022 317.082 130.841 317.082 130.654C317.082 130.561 317.102 130.47 317.14 130.385C317.179 130.3 317.235 130.223 317.306 130.159C317.377 130.094 317.461 130.044 317.553 130.01C317.645 129.976 317.743 129.96 317.842 129.962H329.502C329.601 129.96 329.7 129.976 329.792 130.01C329.884 130.044 329.968 130.094 330.039 130.159C330.11 130.223 330.166 130.3 330.205 130.385C330.243 130.47 330.263 130.561 330.263 130.654C330.263 130.841 330.183 131.022 330.04 131.154C329.898 131.287 329.704 131.362 329.502 131.362Z" fill="#405B91"/>
<path d="M318.624 114.514C318.624 114.658 318.578 114.798 318.492 114.917C318.407 115.036 318.285 115.129 318.143 115.184C318.001 115.239 317.844 115.253 317.693 115.226C317.542 115.198 317.403 115.128 317.294 115.027C317.186 114.926 317.111 114.796 317.081 114.656C317.051 114.515 317.067 114.369 317.126 114.237C317.185 114.104 317.284 113.991 317.412 113.911C317.54 113.832 317.691 113.789 317.845 113.789C317.947 113.789 318.048 113.808 318.143 113.844C318.237 113.881 318.323 113.934 318.395 114.001C318.468 114.069 318.525 114.149 318.564 114.237C318.603 114.325 318.624 114.419 318.624 114.514Z" fill="#405B91"/>
<path d="M330.103 119.961C330.533 119.961 330.881 119.636 330.881 119.236C330.881 118.835 330.533 118.511 330.103 118.511C329.673 118.511 329.324 118.835 329.324 119.236C329.324 119.636 329.673 119.961 330.103 119.961Z" fill="#405B91"/>
<path d="M335.173 131.379C335.019 131.379 334.869 131.337 334.741 131.257C334.612 131.177 334.513 131.064 334.454 130.931C334.395 130.799 334.379 130.653 334.409 130.512C334.44 130.372 334.514 130.243 334.623 130.141C334.731 130.04 334.87 129.971 335.021 129.943C335.172 129.915 335.329 129.929 335.471 129.984C335.613 130.039 335.735 130.132 335.82 130.251C335.906 130.37 335.952 130.51 335.952 130.654C335.954 130.75 335.936 130.845 335.897 130.934C335.859 131.023 335.802 131.104 335.729 131.172C335.656 131.24 335.569 131.293 335.474 131.329C335.378 131.364 335.276 131.381 335.173 131.379Z" fill="#405B91"/>
<path d="M330.103 142.797C330.533 142.797 330.881 142.472 330.881 142.072C330.881 141.671 330.533 141.347 330.103 141.347C329.673 141.347 329.324 141.671 329.324 142.072C329.324 142.472 329.673 142.797 330.103 142.797Z" fill="#405B91"/>
<path d="M317.067 146.81C317.063 146.666 317.106 146.524 317.189 146.403C317.272 146.282 317.393 146.186 317.534 146.129C317.676 146.071 317.833 146.054 317.986 146.08C318.138 146.106 318.278 146.174 318.389 146.275C318.5 146.375 318.576 146.505 318.607 146.646C318.639 146.787 318.624 146.934 318.566 147.067C318.508 147.201 318.408 147.315 318.279 147.395C318.151 147.476 318 147.519 317.845 147.519C317.642 147.519 317.446 147.445 317.301 147.312C317.155 147.18 317.071 147 317.067 146.81Z" fill="#405B91"/>
<path d="M305.045 141.566C305.191 141.434 305.386 141.36 305.589 141.36C305.791 141.36 305.986 141.434 306.132 141.566C306.237 141.666 306.307 141.792 306.335 141.929C306.364 142.066 306.348 142.208 306.29 142.336C306.232 142.465 306.134 142.575 306.009 142.652C305.885 142.729 305.738 142.77 305.589 142.77C305.439 142.77 305.292 142.729 305.168 142.652C305.043 142.575 304.946 142.465 304.888 142.336C304.83 142.208 304.814 142.066 304.842 141.929C304.87 141.792 304.941 141.666 305.045 141.566Z" fill="#405B91"/>
<path d="M300.517 131.379C300.947 131.379 301.295 131.054 301.295 130.654C301.295 130.253 300.947 129.929 300.517 129.929C300.087 129.929 299.738 130.253 299.738 130.654C299.738 131.054 300.087 131.379 300.517 131.379Z" fill="#405B91"/>
<path d="M306.129 118.73C306.201 118.797 306.259 118.878 306.299 118.966C306.338 119.054 306.358 119.149 306.358 119.244C306.358 119.34 306.338 119.435 306.299 119.523C306.259 119.611 306.201 119.691 306.129 119.759C305.983 119.891 305.788 119.964 305.585 119.964C305.382 119.964 305.188 119.891 305.042 119.759C304.969 119.691 304.912 119.611 304.872 119.523C304.833 119.435 304.813 119.34 304.812 119.244C304.813 119.149 304.833 119.054 304.872 118.966C304.912 118.878 304.969 118.797 305.042 118.73C305.188 118.598 305.382 118.524 305.585 118.524C305.788 118.524 305.983 118.598 306.129 118.73Z" fill="#405B91"/>
<path d="M356.01 121.429H345.147C345.039 121.444 344.928 121.438 344.822 121.41C344.717 121.382 344.619 121.333 344.535 121.267C344.452 121.2 344.385 121.118 344.339 121.025C344.293 120.932 344.27 120.831 344.27 120.729C344.27 120.627 344.293 120.526 344.339 120.433C344.385 120.34 344.452 120.257 344.535 120.191C344.619 120.124 344.717 120.075 344.822 120.047C344.928 120.02 345.039 120.013 345.147 120.029H356.01C356.19 120.055 356.353 120.14 356.471 120.268C356.589 120.396 356.654 120.56 356.654 120.729C356.654 120.898 356.589 121.061 356.471 121.19C356.353 121.318 356.19 121.403 356.01 121.429Z" fill="#405B91"/>
<path d="M356.011 141.346H345.147C344.945 141.346 344.752 141.272 344.609 141.139C344.467 141.006 344.387 140.826 344.387 140.638C344.387 140.546 344.406 140.454 344.445 140.369C344.483 140.284 344.54 140.207 344.61 140.143C344.681 140.079 344.765 140.028 344.858 139.994C344.95 139.96 345.048 139.944 345.147 139.946H356.011C356.207 139.946 356.396 140.019 356.535 140.149C356.675 140.279 356.753 140.455 356.753 140.638C356.755 140.73 356.738 140.822 356.702 140.908C356.665 140.994 356.611 141.072 356.542 141.138C356.473 141.204 356.39 141.256 356.299 141.292C356.208 141.328 356.11 141.346 356.011 141.346Z" fill="#405B91"/>
<path d="M369.626 131.362H349.166C349.058 131.378 348.947 131.372 348.842 131.344C348.736 131.316 348.638 131.267 348.555 131.2C348.472 131.134 348.405 131.051 348.359 130.959C348.313 130.866 348.289 130.765 348.289 130.662C348.289 130.56 348.313 130.459 348.359 130.366C348.405 130.273 348.472 130.191 348.555 130.124C348.638 130.058 348.736 130.009 348.842 129.981C348.947 129.953 349.058 129.947 349.166 129.963H369.626C369.805 129.989 369.968 130.073 370.086 130.202C370.204 130.33 370.269 130.493 370.269 130.662C370.269 130.831 370.204 130.995 370.086 131.123C369.968 131.252 369.805 131.336 369.626 131.362Z" fill="#405B91"/>
<path d="M405.313 393.816H393.219V405.082H405.313V393.816Z" fill="white"/>
<path d="M406.255 405.976H392.277V392.956H406.255V405.976ZM394.16 404.289H404.372V394.643H394.16V404.289Z" fill="#415B91"/>
<path d="M420.632 396.329H409.624C409.525 396.332 409.426 396.315 409.334 396.282C409.242 396.248 409.158 396.197 409.087 396.133C409.016 396.069 408.96 395.992 408.922 395.907C408.883 395.822 408.863 395.73 408.863 395.638C408.863 395.45 408.943 395.27 409.086 395.137C409.229 395.004 409.422 394.93 409.624 394.93H420.578C420.779 394.93 420.973 395.004 421.115 395.137C421.258 395.27 421.338 395.45 421.338 395.638C421.338 395.816 421.265 395.987 421.134 396.115C421.002 396.244 420.822 396.321 420.632 396.329Z" fill="#405B91"/>
<path d="M424.738 404.02H409.946C409.367 404.02 408.914 403.716 408.914 403.328C408.914 402.941 409.367 402.62 409.946 402.62H424.738C425.3 402.62 425.77 402.924 425.77 403.328C425.77 403.733 425.3 404.02 424.738 404.02Z" fill="#405B91"/>
<path d="M430.137 399.939H409.624C409.525 399.941 409.426 399.925 409.334 399.891C409.242 399.857 409.158 399.807 409.087 399.742C409.016 399.678 408.96 399.601 408.922 399.516C408.883 399.431 408.863 399.34 408.863 399.247C408.863 399.154 408.883 399.062 408.921 398.976C408.959 398.89 409.015 398.812 409.086 398.747C409.157 398.681 409.24 398.629 409.333 398.593C409.425 398.557 409.524 398.539 409.624 398.539H430.083C430.183 398.539 430.282 398.557 430.374 398.593C430.466 398.629 430.55 398.681 430.621 398.747C430.691 398.812 430.747 398.89 430.786 398.976C430.824 399.062 430.844 399.154 430.844 399.247C430.844 399.425 430.771 399.596 430.639 399.725C430.508 399.854 430.328 399.93 430.137 399.939Z" fill="#405B91"/>
<path d="M127.573 239.72H139.668V228.454H127.573V239.72Z" fill="white"/>
<path d="M140.61 240.597H126.633V227.577H140.61V240.597ZM128.498 238.91H138.727V229.365H128.498V238.91Z" fill="#415B91"/>
<path d="M112.257 230.933H123.12C123.322 230.933 123.515 230.859 123.658 230.726C123.8 230.593 123.88 230.413 123.88 230.225C123.88 230.037 123.8 229.857 123.658 229.724C123.515 229.591 123.322 229.517 123.12 229.517H112.257C112.055 229.517 111.861 229.591 111.719 229.724C111.576 229.857 111.496 230.037 111.496 230.225C111.496 230.413 111.576 230.593 111.719 230.726C111.861 230.859 112.055 230.933 112.257 230.933Z" fill="#405B91"/>
<path d="M108.127 238.658H122.938C123.499 238.658 123.952 238.337 123.952 237.95C123.952 237.562 123.499 237.241 122.938 237.241H108.127C107.566 237.241 107.113 237.562 107.113 237.95C107.113 238.337 107.566 238.658 108.127 238.658Z" fill="#405B91"/>
<path d="M102.749 234.577H123.208C123.41 234.577 123.603 234.502 123.746 234.369C123.888 234.237 123.969 234.056 123.969 233.868C123.969 233.681 123.888 233.5 123.746 233.368C123.603 233.235 123.41 233.16 123.208 233.16H102.749C102.547 233.16 102.354 233.235 102.211 233.368C102.068 233.5 101.988 233.681 101.988 233.868C101.988 234.056 102.068 234.237 102.211 234.369C102.354 234.502 102.547 234.577 102.749 234.577Z" fill="#405B91"/>
<path d="M500.295 270.803H496.547V421.222H500.295V270.803Z" fill="#3F5B91"/>
<path d="M498.827 254.342H497.994C491.845 254.342 486.859 258.986 486.859 264.714V278.627C486.859 284.356 491.845 289 497.994 289H498.827C504.977 289 509.962 284.356 509.962 278.627V264.714C509.962 258.986 504.977 254.342 498.827 254.342Z" fill="#B6D0FB"/>
<path d="M513.546 278.931L517.493 279.521C518.381 279.656 518.761 278.392 517.874 278.257L513.909 277.666C513.021 277.531 512.641 278.796 513.546 278.931Z" fill="#3F5B91"/>
<path d="M513.405 270.921C514.433 270.752 515.481 270.718 516.519 270.819C517.424 270.819 517.406 269.588 516.519 269.504C515.352 269.411 514.177 269.462 513.024 269.656C512.137 269.807 512.518 271.072 513.405 270.921Z" fill="#3F5B91"/>
<path d="M512.967 263.618L516.009 262.488C516.842 262.185 516.48 260.92 515.629 261.223L512.605 262.353C511.772 262.657 512.134 263.922 512.967 263.618Z" fill="#3F5B91"/>
<path d="M478.424 280.163C479.458 280.024 480.476 279.798 481.466 279.489C482.317 279.202 481.955 277.937 481.086 278.224C480.101 278.532 479.089 278.757 478.062 278.898C477.157 278.999 477.537 280.264 478.424 280.163Z" fill="#3F5B91"/>
<path d="M476.612 270.836C477.905 270.863 479.189 271.044 480.433 271.376C480.609 271.412 480.794 271.384 480.949 271.298C481.104 271.211 481.217 271.073 481.266 270.911C481.314 270.749 481.295 270.576 481.21 270.427C481.126 270.278 480.984 270.165 480.813 270.111C479.444 269.754 478.033 269.556 476.612 269.521C476.425 269.521 476.246 269.59 476.113 269.713C475.981 269.837 475.906 270.004 475.906 270.178C475.906 270.353 475.981 270.52 476.113 270.643C476.246 270.767 476.425 270.836 476.612 270.836Z" fill="#3F5B91"/>
<path d="M477.843 260.042L480.885 260.936C481.754 261.206 482.116 259.941 481.265 259.671L478.224 258.777C477.355 258.524 476.993 259.789 477.843 260.042Z" fill="#3F5B91"/>
<path d="M489.648 423.263L492.165 403.16H504.368L507.175 422.977L489.648 423.263Z" fill="#405B91"/>
<path d="M145.045 326.997C144.484 323.81 142.058 315.563 136.717 318.177C128.062 322.393 138.527 338.415 128.062 341.265C127.501 334.873 126.035 330.472 122.938 330.725C116.529 331.264 118.231 345.127 118.14 348.247C118.05 351.367 117.869 354.538 117.706 357.742C110.192 359.007 111.677 340.726 107.096 338.196C99.9805 334.266 98.4778 343.019 98.6769 347.067C99.0028 353.965 100.994 362.245 107.929 365.855C110.813 367.386 114.079 368.183 117.398 368.165C117.281 373.59 117.68 379.014 118.593 384.372H118.72L122.938 384.592C122.978 384.921 123.147 385.226 123.413 385.447C123.678 385.668 124.022 385.79 124.378 385.79C124.734 385.79 125.078 385.668 125.343 385.447C125.609 385.226 125.778 384.921 125.817 384.592C125.817 381.219 128.062 364.961 128.316 351.131C131.89 351.383 135.445 350.445 138.346 348.484C145.516 343.626 146.367 334.604 145.045 326.997Z" fill="#6CDD6C"/>
<path d="M124.349 386.683C123.923 386.687 123.503 386.582 123.136 386.379C122.691 386.135 122.361 385.744 122.213 385.283L119.117 385.131H117.976L117.813 384.473C116.925 379.327 116.52 374.119 116.6 368.907C113.419 368.761 110.318 367.924 107.547 366.461C100.142 362.566 98.1865 353.762 97.8787 347.067C97.7338 344.385 98.3494 338.803 101.59 336.948C102.53 336.505 103.584 336.32 104.632 336.412C105.679 336.505 106.678 336.872 107.511 337.47C109.72 338.702 110.553 342.53 111.53 346.797C112.852 352.683 114.047 356.916 116.962 356.916V355.465C117.071 352.969 117.197 350.49 117.27 348.062C117.27 347.589 117.27 346.864 117.27 345.97C117.071 340.506 116.69 330.353 122.846 329.83C123.306 329.789 123.771 329.836 124.21 329.97C124.649 330.103 125.054 330.32 125.399 330.606C127.21 331.955 128.224 335.059 128.749 340.084C132.642 338.482 132.37 334.283 132.207 329.476C132.044 324.67 131.736 319.593 136.317 317.367C136.949 317.013 137.665 316.811 138.401 316.779C139.137 316.747 139.871 316.885 140.536 317.182C144.356 318.969 145.678 325.952 145.804 326.727C146.818 332.563 147.253 343.204 138.797 348.989C135.959 350.87 132.558 351.873 129.075 351.856C128.857 360.879 127.862 370.829 127.264 377.457C126.92 380.83 126.667 383.428 126.649 384.507C126.638 384.853 126.531 385.191 126.337 385.487C126.143 385.783 125.87 386.026 125.544 386.194C125.202 386.457 124.788 386.626 124.349 386.683ZM119.28 383.647L123.752 383.866V384.524C123.752 384.878 123.878 384.979 123.969 385.03C124.088 385.092 124.222 385.124 124.358 385.124C124.494 385.124 124.629 385.092 124.747 385.03C124.838 384.983 124.912 384.915 124.963 384.832C125.014 384.748 125.04 384.654 125.037 384.558C125.037 383.411 125.309 380.881 125.653 377.39C126.323 370.644 127.355 360.272 127.463 351.08V350.237L128.369 350.372C131.724 350.568 135.049 349.681 137.784 347.859C145.569 342.547 145.134 332.529 144.175 327.048C143.758 324.636 142.364 319.762 139.775 318.615C139.336 318.424 138.851 318.338 138.367 318.368C137.882 318.397 137.414 318.54 137.005 318.784C133.384 320.588 133.529 324.923 133.746 329.51C133.981 334.57 134.253 340.287 128.206 341.94L127.282 342.193V341.282C126.721 334.907 125.472 332.63 124.422 331.837C124.035 331.531 123.534 331.379 123.027 331.416C118.374 331.821 118.736 341.4 118.899 346.021C118.899 346.949 118.899 347.707 118.899 348.213C118.899 350.642 118.7 353.121 118.573 355.634L118.447 358.332L117.813 358.434C112.671 359.294 111.223 352.834 109.937 347.134C109.104 343.457 108.253 339.68 106.66 338.786C106.067 338.337 105.351 338.051 104.594 337.959C103.836 337.866 103.066 337.972 102.369 338.263C99.9789 339.595 99.309 344.318 99.4358 346.982C99.7436 353.307 101.518 361.587 108.289 365.146C111.044 366.62 114.166 367.394 117.342 367.389L118.229 367.305V368.131C118.106 373.321 118.457 378.512 119.28 383.647Z" fill="#50AA50"/>
<path d="M136.753 421.627H106.191C105.425 421.642 104.677 421.403 104.084 420.952C103.49 420.501 103.088 419.867 102.95 419.164L96.0156 385.974L98.8944 385.451L105.829 418.642C105.842 418.719 105.888 418.789 105.955 418.836C106.023 418.883 106.107 418.904 106.191 418.895H136.753C136.837 418.904 136.922 418.883 136.989 418.836C137.057 418.789 137.102 418.719 137.115 418.642L144.014 385.451L146.892 385.974L140.012 419.164C139.874 419.87 139.47 420.506 138.872 420.957C138.274 421.409 137.523 421.646 136.753 421.627Z" fill="#415B91"/>
<path d="M96.3928 375.214H147.089C147.958 375.214 148.664 376.091 148.664 377.187V384.372C148.664 385.468 147.958 386.362 147.089 386.362H96.3928C95.5237 386.362 94.8176 385.468 94.8176 384.372V377.187C94.7452 376.091 95.4513 375.214 96.3928 375.214Z" fill="#B6D0FB"/>
<path d="M147.089 387.104H96.3933C95.695 387.023 95.0575 386.693 94.6151 386.184C94.1727 385.674 93.9599 385.024 94.0215 384.372V377.187C93.94 376.525 94.1441 375.86 94.5888 375.338C95.0336 374.816 95.6827 374.48 96.3933 374.404H147.089C147.788 374.477 148.428 374.802 148.872 375.31C149.315 375.818 149.527 376.468 149.461 377.12V384.304C149.504 384.633 149.476 384.967 149.38 385.286C149.284 385.605 149.121 385.904 148.901 386.164C148.68 386.424 148.407 386.641 148.096 386.802C147.785 386.964 147.443 387.066 147.089 387.104ZM96.3933 375.956C96.0312 375.956 95.6148 376.479 95.6148 377.187V384.372C95.6148 385.08 96.0312 385.603 96.3933 385.603H147.089C147.469 385.603 147.868 385.08 147.868 384.372V377.187C147.868 376.479 147.469 375.956 147.089 375.956H96.3933Z" fill="#405B91"/>
<path d="M147.089 386.969H96.3927C95.7295 386.893 95.1243 386.579 94.7052 386.094C94.2861 385.609 94.0861 384.991 94.1476 384.372V377.187C94.0861 376.567 94.2861 375.95 94.7052 375.465C95.1243 374.98 95.7295 374.666 96.3927 374.59H147.089C147.754 374.662 148.362 374.975 148.782 375.461C149.202 375.946 149.4 376.566 149.334 377.187V384.372C149.4 384.992 149.202 385.612 148.782 386.098C148.362 386.584 147.754 386.897 147.089 386.969ZM96.3927 375.838C95.9582 375.838 95.4875 376.394 95.4875 377.187V384.372C95.4875 385.181 95.9582 385.738 96.3927 385.738H147.089C147.523 385.738 147.994 385.181 147.994 384.372V377.187C147.994 376.394 147.523 375.838 147.089 375.838H96.3927Z" fill="#B6D0FB"/>
<path d="M147.089 387.728H96.3937C95.5107 387.655 94.6948 387.26 94.1246 386.627C93.5545 385.995 93.2766 385.178 93.352 384.355V377.171C93.2766 376.348 93.5545 375.531 94.1246 374.899C94.6948 374.267 95.5107 373.871 96.3937 373.798H147.089C147.972 373.871 148.788 374.267 149.359 374.899C149.929 375.531 150.207 376.348 150.131 377.171V384.355C150.207 385.178 149.929 385.995 149.359 386.627C148.788 387.26 147.972 387.655 147.089 387.728ZM96.3937 376.581C96.2527 376.755 96.1822 376.97 96.1946 377.188V384.372C96.1805 384.489 96.1944 384.606 96.2351 384.717C96.2758 384.828 96.3423 384.929 96.4299 385.013H147.089C147.089 385.013 147.198 384.777 147.198 384.389V377.205C147.209 377.09 147.195 376.974 147.158 376.864C147.121 376.754 147.061 376.652 146.981 376.564L96.3937 376.581Z" fill="#405B91"/>
<path d="M101.825 346.999L104.323 347.286C105.21 347.404 105.21 346.088 104.323 345.987L101.825 345.734C100.919 345.633 100.937 346.948 101.825 347.05V346.999Z" fill="#50AA50"/>
<path d="M105.539 336.677V337.841C105.539 338.015 105.613 338.183 105.746 338.306C105.878 338.429 106.058 338.499 106.245 338.499C106.432 338.499 106.612 338.429 106.744 338.306C106.877 338.183 106.951 338.015 106.951 337.841V336.677C106.951 336.503 106.877 336.336 106.744 336.212C106.612 336.089 106.432 336.02 106.245 336.02C106.058 336.02 105.878 336.089 105.746 336.212C105.613 336.336 105.539 336.503 105.539 336.677Z" fill="#50AA50"/>
<path d="M110.41 348.702L112.22 347.758C112.36 347.661 112.457 347.52 112.492 347.362C112.527 347.203 112.498 347.038 112.41 346.898C112.323 346.758 112.183 346.653 112.018 346.603C111.852 346.553 111.673 346.562 111.514 346.628L109.704 347.572C109.564 347.668 109.468 347.809 109.432 347.968C109.397 348.126 109.426 348.291 109.514 348.431C109.601 348.571 109.741 348.676 109.906 348.726C110.072 348.776 110.251 348.767 110.41 348.702Z" fill="#50AA50"/>
<path d="M103.184 363.796L105.375 362.363C106.117 361.891 105.375 360.676 104.669 361.233L102.46 362.666C101.736 363.156 102.46 364.353 103.184 363.796Z" fill="#50AA50"/>
<path d="M97.8969 352.481L99.4721 353.054C100.305 353.374 100.667 352.093 99.8342 351.789L98.2771 351.216C97.4262 350.912 97.064 352.177 97.8969 352.481Z" fill="#50AA50"/>
<path d="M108.126 358.619C108.273 358.631 108.414 358.672 108.542 358.739C108.67 358.805 108.782 358.897 108.869 359.007C109.43 359.665 110.426 358.737 109.865 358.08C109.64 357.836 109.363 357.641 109.05 357.507C108.738 357.374 108.398 357.304 108.054 357.304C107.149 357.304 107.149 358.552 108.054 358.619H108.126Z" fill="#50AA50"/>
<path d="M111.203 364.791C111.054 365.653 111.173 366.537 111.547 367.338C111.91 368.114 113.123 367.439 112.761 366.68C112.541 366.19 112.472 365.653 112.561 365.128C112.706 364.302 111.348 363.948 111.203 364.791Z" fill="#50AA50"/>
<path d="M118.575 365.027L119.806 365.331C119.983 365.367 120.167 365.34 120.322 365.253C120.477 365.167 120.591 365.028 120.639 364.866C120.688 364.704 120.668 364.531 120.584 364.382C120.5 364.233 120.357 364.12 120.186 364.066L118.937 363.763C118.764 363.736 118.587 363.771 118.44 363.859C118.293 363.948 118.186 364.084 118.141 364.242C118.096 364.4 118.115 364.568 118.196 364.713C118.276 364.858 118.411 364.97 118.575 365.027Z" fill="#50AA50"/>
<path d="M123.066 352.126C123.028 352.483 123.085 352.843 123.23 353.175C123.375 353.507 123.604 353.801 123.899 354.032C124.587 354.572 125.601 353.661 124.895 353.104C124.732 352.995 124.607 352.845 124.533 352.672C124.459 352.498 124.44 352.309 124.478 352.126C124.478 351.283 123.138 351.3 123.066 352.126Z" fill="#50AA50"/>
<path d="M121.272 342.749C121.089 342.991 120.962 343.266 120.9 343.557C120.837 343.847 120.841 344.147 120.91 344.436C121.073 345.262 122.431 344.908 122.268 344.082C122.245 343.964 122.252 343.842 122.29 343.728C122.328 343.613 122.395 343.509 122.485 343.424C123.028 342.732 121.815 342.075 121.272 342.749Z" fill="#50AA50"/>
<path d="M128.984 346.594V347.758C128.984 347.932 129.059 348.1 129.191 348.223C129.324 348.346 129.503 348.416 129.69 348.416C129.878 348.416 130.057 348.346 130.19 348.223C130.322 348.1 130.397 347.932 130.397 347.758V346.594C130.397 346.42 130.322 346.253 130.19 346.129C130.057 346.006 129.878 345.937 129.69 345.937C129.503 345.937 129.324 346.006 129.191 346.129C129.059 346.253 128.984 346.42 128.984 346.594Z" fill="#50AA50"/>
<path d="M115.893 344.537L116.834 345.11C117.595 345.583 118.301 344.453 117.54 343.98L116.617 343.407C115.857 342.935 115.15 344.065 115.893 344.537Z" fill="#50AA50"/>
<path d="M118.249 333.641C118.513 333.918 118.672 334.268 118.702 334.637C118.702 335.48 120.168 335.48 120.114 334.637C120.068 333.922 119.762 333.244 119.245 332.714C118.666 332.073 117.67 333.017 118.249 333.641Z" fill="#50AA50"/>
<path d="M121.742 329.678V331.365C121.742 331.539 121.817 331.706 121.949 331.83C122.081 331.953 122.261 332.022 122.448 332.022C122.636 332.022 122.815 331.953 122.948 331.83C123.08 331.706 123.154 331.539 123.154 331.365V329.678C123.154 329.504 123.08 329.337 122.948 329.213C122.815 329.09 122.636 329.021 122.448 329.021C122.261 329.021 122.081 329.09 121.949 329.213C121.817 329.337 121.742 329.504 121.742 329.678Z" fill="#50AA50"/>
<path d="M130.523 337.386L131.121 337.993C131.754 338.601 132.75 337.673 132.117 337.066L131.519 336.459C130.885 335.852 129.89 336.779 130.523 337.386Z" fill="#50AA50"/>
<path d="M131.917 329.577L133.728 329.678C134.633 329.678 134.633 328.414 133.728 328.363L131.917 328.262C131.012 328.262 131.012 329.527 131.917 329.577Z" fill="#50AA50"/>
<path d="M133.909 319.07L135.158 320.234C135.293 320.342 135.467 320.399 135.645 320.393C135.823 320.386 135.992 320.318 136.118 320.2C136.244 320.083 136.318 319.926 136.325 319.76C136.331 319.594 136.27 319.432 136.154 319.306L134.905 318.143C134.77 318.034 134.596 317.978 134.418 317.984C134.24 317.99 134.071 318.059 133.945 318.176C133.819 318.293 133.745 318.451 133.739 318.617C133.732 318.782 133.793 318.944 133.909 319.07Z" fill="#50AA50"/>
<path d="M139.34 315.698V317.738C139.34 317.913 139.414 318.08 139.547 318.204C139.679 318.327 139.859 318.396 140.046 318.396C140.233 318.396 140.413 318.327 140.545 318.204C140.678 318.08 140.752 317.913 140.752 317.738V315.698C140.752 315.523 140.678 315.356 140.545 315.233C140.413 315.109 140.233 315.04 140.046 315.04C139.859 315.04 139.679 315.109 139.547 315.233C139.414 315.356 139.34 315.523 139.34 315.698Z" fill="#50AA50"/>
<path d="M141.893 327.958L142.509 327.081C143.016 326.39 141.784 325.732 141.296 326.423L140.68 327.3C140.173 328.009 141.386 328.666 141.893 327.958Z" fill="#50AA50"/>
<path d="M137.113 340.843L138.688 340.287C139.521 339.983 139.159 338.701 138.308 339.022L136.733 339.578C135.9 339.882 136.262 341.147 137.113 340.843Z" fill="#50AA50"/>
<path d="M143.342 338.988L144.917 338.685C145.805 338.516 145.424 337.251 144.537 337.42L142.98 337.723C142.093 337.892 142.455 339.157 143.342 338.988Z" fill="#50AA50"/>
<path d="M139.34 345.127V345.431C139.34 345.605 139.414 345.773 139.547 345.896C139.679 346.019 139.859 346.089 140.046 346.089C140.233 346.089 140.413 346.019 140.545 345.896C140.678 345.773 140.752 345.605 140.752 345.431V345.127C140.752 344.953 140.678 344.786 140.545 344.662C140.413 344.539 140.233 344.47 140.046 344.47C139.859 344.47 139.679 344.539 139.547 344.662C139.414 344.786 139.34 344.953 139.34 345.127Z" fill="#50AA50"/>
<path d="M127.175 365.213L128.116 364.639C128.859 364.167 128.116 363.037 127.392 363.51L126.469 364.083C125.708 364.555 126.469 365.685 127.175 365.213Z" fill="#50AA50"/>
<path d="M126.415 370.053C126.947 369.573 127.611 369.24 128.335 369.092C129.222 368.906 128.842 367.642 127.972 367.827C127.014 368.044 126.134 368.492 125.42 369.126C124.768 369.716 125.764 370.644 126.415 370.053Z" fill="#50AA50"/>
<path d="M120.621 370.847L120.947 371.42C121.345 372.179 122.558 371.42 122.16 370.762L121.834 370.172C121.418 369.43 120.205 370.088 120.621 370.847Z" fill="#50AA50"/>
<path d="M115.26 372.246C115.999 372.628 116.863 372.742 117.686 372.566C118.573 372.398 118.193 371.133 117.324 371.302C116.863 371.408 116.375 371.341 115.966 371.116C115.17 370.728 114.445 371.858 115.26 372.246Z" fill="#50AA50"/>
<path d="M126.903 359.817L129.709 359.479C130.596 359.378 130.614 358.063 129.709 358.164L126.903 358.501C126.015 358.602 125.997 359.918 126.903 359.817Z" fill="#50AA50"/>
<path d="M253.026 302.324L298.489 264.04C300.734 262.151 297.421 259.065 295.176 260.937L249.713 299.237C247.468 301.126 250.781 304.212 253.026 302.324Z" fill="#D7E7FF"/>
<path d="M304.411 321.853L349.874 283.569C352.119 281.68 348.787 278.594 346.542 280.466L301.097 318.75C298.852 320.639 302.184 323.725 304.411 321.836V321.853Z" fill="#D7E7FF"/>
<path d="M248.571 336.324L343.879 249.755C346.052 247.799 342.72 244.696 340.566 246.669L245.258 333.237C243.085 335.194 246.416 338.297 248.571 336.324Z" fill="#D7E7FF"/>
<path d="M394.233 67.1396H392.188V189.31H394.233V67.1396Z" fill="#415B91"/>
<path d="M401.548 189.311C401.548 190.845 401.059 192.345 400.144 193.621C399.229 194.897 397.928 195.891 396.406 196.478C394.885 197.065 393.21 197.219 391.594 196.92C389.979 196.62 388.495 195.881 387.33 194.796C386.165 193.711 385.372 192.329 385.051 190.824C384.729 189.319 384.894 187.759 385.525 186.342C386.155 184.924 387.222 183.713 388.592 182.86C389.962 182.008 391.572 181.553 393.219 181.553C394.313 181.553 395.396 181.753 396.406 182.143C397.417 182.533 398.335 183.105 399.108 183.825C399.882 184.545 400.495 185.401 400.914 186.342C401.332 187.283 401.548 188.292 401.548 189.311Z" fill="#415B91"/>
<path d="M393.328 215.333C391.527 215.272 389.81 214.607 388.493 213.461C387.813 212.786 387.286 211.99 386.944 211.121C386.601 210.251 386.451 209.326 386.502 208.402C386.502 208.267 386.53 208.133 386.586 208.008C386.641 207.883 386.723 207.77 386.825 207.674C386.928 207.579 387.05 207.503 387.184 207.451C387.318 207.4 387.461 207.373 387.606 207.373C387.751 207.373 387.895 207.4 388.029 207.451C388.163 207.503 388.285 207.579 388.387 207.674C388.49 207.77 388.571 207.883 388.627 208.008C388.682 208.133 388.711 208.267 388.711 208.402C388.664 209.059 388.759 209.718 388.989 210.34C389.219 210.963 389.58 211.536 390.05 212.028C390.952 212.791 392.111 213.238 393.328 213.293C394.821 213.293 396.253 212.74 397.309 211.756C398.365 210.773 398.958 209.439 398.958 208.048C398.958 206.656 398.365 205.322 397.309 204.339C396.253 203.355 394.821 202.802 393.328 202.802C393.183 202.803 393.041 202.776 392.908 202.724C392.775 202.672 392.654 202.596 392.553 202.5C392.452 202.404 392.372 202.291 392.319 202.166C392.265 202.041 392.239 201.908 392.241 201.774V196.073C392.221 195.928 392.235 195.781 392.28 195.641C392.326 195.501 392.404 195.372 392.507 195.262C392.611 195.153 392.738 195.065 392.881 195.004C393.025 194.944 393.18 194.913 393.337 194.913C393.494 194.913 393.649 194.944 393.792 195.004C393.935 195.065 394.062 195.153 394.166 195.262C394.27 195.372 394.347 195.501 394.393 195.641C394.439 195.781 394.452 195.928 394.432 196.073V200.812C396.404 201.064 398.2 202.004 399.455 203.444C400.71 204.883 401.33 206.713 401.19 208.563C401.049 210.413 400.159 212.143 398.699 213.404C397.238 214.664 395.318 215.36 393.328 215.35V215.333Z" fill="#415B91"/>
<path d="M349.618 220.106C349.405 220.074 349.208 219.98 349.056 219.838C348.903 219.695 348.802 219.512 348.767 219.314C348.731 219.064 348.802 218.81 348.964 218.608C349.127 218.406 349.368 218.272 349.636 218.234L394.701 212.045C394.833 212.027 394.967 212.034 395.097 212.064C395.226 212.095 395.347 212.149 395.454 212.224C395.561 212.298 395.651 212.391 395.719 212.498C395.787 212.605 395.832 212.723 395.851 212.846C395.87 212.969 395.863 213.094 395.83 213.214C395.797 213.335 395.739 213.448 395.659 213.547C395.579 213.647 395.479 213.731 395.364 213.794C395.25 213.857 395.123 213.899 394.991 213.917L349.872 220.106C349.788 220.118 349.702 220.118 349.618 220.106Z" fill="#415B91"/>
<path d="M436.111 234.07H435.821L394.378 213.832C394.14 213.714 393.961 213.513 393.88 213.274C393.799 213.034 393.821 212.774 393.943 212.55C394.004 212.439 394.089 212.34 394.191 212.259C394.294 212.179 394.412 212.118 394.54 212.08C394.668 212.042 394.803 212.029 394.937 212.04C395.071 212.051 395.2 212.087 395.319 212.145L436.763 232.384C436.882 232.441 436.989 232.519 437.075 232.615C437.162 232.71 437.227 232.821 437.268 232.94C437.308 233.059 437.323 233.185 437.311 233.309C437.299 233.434 437.26 233.555 437.198 233.665C437.082 233.827 436.916 233.953 436.722 234.025C436.528 234.097 436.315 234.113 436.111 234.07Z" fill="#415B91"/>
<path d="M447.398 235.967L337.034 218.099C331.251 217.162 325.748 220.77 324.743 226.157L313.699 285.343C312.694 290.73 316.567 295.856 322.35 296.792L432.715 314.66C438.498 315.596 444.001 311.988 445.006 306.602L456.05 247.415C457.055 242.029 453.181 236.903 447.398 235.967Z" fill="white"/>
<path d="M434.247 316.052C433.531 316.054 432.816 315.998 432.111 315.883L322.517 298.141C320.908 297.882 319.369 297.33 317.99 296.517C316.61 295.703 315.415 294.644 314.475 293.401C313.535 292.157 312.868 290.753 312.511 289.268C312.154 287.784 312.115 286.248 312.396 284.75L323.259 226.296C323.825 223.271 325.657 220.578 328.353 218.811C331.048 217.043 334.387 216.344 337.635 216.868L447.211 234.61C448.818 234.869 450.355 235.421 451.733 236.233C453.112 237.045 454.305 238.103 455.245 239.344C456.185 240.586 456.853 241.989 457.211 243.471C457.569 244.953 457.61 246.487 457.332 247.984L446.468 306.455C445.966 309.138 444.466 311.569 442.232 313.324C439.997 315.079 437.17 316.045 434.247 316.052ZM335.553 219.246C333.291 219.25 331.101 219.996 329.37 221.353C327.639 222.71 326.475 224.591 326.084 226.667L315.221 285.138C314.997 286.297 315.023 287.486 315.296 288.635C315.569 289.785 316.084 290.873 316.811 291.836C317.539 292.799 318.464 293.618 319.534 294.246C320.603 294.874 321.796 295.298 323.042 295.493L432.618 313.235C435.128 313.637 437.707 313.096 439.791 311.73C441.874 310.365 443.292 308.286 443.734 305.949L454.598 247.478C454.816 246.32 454.787 245.132 454.512 243.984C454.237 242.836 453.721 241.75 452.995 240.788C452.268 239.826 451.345 239.007 450.278 238.378C449.21 237.749 448.021 237.323 446.776 237.123L337.201 219.448C336.658 219.34 336.107 219.272 335.553 219.246Z" fill="#415B91"/>
<path d="M444.298 241.747L337.857 224.515C334.163 223.917 330.647 226.221 330.005 229.663L319.92 283.714C319.277 287.156 321.752 290.43 325.446 291.028L431.887 308.261C435.581 308.859 439.097 306.554 439.739 303.113L449.824 249.061C450.467 245.62 447.992 242.345 444.298 241.747Z" fill="#B6D0FB"/>
<path d="M432.887 309.609C432.395 309.612 431.904 309.572 431.42 309.491L325.484 292.356C323.291 291.987 321.34 290.83 320.053 289.135C319.408 288.291 318.951 287.336 318.709 286.325C318.466 285.314 318.443 284.268 318.64 283.249L328.635 229.652C328.825 228.634 329.229 227.66 329.824 226.788C330.418 225.915 331.192 225.161 332.1 224.567C333.008 223.973 334.033 223.552 335.116 223.328C336.199 223.104 337.319 223.081 338.412 223.26L444.348 240.395C446.554 240.757 448.517 241.919 449.806 243.626C451.095 245.332 451.607 247.445 451.228 249.502L441.215 303.082C440.879 304.905 439.863 306.559 438.346 307.753C436.829 308.947 434.909 309.604 432.923 309.609H432.887ZM431.891 306.911C432.622 307.031 433.37 307.015 434.094 306.864C434.818 306.714 435.503 306.432 436.11 306.034C436.714 305.641 437.228 305.141 437.623 304.562C438.018 303.983 438.285 303.337 438.409 302.661L448.403 249.064C448.531 248.385 448.514 247.689 448.352 247.016C448.191 246.344 447.889 245.707 447.464 245.144C447.038 244.58 446.498 244.1 445.873 243.73C445.248 243.361 444.552 243.11 443.823 242.992L337.887 225.857C336.415 225.622 334.904 225.939 333.683 226.738C332.461 227.538 331.629 228.755 331.369 230.124L321.374 283.721C321.247 284.399 321.264 285.094 321.426 285.765C321.587 286.437 321.889 287.072 322.315 287.635C322.741 288.197 323.281 288.676 323.906 289.043C324.53 289.411 325.227 289.66 325.955 289.776L431.891 306.911Z" fill="#405B91"/>
<path d="M381.414 300.08L408.953 276.57L424.198 306.995L381.414 300.08Z" fill="white"/>
<path d="M425.808 308.142L379.367 300.637L409.26 275.104L425.808 308.142ZM383.459 299.524L422.585 305.849L408.644 278.004L383.459 299.524Z" fill="#415B91"/>
<path d="M326.953 291.26L375.784 249.569L402.816 303.538L326.953 291.26Z" fill="white"/>
<path d="M404.426 304.684L324.906 291.766L376.091 248.068L404.426 304.684ZM328.998 290.703L401.203 302.391L375.475 251.02L328.998 290.703Z" fill="#415B91"/>
<path d="M433.848 257.479C433.617 258.718 432.996 259.865 432.065 260.776C431.134 261.686 429.934 262.319 428.617 262.594C427.3 262.87 425.925 262.775 424.665 262.322C423.406 261.869 422.319 261.079 421.542 260.051C420.764 259.023 420.332 257.803 420.299 256.546C420.266 255.289 420.634 254.051 421.356 252.989C422.078 251.926 423.122 251.087 424.356 250.578C425.591 250.068 426.959 249.911 428.289 250.126C429.173 250.269 430.017 250.572 430.775 251.019C431.532 251.466 432.188 252.047 432.704 252.73C433.22 253.413 433.587 254.184 433.783 254.998C433.979 255.813 434.001 256.656 433.848 257.479Z" fill="white"/>
<path d="M427.129 263.618C426.681 263.618 426.232 263.585 425.79 263.517C424.778 263.354 423.811 263.006 422.944 262.493C422.078 261.98 421.329 261.312 420.742 260.528C420.154 259.744 419.739 258.859 419.521 257.925C419.303 256.99 419.286 256.025 419.471 255.084C419.637 254.148 420.003 253.252 420.547 252.449C421.091 251.647 421.803 250.954 422.639 250.412C423.471 249.859 424.412 249.463 425.409 249.248C426.405 249.033 427.437 249.003 428.446 249.159C429.455 249.316 430.421 249.656 431.288 250.161C432.156 250.665 432.908 251.324 433.503 252.099C434.688 253.672 435.157 255.619 434.806 257.513C434.633 258.449 434.262 259.344 433.715 260.146C433.168 260.948 432.456 261.641 431.62 262.184C430.325 263.096 428.752 263.599 427.129 263.618ZM427.129 250.902C426.05 250.902 424.991 251.178 424.068 251.7C423.144 252.221 422.393 252.969 421.894 253.861C421.396 254.753 421.17 255.756 421.24 256.76C421.311 257.763 421.676 258.729 422.295 259.553C422.969 260.438 423.908 261.118 424.995 261.506C426.083 261.895 427.269 261.976 428.405 261.738C429.541 261.5 430.577 260.954 431.381 260.169C432.184 259.384 432.721 258.395 432.923 257.327C433.186 255.894 432.829 254.422 431.93 253.234C431.031 252.045 429.663 251.237 428.125 250.986C427.784 250.933 427.439 250.905 427.093 250.902H427.129Z" fill="#415B91"/>
<path d="M477.644 63.042H375.293V73.5321H477.644V63.042Z" fill="#B6D0FB"/>
<path d="M566.579 279.961H532.613V0.101562H566.579V279.961ZM535.963 276.824H563.23V3.23847H535.963V276.824Z" fill="#415B91"/>
<path d="M566.165 30.8125H533.031V0H566.165V30.8125ZM536.363 27.6419H562.688V3.13691H536.363V27.6419Z" fill="#415B91"/>
<path d="M535.938 0.422079L533.531 2.66406L563.246 30.343L565.653 28.101L535.938 0.422079Z" fill="#415B91"/>
<path d="M563.23 0.422692L533.516 28.1016L535.923 30.3435L565.637 2.66467L563.23 0.422692Z" fill="#415B91"/>
<path d="M566.165 58.5047H533.031V27.6416H566.165V58.5047ZM536.363 55.3341H562.688V30.8122H536.363V55.3341Z" fill="#415B91"/>
<path d="M535.942 28.1037L533.535 30.3457L563.25 58.0246L565.657 55.7826L535.942 28.1037Z" fill="#415B91"/>
<path d="M563.25 28.1161L533.535 55.7949L535.942 58.0369L565.657 30.358L563.25 28.1161Z" fill="#415B91"/>
<path d="M566.165 86.1802H533.031V55.334H566.165V86.1802ZM536.363 83.0096H562.688V58.5046H536.363V83.0096Z" fill="#415B91"/>
<path d="M535.946 55.7981L533.539 58.04L563.254 85.7189L565.661 83.4769L535.946 55.7981Z" fill="#415B91"/>
<path d="M563.258 55.8143L533.543 83.4932L535.95 85.7351L565.665 58.0563L563.258 55.8143Z" fill="#415B91"/>
<path d="M566.165 113.873H533.031V83.0098H566.165V113.873ZM536.363 110.702H562.688V86.1804H536.363V110.702Z" fill="#415B91"/>
<path d="M535.934 83.4797L533.527 85.7217L563.242 113.401L565.649 111.159L535.934 83.4797Z" fill="#415B91"/>
<path d="M563.242 83.4911L533.527 111.17L535.934 113.412L565.649 85.733L563.242 83.4911Z" fill="#415B91"/>
<path d="M566.165 141.548H533.031V110.702H566.165V141.548ZM536.363 138.378H562.688V113.873H536.363V138.378Z" fill="#415B91"/>
<path d="M535.954 111.156L533.547 113.398L563.262 141.077L565.669 138.835L535.954 111.156Z" fill="#415B91"/>
<path d="M563.246 111.19L533.531 138.869L535.938 141.111L565.653 113.432L563.246 111.19Z" fill="#415B91"/>
<path d="M566.165 169.224H533.031V138.378H566.165V169.224ZM536.363 166.054H562.688V141.549H536.363V166.054Z" fill="#415B91"/>
<path d="M535.942 138.838L533.535 141.08L563.25 168.759L565.657 166.517L535.942 138.838Z" fill="#415B91"/>
<path d="M563.25 138.884L533.535 166.562L535.942 168.804L565.657 141.126L563.25 138.884Z" fill="#415B91"/>
<path d="M566.165 196.917H533.031V166.054H566.165V196.917ZM536.363 193.746H562.688V169.224H536.363V193.746Z" fill="#415B91"/>
<path d="M535.93 166.52L533.523 168.762L563.238 196.441L565.645 194.199L535.93 166.52Z" fill="#415B91"/>
<path d="M563.254 166.549L533.539 194.228L535.946 196.47L565.661 168.791L563.254 166.549Z" fill="#415B91"/>
<path d="M566.165 224.592H533.031V193.746H566.165V224.592ZM536.363 221.422H562.688V196.917H536.363V221.422Z" fill="#415B91"/>
<path d="M535.95 194.213L533.543 196.455L563.258 224.134L565.665 221.892L535.95 194.213Z" fill="#415B91"/>
<path d="M563.242 194.23L533.527 221.909L535.934 224.151L565.649 196.472L563.242 194.23Z" fill="#415B91"/>
<path d="M566.165 252.285H533.031V221.422H566.165V252.285ZM536.363 249.114H562.688V224.593H536.363V249.114Z" fill="#415B91"/>
<path d="M535.938 221.878L533.531 224.12L563.246 251.799L565.653 249.557L535.938 221.878Z" fill="#415B91"/>
<path d="M563.246 221.924L533.531 249.603L535.938 251.845L565.653 224.166L563.246 221.924Z" fill="#415B91"/>
<path d="M566.165 279.96H533.031V249.114H566.165V279.96ZM536.363 276.79H562.688V252.285H536.363V276.79Z" fill="#415B91"/>
<path d="M535.938 249.571L533.531 251.813L563.246 279.492L565.653 277.25L535.938 249.571Z" fill="#415B91"/>
<path d="M563.243 249.564L533.523 277.238L535.93 279.481L565.65 251.807L563.243 249.564Z" fill="#415B91"/>
<path d="M625.297 58.0838H592.164V27.2207H625.297V58.0838ZM595.568 54.9132H621.893V30.3576H595.568V54.9132Z" fill="#415B91"/>
<path d="M622.37 27.704L592.66 55.3877L595.067 57.6293L624.777 29.9455L622.37 27.704Z" fill="#415B91"/>
<path d="M595.087 27.6926L592.68 29.9346L622.395 57.6135L624.801 55.3715L595.087 27.6926Z" fill="#415B91"/>
<path d="M595.568 58.0838H562.453V27.2207H595.568V58.0838ZM565.857 54.9132H592.164V30.3576H565.857V54.9132Z" fill="#415B91"/>
<path d="M592.655 27.6972L562.945 55.3809L565.353 57.6225L595.062 29.9387L592.655 27.6972Z" fill="#415B91"/>
<path d="M565.368 27.6994L562.961 29.9414L592.676 57.6203L595.083 55.3783L565.368 27.6994Z" fill="#415B91"/>
<path d="M565.853 58.0838H532.738V27.2207H565.853V58.0838ZM536.142 54.9132H562.45V30.3576H536.142V54.9132Z" fill="#415B91"/>
<path d="M536.145 58.0838H503.012V27.2207H536.145V58.0838ZM506.416 54.9132H532.741V30.3576H506.416V54.9132Z" fill="#415B91"/>
<path d="M533.215 27.6893L503.5 55.3682L505.907 57.6101L535.622 29.9313L533.215 27.6893Z" fill="#415B91"/>
<path d="M505.919 27.6897L503.512 29.9316L533.227 57.6105L535.633 55.3685L505.919 27.6897Z" fill="#415B91"/>
<path d="M506.416 58.0838H473.301V27.2207H506.416V58.0838ZM476.705 54.9132H503.012V30.3576H476.705V54.9132Z" fill="#415B91"/>
<path d="M503.512 27.6961L473.797 55.375L476.204 57.617L505.919 29.9381L503.512 27.6961Z" fill="#415B91"/>
<path d="M476.204 27.7072L473.797 29.9492L503.512 57.6281L505.919 55.3861L476.204 27.7072Z" fill="#415B91"/>
<path d="M476.704 58.0838H443.57V27.2207H476.704V58.0838ZM446.974 54.9132H473.3V30.3576H446.974V54.9132Z" fill="#415B91"/>
<path d="M445.273 58.0833H415.561C415.227 58.0715 414.903 57.9739 414.625 57.8012C414.347 57.6286 414.126 57.3876 413.986 57.1051C413.866 56.8213 413.836 56.5113 413.9 56.2121C413.964 55.913 414.12 55.6374 414.348 55.4186L444.023 27.6924L446.431 29.9354L419.617 54.9126H444.566L473.789 27.6924L476.197 29.9354L446.486 57.611C446.159 57.9045 445.726 58.073 445.273 58.0833Z" fill="#415B91"/>
<path d="M446.489 27.6965L444.082 29.9385L473.797 57.6174L476.204 55.3754L446.489 27.6965Z" fill="#415B91"/>
<path d="M566.652 310.789H532.613V279.96H566.652V310.789ZM536.108 307.602H563.157V283.097H536.108V307.602Z" fill="#415B91"/>
<path d="M563.665 310.317L533.121 282.641L535.602 280.398L566.146 308.074L563.665 310.317Z" fill="#415B91"/>
<path d="M535.602 310.317L533.121 308.074L563.665 280.398L566.146 282.641L535.602 310.317Z" fill="#415B91"/>
<path d="M566.652 421.509H532.613V390.663H566.652V421.509ZM536.108 418.339H563.157V393.834H536.108V418.339Z" fill="#415B91"/>
<path d="M563.665 421.054L533.121 393.361L535.602 391.118L566.146 418.811L563.665 421.054Z" fill="#415B91"/>
<path d="M535.602 421.054L533.121 418.811L563.665 391.118L566.146 393.361L535.602 421.054Z" fill="#415B91"/>
<path d="M566.652 335.835H532.613V304.988H566.652V335.835ZM536.108 332.664H563.157V308.159H536.108V332.664Z" fill="#415B91"/>
<path d="M563.665 335.379L533.121 307.686L535.602 305.46L566.146 333.136L563.665 335.379Z" fill="#415B91"/>
<path d="M535.602 335.379L533.121 333.136L563.665 305.46L566.146 307.686L535.602 335.379Z" fill="#415B91"/>
<path d="M566.652 363.527H532.613V332.664H566.652V363.527ZM536.108 360.357H563.157V335.835H536.108V360.357Z" fill="#415B91"/>
<path d="M563.665 363.054L533.121 335.379L535.602 333.136L566.146 360.811L563.665 363.054Z" fill="#415B91"/>
<path d="M535.602 363.054L533.121 360.811L563.665 333.136L566.146 335.379L535.602 363.054Z" fill="#415B91"/>
<path d="M566.652 391.27H532.613V360.356H566.652V391.27ZM536.108 388.099H563.157V363.527H536.108V388.099Z" fill="#415B91"/>
<path d="M563.665 390.747L533.121 363.055L535.602 360.812L566.146 388.504L563.665 390.747Z" fill="#415B91"/>
<path d="M535.602 390.747L533.121 388.504L563.665 360.812L566.146 363.055L535.602 390.747Z" fill="#415B91"/>
<path d="M186.669 167.858C187.377 167.805 188.037 167.506 188.518 167.02C189 166.534 189.267 165.897 189.267 165.236C189.267 164.574 189 163.937 188.518 163.451C188.037 162.965 187.377 162.666 186.669 162.613C185.961 162.666 185.301 162.965 184.819 163.451C184.338 163.937 184.07 164.574 184.07 165.236C184.07 165.897 184.338 166.534 184.819 167.02C185.301 167.506 185.961 167.805 186.669 167.858Z" fill="#405B91"/>
<path d="M492.11 112.996C492.818 112.943 493.478 112.644 493.96 112.158C494.441 111.672 494.709 111.035 494.709 110.374C494.709 109.712 494.441 109.075 493.96 108.589C493.478 108.103 492.818 107.804 492.11 107.751C491.403 107.804 490.742 108.103 490.261 108.589C489.779 109.075 489.512 109.712 489.512 110.374C489.512 111.035 489.779 111.672 490.261 112.158C490.742 112.644 491.403 112.943 492.11 112.996Z" fill="#405B91"/>
<path d="M618.543 300.789H619.792C620.181 300.818 620.572 300.771 620.94 300.653C621.309 300.534 621.647 300.346 621.934 300.099C622.22 299.853 622.449 299.554 622.605 299.221C622.762 298.889 622.842 298.529 622.842 298.166C622.842 297.803 622.762 297.444 622.605 297.111C622.449 296.778 622.22 296.479 621.934 296.233C621.647 295.986 621.309 295.798 620.94 295.679C620.572 295.561 620.181 295.515 619.792 295.544H618.543C618.154 295.515 617.763 295.561 617.394 295.679C617.026 295.798 616.688 295.986 616.401 296.233C616.114 296.479 615.886 296.778 615.729 297.111C615.573 297.444 615.492 297.803 615.492 298.166C615.492 298.529 615.573 298.889 615.729 299.221C615.886 299.554 616.114 299.853 616.401 300.099C616.688 300.346 617.026 300.534 617.394 300.653C617.763 300.771 618.154 300.818 618.543 300.789Z" fill="#405B91"/>
<path d="M75.2659 339.275C76.015 339.275 76.7334 338.997 77.2631 338.504C77.7928 338.011 78.0904 337.341 78.0904 336.644C78.0904 335.946 77.7928 335.277 77.2631 334.783C76.7334 334.29 76.015 334.013 75.2659 334.013C74.5168 334.013 73.7984 334.29 73.2687 334.783C72.739 335.277 72.4414 335.946 72.4414 336.644C72.4414 337.341 72.739 338.011 73.2687 338.504C73.7984 338.997 74.5168 339.275 75.2659 339.275Z" fill="#405B91"/>
<path d="M344.442 87.412C345.15 87.3591 345.81 87.0599 346.292 86.5739C346.773 86.0879 347.041 85.4508 347.041 84.7895C347.041 84.1282 346.773 83.4911 346.292 83.0051C345.81 82.5191 345.15 82.2199 344.442 82.167C343.735 82.2199 343.074 82.5191 342.593 83.0051C342.111 83.4911 341.844 84.1282 341.844 84.7895C341.844 85.4508 342.111 86.0879 342.593 86.5739C343.074 87.0599 343.735 87.3591 344.442 87.412Z" fill="#405B91"/>
</svg>
