<svg width="50" height="50" viewBox="0 0 50 50" fill="none" xmlns="http://www.w3.org/2000/svg">
<mask id="path-1-outside-1_4415_923" maskUnits="userSpaceOnUse" x="5" y="5" width="40" height="40" fill="black">
<rect fill="white" x="5" y="5" width="40" height="40"/>
<path fill-rule="evenodd" clip-rule="evenodd" d="M38.9458 12.0895L39.0312 11.3354C39.1498 10.2885 39.2636 9.28417 39.376 8.27911C39.4277 7.81522 39.6541 7.58759 40.0238 7.6329C40.372 7.67606 40.5456 7.94252 40.4982 8.38807C40.3171 10.0764 40.1327 11.7637 39.9484 13.451C39.9009 13.8846 39.6562 14.081 39.2002 14.0324C38.3086 13.9359 37.417 13.8354 36.5258 13.735C36.0927 13.6862 35.6596 13.6374 35.2267 13.589C35.0746 13.5719 34.9222 13.5558 34.7699 13.5397L34.7697 13.5397L34.7697 13.5397C34.5874 13.5205 34.4051 13.5012 34.2231 13.4801C33.7919 13.4305 33.5698 13.1964 33.614 12.8403C33.6561 12.493 33.9353 12.3139 34.3665 12.3624L35.4639 12.4846C36.1955 12.5661 36.9271 12.6476 37.6587 12.7281C37.7076 12.7337 37.7579 12.7325 37.8221 12.731C37.857 12.7302 37.896 12.7292 37.9411 12.7292C37.9108 12.6929 37.8841 12.6595 37.8593 12.6286L37.8593 12.6286L37.8592 12.6286C37.8082 12.565 37.7655 12.5117 37.7169 12.4638C33.8145 8.60384 29.1069 6.80869 23.6501 7.19706C15.6114 7.76775 9.04531 13.657 7.47897 21.5874C6.82894 24.8778 7.11568 28.1034 8.27777 31.2503C8.29322 31.2924 8.30963 31.3342 8.32604 31.3761C8.35886 31.4597 8.39168 31.5434 8.41683 31.629C8.52032 31.9861 8.38557 32.2827 8.07834 32.3885C7.76356 32.4964 7.46711 32.368 7.35284 31.999C7.26034 31.7004 7.16257 31.4024 7.06476 31.1044L7.06474 31.1043C6.78414 30.2492 6.50318 29.3931 6.34491 28.5155C5.32189 22.8442 6.57129 17.6842 10.1373 13.1629C13.2312 9.23926 17.3114 6.87342 22.2659 6.20132C28.6714 5.33287 34.1638 7.28337 38.7195 11.8748C38.7509 11.9063 38.7834 11.9367 38.8267 11.9771L38.8268 11.9773L38.8272 11.9776C38.8594 12.0078 38.8976 12.0436 38.9458 12.0895ZM35.9067 26.2476V26.2475V26.2474C35.9075 25.7689 35.9083 25.2906 35.9083 24.8123C35.9126 24.8123 35.9169 24.8123 35.919 24.8133C35.919 24.3119 35.9188 23.8104 35.9185 23.309C35.9179 21.9721 35.9173 20.6352 35.9212 19.2983C35.9222 18.9923 35.8022 18.7814 35.5322 18.6516C35.3634 18.57 35.1944 18.4888 35.0253 18.4077C34.8563 18.3266 34.6873 18.2456 34.5186 18.1639C33.769 17.8001 33.0192 17.4365 32.2694 17.0729L32.2662 17.0713L32.2631 17.0698L32.2629 17.0698L32.2628 17.0697C30.0019 15.9733 27.7407 14.8769 25.4838 13.7724C25.1505 13.6091 24.8634 13.5929 24.5387 13.7778C24.3115 13.9073 24.0732 14.0182 23.8349 14.1291L23.8346 14.1292C23.7326 14.1767 23.6305 14.2242 23.5294 14.2731L20.9206 15.5362C18.7644 16.5801 16.6083 17.624 14.4528 18.6689C14.1817 18.7998 14.082 19.0312 14.082 19.3296L14.0832 19.9639C14.0893 23.3481 14.0954 26.7322 14.0863 30.1164C14.0852 30.5987 14.2513 30.8755 14.6917 31.0864C17.8569 32.6047 21.0167 34.1305 24.1605 35.692C24.7423 35.9807 25.1934 36.0067 25.7934 35.7072C28.9575 34.1283 32.1463 32.5993 35.3351 31.0702C35.7594 30.8658 35.9201 30.5901 35.9158 30.124C35.9025 28.8321 35.9046 27.5397 35.9067 26.2476ZM34.6763 20.19C34.7094 20.18 34.746 20.1689 34.7875 20.1547V20.1556C34.7875 20.3087 34.7875 20.4264 34.7886 20.543L34.7883 22.5053C34.7878 24.905 34.7872 27.3047 34.794 29.7044C34.795 29.9672 34.7286 30.1099 34.4822 30.2289C32.3208 31.2705 30.163 32.3194 28.0053 33.3683L28.0026 33.3696L28.0019 33.37C27.2822 33.7198 26.5625 34.0697 25.8427 34.4192C25.7975 34.4406 25.7515 34.4599 25.6945 34.4836L25.6944 34.4837C25.6766 34.4911 25.6577 34.499 25.6375 34.5075C25.6211 34.5144 25.6039 34.5217 25.5856 34.5295C25.5825 34.4787 25.5788 34.4316 25.5752 34.387L25.5752 34.387C25.5688 34.3065 25.5631 34.2338 25.5631 34.1608C25.5626 32.9341 25.5625 31.7072 25.5625 30.4802C25.5623 28.6398 25.5622 26.7994 25.5609 24.9593L25.5609 24.9392C25.5606 24.7443 25.5604 24.5899 25.7966 24.4759C27.9662 23.4319 30.1316 22.3794 32.2969 21.327C33.0403 20.9657 33.7836 20.6044 34.5272 20.2434C34.5709 20.222 34.6181 20.2077 34.6763 20.19ZM21.085 22.9684L24.4241 24.5895C24.4241 27.9007 24.4241 31.1956 24.423 34.536C24.3762 34.5162 24.3314 34.4981 24.2882 34.4805C24.2041 34.4463 24.1259 34.4146 24.0501 34.3781C23.0455 33.8903 22.0408 33.4021 21.0362 32.9138L21.034 32.9128L21.0302 32.9109C19.1951 32.0191 17.3599 31.1272 15.5243 30.2375C15.3325 30.1445 15.206 30.058 15.2071 29.7963C15.2159 27.4452 15.2157 25.0948 15.2155 22.7444C15.2155 21.9609 15.2154 21.1773 15.2157 20.3937C15.2157 20.3536 15.2203 20.3131 15.227 20.2551C15.2309 20.221 15.2355 20.1807 15.2403 20.131C17.1693 21.0672 19.0837 21.9967 20.9928 22.9236L21.0609 22.9566L21.085 22.9684ZM28.0939 16.3067L28.095 16.3072L28.0959 16.3076C28.353 16.433 28.6128 16.5597 28.8761 16.6878C27.5635 17.3269 26.3377 17.9228 25.112 18.5175C24.6578 18.7381 24.2036 18.9581 23.7494 19.1781L23.7405 19.1825L23.7387 19.1833L23.7387 19.1833L23.7387 19.1833C22.5463 19.761 21.3544 20.3383 20.166 20.9236C19.9399 21.035 19.762 21.0372 19.5359 20.9247C18.7045 20.5102 17.8687 20.1052 17.0078 19.688L17.0075 19.6879C16.6692 19.5239 16.327 19.3581 15.9796 19.1891L16.1098 19.125C16.3489 19.0074 16.5537 18.9066 16.7586 18.8073L17.8841 18.2609C20.1573 17.1572 22.4297 16.0538 24.7069 14.9576C24.8452 14.8906 25.0573 14.8473 25.1827 14.9057C26.1443 15.3558 27.0991 15.8215 28.0939 16.3067ZM22.0009 22.1142C21.7186 21.9763 21.4337 21.8372 21.1453 21.6968C23.3354 20.6327 25.4548 19.6043 27.5743 18.5759C27.7747 18.4786 27.9749 18.3807 28.1752 18.2827L28.1757 18.2824C28.7449 18.004 29.3144 17.7255 29.8897 17.4599C30.029 17.3961 30.2401 17.368 30.3698 17.4286C31.2817 17.8563 32.1875 18.2984 33.113 18.7501L33.1136 18.7504L33.1142 18.7507C33.4051 18.8927 33.6979 19.0356 33.9936 19.1793C33.9515 19.2049 33.9143 19.2289 33.8798 19.2511C33.8168 19.2918 33.7628 19.3266 33.7053 19.3545C30.9034 20.7149 28.1014 22.0753 25.2952 23.4281C25.1645 23.4908 24.9673 23.5427 24.8516 23.4886C23.9068 23.0449 22.969 22.587 22.001 22.1143L22.0009 22.1142ZM15.2787 39.9545C14.1308 39.2176 13.0844 38.3531 12.0618 37.2736C12.1791 37.283 12.2756 37.2899 12.3603 37.296L12.3604 37.296L12.3607 37.296C12.4707 37.304 12.5607 37.3104 12.6503 37.319C13.0602 37.3629 13.4699 37.4074 13.8796 37.452L13.8797 37.452L13.8798 37.452C14.489 37.5183 15.098 37.5846 15.7075 37.6486C16.0865 37.6885 16.3446 37.5081 16.3975 37.1871C16.4504 36.864 16.2517 36.5896 15.8813 36.5474C14.1654 36.3529 12.4495 36.1671 10.7324 35.9931C10.3178 35.9509 10.0942 36.1563 10.0499 36.5615C9.86205 38.2645 9.67739 39.9686 9.49705 41.6727C9.45817 42.0433 9.65579 42.3102 9.97543 42.3567C10.3091 42.4042 10.5672 42.1827 10.6158 41.7883C10.6555 41.4659 10.6904 41.1429 10.7254 40.8198L10.7254 40.8193C10.7427 40.6596 10.7599 40.5 10.7778 40.3403L11.0499 37.9349C11.0905 37.9723 11.1241 38.0028 11.1533 38.0292L11.1533 38.0292L11.1534 38.0293C11.2033 38.0745 11.2398 38.1076 11.2745 38.1424C15.5044 42.4053 20.6112 44.3763 26.6046 43.9398C30.5094 43.6556 34.0515 42.3016 37.0114 39.746C43.0825 34.5062 45.1635 27.8962 43.3849 20.0803C43.2477 19.4736 43.0287 18.8852 42.81 18.2977L42.81 18.2977L42.81 18.2976C42.7412 18.1128 42.6725 17.9281 42.6063 17.7429C42.4897 17.4198 42.2273 17.2783 41.8925 17.3971C41.5556 17.5182 41.4681 17.7916 41.5567 18.1211C41.5871 18.2334 41.6304 18.3423 41.6736 18.4511C41.6903 18.4931 41.707 18.535 41.723 18.5772C43.1635 22.4111 43.2974 26.2969 42.0998 30.2087C39.953 37.2185 33.7502 42.2076 26.4469 42.7792C22.4189 43.0947 18.6858 42.1395 15.2787 39.9545ZM21.0471 27.3314C21.1065 27.3511 21.1743 27.3736 21.2544 27.4019C21.2966 27.3556 21.346 27.3099 21.3965 27.2631C21.5133 27.1549 21.6363 27.0409 21.6907 26.9008C21.8006 26.6153 21.6224 26.3899 21.3536 26.2601C21.1636 26.1683 20.9737 26.0765 20.7837 25.9847C20.0164 25.6139 19.2497 25.2432 18.4801 24.8768C18.093 24.6922 17.7836 24.7802 17.6332 25.0968C17.485 25.4091 17.6172 25.6935 18.0162 25.8888C18.9356 26.3384 19.8561 26.7859 20.7777 27.2302C20.8542 27.2673 20.9357 27.2944 21.0471 27.3314Z"/>
</mask>
<path fill-rule="evenodd" clip-rule="evenodd" d="M38.9458 12.0895L39.0312 11.3354C39.1498 10.2885 39.2636 9.28417 39.376 8.27911C39.4277 7.81522 39.6541 7.58759 40.0238 7.6329C40.372 7.67606 40.5456 7.94252 40.4982 8.38807C40.3171 10.0764 40.1327 11.7637 39.9484 13.451C39.9009 13.8846 39.6562 14.081 39.2002 14.0324C38.3086 13.9359 37.417 13.8354 36.5258 13.735C36.0927 13.6862 35.6596 13.6374 35.2267 13.589C35.0746 13.5719 34.9222 13.5558 34.7699 13.5397L34.7697 13.5397L34.7697 13.5397C34.5874 13.5205 34.4051 13.5012 34.2231 13.4801C33.7919 13.4305 33.5698 13.1964 33.614 12.8403C33.6561 12.493 33.9353 12.3139 34.3665 12.3624L35.4639 12.4846C36.1955 12.5661 36.9271 12.6476 37.6587 12.7281C37.7076 12.7337 37.7579 12.7325 37.8221 12.731C37.857 12.7302 37.896 12.7292 37.9411 12.7292C37.9108 12.6929 37.8841 12.6595 37.8593 12.6286L37.8593 12.6286L37.8592 12.6286C37.8082 12.565 37.7655 12.5117 37.7169 12.4638C33.8145 8.60384 29.1069 6.80869 23.6501 7.19706C15.6114 7.76775 9.04531 13.657 7.47897 21.5874C6.82894 24.8778 7.11568 28.1034 8.27777 31.2503C8.29322 31.2924 8.30963 31.3342 8.32604 31.3761C8.35886 31.4597 8.39168 31.5434 8.41683 31.629C8.52032 31.9861 8.38557 32.2827 8.07834 32.3885C7.76356 32.4964 7.46711 32.368 7.35284 31.999C7.26034 31.7004 7.16257 31.4024 7.06476 31.1044L7.06474 31.1043C6.78414 30.2492 6.50318 29.3931 6.34491 28.5155C5.32189 22.8442 6.57129 17.6842 10.1373 13.1629C13.2312 9.23926 17.3114 6.87342 22.2659 6.20132C28.6714 5.33287 34.1638 7.28337 38.7195 11.8748C38.7509 11.9063 38.7834 11.9367 38.8267 11.9771L38.8268 11.9773L38.8272 11.9776C38.8594 12.0078 38.8976 12.0436 38.9458 12.0895ZM35.9067 26.2476V26.2475V26.2474C35.9075 25.7689 35.9083 25.2906 35.9083 24.8123C35.9126 24.8123 35.9169 24.8123 35.919 24.8133C35.919 24.3119 35.9188 23.8104 35.9185 23.309C35.9179 21.9721 35.9173 20.6352 35.9212 19.2983C35.9222 18.9923 35.8022 18.7814 35.5322 18.6516C35.3634 18.57 35.1944 18.4888 35.0253 18.4077C34.8563 18.3266 34.6873 18.2456 34.5186 18.1639C33.769 17.8001 33.0192 17.4365 32.2694 17.0729L32.2662 17.0713L32.2631 17.0698L32.2629 17.0698L32.2628 17.0697C30.0019 15.9733 27.7407 14.8769 25.4838 13.7724C25.1505 13.6091 24.8634 13.5929 24.5387 13.7778C24.3115 13.9073 24.0732 14.0182 23.8349 14.1291L23.8346 14.1292C23.7326 14.1767 23.6305 14.2242 23.5294 14.2731L20.9206 15.5362C18.7644 16.5801 16.6083 17.624 14.4528 18.6689C14.1817 18.7998 14.082 19.0312 14.082 19.3296L14.0832 19.9639C14.0893 23.3481 14.0954 26.7322 14.0863 30.1164C14.0852 30.5987 14.2513 30.8755 14.6917 31.0864C17.8569 32.6047 21.0167 34.1305 24.1605 35.692C24.7423 35.9807 25.1934 36.0067 25.7934 35.7072C28.9575 34.1283 32.1463 32.5993 35.3351 31.0702C35.7594 30.8658 35.9201 30.5901 35.9158 30.124C35.9025 28.8321 35.9046 27.5397 35.9067 26.2476ZM34.6763 20.19C34.7094 20.18 34.746 20.1689 34.7875 20.1547V20.1556C34.7875 20.3087 34.7875 20.4264 34.7886 20.543L34.7883 22.5053C34.7878 24.905 34.7872 27.3047 34.794 29.7044C34.795 29.9672 34.7286 30.1099 34.4822 30.2289C32.3208 31.2705 30.163 32.3194 28.0053 33.3683L28.0026 33.3696L28.0019 33.37C27.2822 33.7198 26.5625 34.0697 25.8427 34.4192C25.7975 34.4406 25.7515 34.4599 25.6945 34.4836L25.6944 34.4837C25.6766 34.4911 25.6577 34.499 25.6375 34.5075C25.6211 34.5144 25.6039 34.5217 25.5856 34.5295C25.5825 34.4787 25.5788 34.4316 25.5752 34.387L25.5752 34.387C25.5688 34.3065 25.5631 34.2338 25.5631 34.1608C25.5626 32.9341 25.5625 31.7072 25.5625 30.4802C25.5623 28.6398 25.5622 26.7994 25.5609 24.9593L25.5609 24.9392C25.5606 24.7443 25.5604 24.5899 25.7966 24.4759C27.9662 23.4319 30.1316 22.3794 32.2969 21.327C33.0403 20.9657 33.7836 20.6044 34.5272 20.2434C34.5709 20.222 34.6181 20.2077 34.6763 20.19ZM21.085 22.9684L24.4241 24.5895C24.4241 27.9007 24.4241 31.1956 24.423 34.536C24.3762 34.5162 24.3314 34.4981 24.2882 34.4805C24.2041 34.4463 24.1259 34.4146 24.0501 34.3781C23.0455 33.8903 22.0408 33.4021 21.0362 32.9138L21.034 32.9128L21.0302 32.9109C19.1951 32.0191 17.3599 31.1272 15.5243 30.2375C15.3325 30.1445 15.206 30.058 15.2071 29.7963C15.2159 27.4452 15.2157 25.0948 15.2155 22.7444C15.2155 21.9609 15.2154 21.1773 15.2157 20.3937C15.2157 20.3536 15.2203 20.3131 15.227 20.2551C15.2309 20.221 15.2355 20.1807 15.2403 20.131C17.1693 21.0672 19.0837 21.9967 20.9928 22.9236L21.0609 22.9566L21.085 22.9684ZM28.0939 16.3067L28.095 16.3072L28.0959 16.3076C28.353 16.433 28.6128 16.5597 28.8761 16.6878C27.5635 17.3269 26.3377 17.9228 25.112 18.5175C24.6578 18.7381 24.2036 18.9581 23.7494 19.1781L23.7405 19.1825L23.7387 19.1833L23.7387 19.1833L23.7387 19.1833C22.5463 19.761 21.3544 20.3383 20.166 20.9236C19.9399 21.035 19.762 21.0372 19.5359 20.9247C18.7045 20.5102 17.8687 20.1052 17.0078 19.688L17.0075 19.6879C16.6692 19.5239 16.327 19.3581 15.9796 19.1891L16.1098 19.125C16.3489 19.0074 16.5537 18.9066 16.7586 18.8073L17.8841 18.2609C20.1573 17.1572 22.4297 16.0538 24.7069 14.9576C24.8452 14.8906 25.0573 14.8473 25.1827 14.9057C26.1443 15.3558 27.0991 15.8215 28.0939 16.3067ZM22.0009 22.1142C21.7186 21.9763 21.4337 21.8372 21.1453 21.6968C23.3354 20.6327 25.4548 19.6043 27.5743 18.5759C27.7747 18.4786 27.9749 18.3807 28.1752 18.2827L28.1757 18.2824C28.7449 18.004 29.3144 17.7255 29.8897 17.4599C30.029 17.3961 30.2401 17.368 30.3698 17.4286C31.2817 17.8563 32.1875 18.2984 33.113 18.7501L33.1136 18.7504L33.1142 18.7507C33.4051 18.8927 33.6979 19.0356 33.9936 19.1793C33.9515 19.2049 33.9143 19.2289 33.8798 19.2511C33.8168 19.2918 33.7628 19.3266 33.7053 19.3545C30.9034 20.7149 28.1014 22.0753 25.2952 23.4281C25.1645 23.4908 24.9673 23.5427 24.8516 23.4886C23.9068 23.0449 22.969 22.587 22.001 22.1143L22.0009 22.1142ZM15.2787 39.9545C14.1308 39.2176 13.0844 38.3531 12.0618 37.2736C12.1791 37.283 12.2756 37.2899 12.3603 37.296L12.3604 37.296L12.3607 37.296C12.4707 37.304 12.5607 37.3104 12.6503 37.319C13.0602 37.3629 13.4699 37.4074 13.8796 37.452L13.8797 37.452L13.8798 37.452C14.489 37.5183 15.098 37.5846 15.7075 37.6486C16.0865 37.6885 16.3446 37.5081 16.3975 37.1871C16.4504 36.864 16.2517 36.5896 15.8813 36.5474C14.1654 36.3529 12.4495 36.1671 10.7324 35.9931C10.3178 35.9509 10.0942 36.1563 10.0499 36.5615C9.86205 38.2645 9.67739 39.9686 9.49705 41.6727C9.45817 42.0433 9.65579 42.3102 9.97543 42.3567C10.3091 42.4042 10.5672 42.1827 10.6158 41.7883C10.6555 41.4659 10.6904 41.1429 10.7254 40.8198L10.7254 40.8193C10.7427 40.6596 10.7599 40.5 10.7778 40.3403L11.0499 37.9349C11.0905 37.9723 11.1241 38.0028 11.1533 38.0292L11.1533 38.0292L11.1534 38.0293C11.2033 38.0745 11.2398 38.1076 11.2745 38.1424C15.5044 42.4053 20.6112 44.3763 26.6046 43.9398C30.5094 43.6556 34.0515 42.3016 37.0114 39.746C43.0825 34.5062 45.1635 27.8962 43.3849 20.0803C43.2477 19.4736 43.0287 18.8852 42.81 18.2977L42.81 18.2977L42.81 18.2976C42.7412 18.1128 42.6725 17.9281 42.6063 17.7429C42.4897 17.4198 42.2273 17.2783 41.8925 17.3971C41.5556 17.5182 41.4681 17.7916 41.5567 18.1211C41.5871 18.2334 41.6304 18.3423 41.6736 18.4511C41.6903 18.4931 41.707 18.535 41.723 18.5772C43.1635 22.4111 43.2974 26.2969 42.0998 30.2087C39.953 37.2185 33.7502 42.2076 26.4469 42.7792C22.4189 43.0947 18.6858 42.1395 15.2787 39.9545ZM21.0471 27.3314C21.1065 27.3511 21.1743 27.3736 21.2544 27.4019C21.2966 27.3556 21.346 27.3099 21.3965 27.2631C21.5133 27.1549 21.6363 27.0409 21.6907 26.9008C21.8006 26.6153 21.6224 26.3899 21.3536 26.2601C21.1636 26.1683 20.9737 26.0765 20.7837 25.9847C20.0164 25.6139 19.2497 25.2432 18.4801 24.8768C18.093 24.6922 17.7836 24.7802 17.6332 25.0968C17.485 25.4091 17.6172 25.6935 18.0162 25.8888C18.9356 26.3384 19.8561 26.7859 20.7777 27.2302C20.8542 27.2673 20.9357 27.2944 21.0471 27.3314Z" fill="#01C0CC"/>
<path d="M39.0312 11.3354L38.8325 11.3129V11.3129L39.0312 11.3354ZM38.9458 12.0895L38.8079 12.2343L39.0993 12.512L39.1446 12.112L38.9458 12.0895ZM39.376 8.27911L39.5747 8.30133L39.5747 8.30128L39.376 8.27911ZM40.0238 7.6329L40.0484 7.43442L40.0482 7.43439L40.0238 7.6329ZM40.4982 8.38807L40.697 8.4094L40.697 8.40925L40.4982 8.38807ZM39.9484 13.451L40.1472 13.4727L40.1472 13.4727L39.9484 13.451ZM39.2002 14.0324L39.1787 14.2313L39.1791 14.2313L39.2002 14.0324ZM36.5258 13.735L36.5034 13.9337L36.5258 13.735ZM35.2267 13.589L35.2043 13.7878L35.2045 13.7878L35.2267 13.589ZM34.7699 13.5397L34.7488 13.7386L34.7489 13.7386L34.7699 13.5397ZM34.7697 13.5397L34.7908 13.3408L34.7884 13.3406L34.7697 13.5397ZM34.7697 13.5397L34.7487 13.7386L34.751 13.7388L34.7697 13.5397ZM34.2231 13.4801L34.2462 13.2814L34.246 13.2814L34.2231 13.4801ZM33.614 12.8403L33.8125 12.865L33.8126 12.8644L33.614 12.8403ZM34.3665 12.3624L34.3441 12.5612L34.3444 12.5612L34.3665 12.3624ZM35.4639 12.4846L35.486 12.2858L35.486 12.2858L35.4639 12.4846ZM37.6587 12.7281L37.6814 12.5294L37.6806 12.5293L37.6587 12.7281ZM37.8221 12.731L37.8269 12.9309H37.8269L37.8221 12.731ZM37.9411 12.7292V12.9292H38.3685L38.0947 12.6011L37.9411 12.7292ZM37.8593 12.6286L38.0154 12.5034L38.0102 12.4974L37.8593 12.6286ZM37.8593 12.6286L37.6975 12.7462L37.7026 12.7533L37.7083 12.7598L37.8593 12.6286ZM37.8592 12.6286L38.0212 12.5108L38.0152 12.5034L37.8592 12.6286ZM37.7169 12.4638L37.5763 12.606L37.5765 12.6063L37.7169 12.4638ZM23.6501 7.19706L23.6642 7.39656L23.6643 7.39656L23.6501 7.19706ZM7.47897 21.5874L7.67518 21.6261L7.67518 21.6261L7.47897 21.5874ZM8.27777 31.2503L8.46551 31.1814L8.46539 31.181L8.27777 31.2503ZM8.32604 31.3761L8.13985 31.4491L8.13985 31.4491L8.32604 31.3761ZM8.41683 31.629L8.60893 31.5733L8.60872 31.5726L8.41683 31.629ZM8.07834 32.3885L8.14318 32.5777L8.14342 32.5776L8.07834 32.3885ZM7.35284 31.999L7.54389 31.9398L7.54389 31.9398L7.35284 31.999ZM7.06476 31.1044L7.25479 31.042L7.25425 31.0404L7.06476 31.1044ZM7.06474 31.1043L6.8747 31.1667L6.87524 31.1683L7.06474 31.1043ZM6.34491 28.5155L6.54174 28.48L6.54174 28.48L6.34491 28.5155ZM10.1373 13.1629L10.2944 13.2868L10.2944 13.2867L10.1373 13.1629ZM22.2659 6.20132L22.239 6.00313L22.239 6.00313L22.2659 6.20132ZM38.7195 11.8748L38.5775 12.0157L38.578 12.0162L38.7195 11.8748ZM38.8267 11.9771L38.9643 11.832L38.9633 11.8311L38.8267 11.9771ZM38.8268 11.9773L38.6892 12.1224L38.6893 12.1225L38.8268 11.9773ZM38.8272 11.9776L38.6896 12.1228L38.6905 12.1237L38.8272 11.9776ZM35.9067 26.2476L36.1067 26.2479V26.2476H35.9067ZM35.9067 26.2474L35.7067 26.247V26.2474H35.9067ZM35.9083 24.8123V24.6122H35.7083V24.8123H35.9083ZM35.919 24.8133L35.829 24.9919L36.119 25.1381V24.8133H35.919ZM35.9185 23.309L36.1185 23.3089L35.9185 23.309ZM35.9212 19.2983L35.7212 19.2976V19.2977L35.9212 19.2983ZM35.5322 18.6516L35.4451 18.8317L35.4456 18.8319L35.5322 18.6516ZM35.0253 18.4077L35.1118 18.2274H35.1118L35.0253 18.4077ZM34.5186 18.1639L34.4312 18.3438L34.4315 18.344L34.5186 18.1639ZM32.2694 17.0729L32.3567 16.8929L32.3566 16.8929L32.2694 17.0729ZM32.2662 17.0713L32.1789 17.2513L32.179 17.2513L32.2662 17.0713ZM32.2631 17.0698L32.3504 16.8899L32.3489 16.8892L32.2631 17.0698ZM32.2628 17.0697L32.1756 17.2497L32.177 17.2504L32.2628 17.0697ZM25.4838 13.7724L25.3958 13.952L25.3959 13.9521L25.4838 13.7724ZM24.5387 13.7778L24.6377 13.9516L24.5387 13.7778ZM23.8349 14.1291L23.9188 14.3106L23.9193 14.3104L23.8349 14.1291ZM23.8346 14.1292L23.7507 13.9477L23.7502 13.9479L23.8346 14.1292ZM23.5294 14.2731L23.4423 14.0931L23.4422 14.0931L23.5294 14.2731ZM20.9206 15.5362L21.0077 15.7162L21.0077 15.7162L20.9206 15.5362ZM14.4528 18.6689L14.5397 18.849L14.54 18.8489L14.4528 18.6689ZM14.082 19.3296H13.882L13.882 19.33L14.082 19.3296ZM14.0832 19.9639L13.8832 19.9643V19.9643L14.0832 19.9639ZM14.0863 30.1164L13.8863 30.1159V30.116L14.0863 30.1164ZM14.6917 31.0864L14.7782 30.9061L14.7781 30.906L14.6917 31.0864ZM24.1605 35.692L24.0715 35.8711L24.0716 35.8712L24.1605 35.692ZM25.7934 35.7072L25.7041 35.5282L25.7041 35.5282L25.7934 35.7072ZM35.3351 31.0702L35.4215 31.2505L35.4219 31.2504L35.3351 31.0702ZM35.9158 30.124L36.1158 30.1222L36.1158 30.1219L35.9158 30.124ZM34.7875 20.1547H34.9875V19.8756L34.7232 19.9654L34.7875 20.1547ZM34.6763 20.19L34.6181 19.9987L34.6181 19.9987L34.6763 20.19ZM34.7886 20.543L34.9886 20.543L34.9886 20.5411L34.7886 20.543ZM34.7883 22.5053L34.9883 22.5053V22.5053L34.7883 22.5053ZM34.794 29.7044L34.594 29.705V29.7052L34.794 29.7044ZM34.4822 30.2289L34.569 30.4091L34.5691 30.409L34.4822 30.2289ZM28.0053 33.3683L27.9179 33.1884L27.9178 33.1884L28.0053 33.3683ZM28.0026 33.3696L27.9151 33.1898L27.9143 33.1902L28.0026 33.3696ZM28.0019 33.37L28.0893 33.5499L28.0901 33.5494L28.0019 33.37ZM25.8427 34.4192L25.9284 34.6L25.9301 34.5991L25.8427 34.4192ZM25.6945 34.4836L25.7714 34.6683L25.7715 34.6682L25.6945 34.4836ZM25.6944 34.4837L25.6175 34.299L25.6174 34.2991L25.6944 34.4837ZM25.6375 34.5075L25.5599 34.3232H25.5599L25.6375 34.5075ZM25.5856 34.5295L25.3859 34.5415L25.403 34.8253L25.6643 34.7134L25.5856 34.5295ZM25.5752 34.387L25.775 34.3712L25.7732 34.3587L25.5752 34.387ZM25.5752 34.387L25.3755 34.4029L25.3772 34.4153L25.5752 34.387ZM25.5631 34.1608H25.7631V34.1607L25.5631 34.1608ZM25.5625 30.4802L25.3625 30.4802L25.5625 30.4802ZM25.5609 24.9593L25.7609 24.9592V24.9591L25.5609 24.9593ZM25.5609 24.9392L25.7609 24.939V24.9389L25.5609 24.9392ZM25.7966 24.4759L25.7099 24.2957L25.7097 24.2958L25.7966 24.4759ZM32.2969 21.327L32.3843 21.5069L32.2969 21.327ZM34.5272 20.2434L34.6145 20.4233L34.615 20.4231L34.5272 20.2434ZM24.4241 24.5895H24.6241V24.4643L24.5114 24.4096L24.4241 24.5895ZM21.085 22.9684L20.9977 23.1483L20.9977 23.1483L21.085 22.9684ZM24.423 34.536L24.3452 34.7203L24.6229 34.8376L24.623 34.5361L24.423 34.536ZM24.2882 34.4805L24.213 34.6658L24.213 34.6658L24.2882 34.4805ZM24.0501 34.3781L23.9628 34.5581L23.9634 34.5584L24.0501 34.3781ZM21.0362 32.9138L21.1236 32.7339L21.1236 32.7339L21.0362 32.9138ZM21.034 32.9128L20.9466 33.0927H20.9466L21.034 32.9128ZM21.0302 32.9109L20.9428 33.0908L20.9428 33.0908L21.0302 32.9109ZM15.5243 30.2375L15.437 30.4175L15.437 30.4175L15.5243 30.2375ZM15.2071 29.7963L15.4071 29.7971V29.7971L15.2071 29.7963ZM15.2155 22.7444L15.0155 22.7444L15.2155 22.7444ZM15.2157 20.3937L15.4157 20.3938V20.3937H15.2157ZM15.227 20.2551L15.0283 20.2323V20.2323L15.227 20.2551ZM15.2403 20.131L15.3276 19.951L15.0687 19.8254L15.0412 20.1119L15.2403 20.131ZM20.9928 22.9236L20.9055 23.1035H20.9055L20.9928 22.9236ZM21.0609 22.9566L21.1483 22.7767L21.1483 22.7767L21.0609 22.9566ZM28.095 16.3072L28.0075 16.487L28.0075 16.487L28.095 16.3072ZM28.0939 16.3067L28.0062 16.4864L28.0064 16.4865L28.0939 16.3067ZM28.0959 16.3076L28.1835 16.1278L28.1834 16.1278L28.0959 16.3076ZM28.8761 16.6878L28.9637 16.8677L29.3331 16.6878L28.9636 16.508L28.8761 16.6878ZM25.112 18.5175L25.0247 18.3376L25.0246 18.3376L25.112 18.5175ZM23.7494 19.1781L23.8366 19.3581L23.8366 19.3581L23.7494 19.1781ZM23.7405 19.1825L23.8276 19.3625L23.8277 19.3625L23.7405 19.1825ZM23.7387 19.1833L23.6516 19.0032L23.6493 19.0044L23.7387 19.1833ZM23.7387 19.1833L23.8259 19.3634L23.8281 19.3622L23.7387 19.1833ZM20.166 20.9236L20.0776 20.7442L20.0776 20.7442L20.166 20.9236ZM19.5359 20.9247L19.4467 21.1037L19.4468 21.1038L19.5359 20.9247ZM17.0078 19.688L17.095 19.508L17.0948 19.5079L17.0078 19.688ZM17.0075 19.6879L16.9203 19.8679L16.9205 19.868L17.0075 19.6879ZM15.9796 19.1891L15.8914 19.0096L15.5246 19.1901L15.8921 19.3689L15.9796 19.1891ZM16.1098 19.125L16.1981 19.3045L16.1981 19.3045L16.1098 19.125ZM16.7586 18.8073L16.8458 18.9873L16.846 18.9873L16.7586 18.8073ZM17.8841 18.2609L17.9715 18.4408L17.9715 18.4408L17.8841 18.2609ZM24.7069 14.9576L24.7937 15.1378L24.7942 15.1376L24.7069 14.9576ZM25.1827 14.9057L25.2675 14.7246L25.2671 14.7244L25.1827 14.9057ZM21.1453 21.6968L21.0579 21.5169L20.688 21.6966L21.0578 21.8766L21.1453 21.6968ZM22.0009 22.1142L21.9131 22.2939L21.9141 22.2944L22.0009 22.1142ZM27.5743 18.5759L27.6616 18.7559L27.6616 18.7558L27.5743 18.5759ZM28.1752 18.2827L28.263 18.4624L28.2631 18.4623L28.1752 18.2827ZM28.1757 18.2824L28.0878 18.1028L28.0878 18.1028L28.1757 18.2824ZM29.8897 17.4599L29.8065 17.2781L29.8059 17.2783L29.8897 17.4599ZM30.3698 17.4286L30.4547 17.2475L30.4544 17.2474L30.3698 17.4286ZM33.113 18.7501L33.0252 18.9298L33.0254 18.9299L33.113 18.7501ZM33.1136 18.7504L33.0261 18.9302L33.0263 18.9303L33.1136 18.7504ZM33.1142 18.7507L33.2019 18.5709L33.2015 18.5707L33.1142 18.7507ZM33.9936 19.1793L34.0976 19.3501L34.4104 19.1596L34.081 18.9995L33.9936 19.1793ZM33.8798 19.2511L33.9882 19.4192L33.8798 19.2511ZM33.7053 19.3545L33.7927 19.5344L33.7928 19.5344L33.7053 19.3545ZM25.2952 23.4281L25.3817 23.6084L25.382 23.6082L25.2952 23.4281ZM24.8516 23.4886L24.7666 23.6697L24.7669 23.6698L24.8516 23.4886ZM22.001 22.1143L22.0888 21.9345L22.0878 21.9341L22.001 22.1143ZM12.0618 37.2736L12.0777 37.0742L11.558 37.0326L11.9166 37.4111L12.0618 37.2736ZM15.2787 39.9545L15.1707 40.1228L15.1708 40.1229L15.2787 39.9545ZM12.3603 37.296L12.3459 37.4955L12.3495 37.4957L12.3603 37.296ZM12.3604 37.296L12.3763 37.0966L12.3712 37.0963L12.3604 37.296ZM12.3607 37.296L12.3447 37.4954L12.3463 37.4955L12.3607 37.296ZM12.6503 37.319L12.6716 37.1201L12.6693 37.1199L12.6503 37.319ZM13.8796 37.452L13.9046 37.2536L13.9012 37.2532L13.8796 37.452ZM13.8798 37.452L13.8548 37.6505L13.8582 37.6509L13.8798 37.452ZM15.7075 37.6486L15.7284 37.4497L15.7283 37.4496L15.7075 37.6486ZM16.3975 37.1871L16.5948 37.2197L16.5949 37.2195L16.3975 37.1871ZM15.8813 36.5474L15.9039 36.3487L15.9039 36.3487L15.8813 36.5474ZM10.7324 35.9931L10.7122 36.1921L10.7123 36.1921L10.7324 35.9931ZM10.0499 36.5615L10.2487 36.5834L10.2488 36.5832L10.0499 36.5615ZM9.49705 41.6727L9.29816 41.6516L9.29814 41.6518L9.49705 41.6727ZM9.97543 42.3567L9.94666 42.5546L9.94722 42.5547L9.97543 42.3567ZM10.6158 41.7883L10.4173 41.7638L10.4173 41.7639L10.6158 41.7883ZM10.7254 40.8198L10.9242 40.8413L10.9242 40.8413L10.7254 40.8198ZM10.7254 40.8193L10.5266 40.7978L10.5266 40.7978L10.7254 40.8193ZM10.7778 40.3403L10.5791 40.3178L10.579 40.3181L10.7778 40.3403ZM11.0499 37.9349L11.1855 37.7879L10.8955 37.5205L10.8512 37.9124L11.0499 37.9349ZM11.1533 38.0292L11.019 38.1774L11.0204 38.1787L11.1533 38.0292ZM11.1533 38.0292L11.2911 37.8841L11.2862 37.8798L11.1533 38.0292ZM11.1534 38.0293L11.0157 38.1744L11.0191 38.1775L11.1534 38.0293ZM11.2745 38.1424L11.4165 38.0015L11.416 38.001L11.2745 38.1424ZM26.6046 43.9398L26.5901 43.7403H26.59L26.6046 43.9398ZM37.0114 39.746L36.8808 39.5946L36.8807 39.5946L37.0114 39.746ZM43.3849 20.0803L43.1898 20.1244L43.1899 20.1246L43.3849 20.0803ZM42.81 18.2977L42.9975 18.2279L42.9957 18.2234L42.81 18.2977ZM42.81 18.2977L42.62 18.361L42.6243 18.3719L42.81 18.2977ZM42.81 18.2976L42.9999 18.2343L42.9975 18.2279L42.81 18.2976ZM42.6063 17.7429L42.7947 17.6756L42.7944 17.675L42.6063 17.7429ZM41.8925 17.3971L41.8256 17.2087L41.8249 17.2089L41.8925 17.3971ZM41.5567 18.1211L41.3635 18.173L41.3636 18.1734L41.5567 18.1211ZM41.6736 18.4511L41.4878 18.525V18.525L41.6736 18.4511ZM41.723 18.5772L41.9102 18.5068L41.91 18.5064L41.723 18.5772ZM42.0998 30.2087L42.2911 30.2672L42.2911 30.2672L42.0998 30.2087ZM26.4469 42.7792L26.4313 42.5798H26.4313L26.4469 42.7792ZM21.2544 27.4019L21.1877 27.5905L21.3129 27.6348L21.4023 27.5366L21.2544 27.4019ZM21.0471 27.3314L20.9841 27.5212L20.9841 27.5212L21.0471 27.3314ZM21.3965 27.2631L21.2605 27.1164H21.2605L21.3965 27.2631ZM21.6907 26.9008L21.8772 26.9731L21.8774 26.9726L21.6907 26.9008ZM21.3536 26.2601L21.4406 26.08L21.4406 26.08L21.3536 26.2601ZM20.7837 25.9847L20.6967 26.1648H20.6967L20.7837 25.9847ZM18.4801 24.8768L18.3941 25.0573L18.3942 25.0573L18.4801 24.8768ZM17.6332 25.0968L17.4526 25.011L17.4526 25.011L17.6332 25.0968ZM18.0162 25.8888L17.9282 26.0684L17.9283 26.0684L18.0162 25.8888ZM20.7777 27.2302L20.8649 27.0503L20.8645 27.0501L20.7777 27.2302ZM38.8325 11.3129L38.7471 12.067L39.1446 12.112L39.23 11.3579L38.8325 11.3129ZM39.1772 8.25689C39.0648 9.26178 38.9511 10.266 38.8325 11.3129L39.23 11.3579C39.3485 10.3111 39.4623 9.30657 39.5747 8.30133L39.1772 8.25689ZM40.0482 7.43439C39.8145 7.40575 39.6001 7.46282 39.4393 7.6236C39.2855 7.77727 39.2057 8.00099 39.1772 8.25694L39.5747 8.30128C39.5979 8.09334 39.6572 7.9713 39.722 7.90651C39.7797 7.84883 39.8634 7.81474 39.9995 7.83142L40.0482 7.43439ZM40.697 8.40925C40.7236 8.16012 40.6918 7.93157 40.5783 7.75248C40.4604 7.5666 40.2722 7.46216 40.0484 7.43442L39.9992 7.83138C40.1236 7.8468 40.1964 7.89717 40.2405 7.9667C40.2889 8.04302 40.3202 8.17048 40.2993 8.3669L40.697 8.40925ZM40.1472 13.4727C40.3315 11.7854 40.5159 10.098 40.697 8.4094L40.2993 8.36674C40.1182 10.0549 39.9339 11.7419 39.7496 13.4292L40.1472 13.4727ZM39.1791 14.2313C39.436 14.2587 39.6707 14.2211 39.8509 14.08C40.0321 13.938 40.12 13.7211 40.1472 13.4727L39.7496 13.4292C39.7293 13.6145 39.6712 13.7126 39.6042 13.7651C39.5361 13.8184 39.4205 13.8548 39.2214 13.8336L39.1791 14.2313ZM36.5034 13.9337C37.3946 14.0341 38.2866 14.1347 39.1787 14.2313L39.2218 13.8336C38.3307 13.7371 37.4395 13.6367 36.5482 13.5362L36.5034 13.9337ZM35.2045 13.7878C35.6373 13.8361 36.0703 13.8849 36.5034 13.9337L36.5482 13.5362C36.1151 13.4874 35.682 13.4386 35.2489 13.3903L35.2045 13.7878ZM34.7489 13.7386C34.9014 13.7547 35.053 13.7707 35.2043 13.7878L35.2492 13.3903C35.0962 13.373 34.9431 13.3569 34.7908 13.3408L34.7489 13.7386ZM34.7487 13.7386L34.7488 13.7386L34.7909 13.3408L34.7908 13.3408L34.7487 13.7386ZM34.751 13.7388L34.7511 13.7388L34.7884 13.3406L34.7883 13.3406L34.751 13.7388ZM34.2 13.6787C34.3832 13.7 34.5666 13.7194 34.7487 13.7386L34.7907 13.3408C34.6082 13.3215 34.427 13.3024 34.2462 13.2814L34.2 13.6787ZM33.4156 12.8157C33.3873 13.0431 33.4437 13.2535 33.5954 13.4129C33.7422 13.5673 33.956 13.6507 34.2002 13.6788L34.246 13.2814C34.059 13.2599 33.9462 13.2014 33.8852 13.1373C33.8291 13.0783 33.7965 12.9936 33.8125 12.865L33.4156 12.8157ZM34.3889 12.1637C34.1439 12.1361 33.9162 12.17 33.7369 12.2842C33.5519 12.402 33.4429 12.59 33.4155 12.8163L33.8126 12.8644C33.8272 12.7433 33.8788 12.668 33.9518 12.6216C34.0304 12.5715 34.1578 12.5402 34.3441 12.5612L34.3889 12.1637ZM35.486 12.2858L34.3886 12.1637L34.3444 12.5612L35.4417 12.6833L35.486 12.2858ZM37.6806 12.5293C36.9491 12.4488 36.2176 12.3673 35.486 12.2858L35.4417 12.6833C36.1733 12.7649 36.9051 12.8464 37.6368 12.9269L37.6806 12.5293ZM37.8174 12.5311C37.7496 12.5327 37.714 12.5332 37.6814 12.5294L37.636 12.9269C37.7012 12.9343 37.7661 12.9324 37.8269 12.9309L37.8174 12.5311ZM37.9411 12.5292C37.8933 12.5292 37.8522 12.5302 37.8174 12.5311L37.8269 12.9309C37.8619 12.9301 37.8987 12.9292 37.9411 12.9292V12.5292ZM37.7033 12.7538C37.728 12.7846 37.7559 12.8193 37.7876 12.8573L38.0947 12.6011C38.0658 12.5664 38.0402 12.5345 38.0153 12.5035L37.7033 12.7538ZM37.7083 12.7598L37.7084 12.7599L38.0102 12.4974L38.0102 12.4974L37.7083 12.7598ZM37.6975 12.7462L37.6975 12.7462L38.021 12.511L38.021 12.5109L37.6975 12.7462ZM37.5765 12.6063C37.6153 12.6445 37.6507 12.6882 37.7032 12.7537L38.0152 12.5034C37.9658 12.4418 37.9157 12.379 37.8573 12.3214L37.5765 12.6063ZM23.6643 7.39656C29.0621 7.01238 33.7137 8.78543 37.5763 12.606L37.8576 12.3216C33.9154 8.42224 29.1517 6.60499 23.6359 6.99757L23.6643 7.39656ZM7.67518 21.6261C9.22436 13.7826 15.7172 7.96075 23.6642 7.39656L23.6359 6.99756C15.5056 7.57476 8.86625 13.5314 7.28276 21.5486L7.67518 21.6261ZM8.46539 31.181C7.3156 28.0674 7.03253 24.8791 7.67518 21.6261L7.28276 21.5486C6.62534 24.8764 6.91577 28.1394 8.09015 31.3196L8.46539 31.181ZM8.51223 31.303C8.49569 31.2609 8.48008 31.2211 8.46551 31.1814L8.09003 31.3193C8.10636 31.3637 8.12358 31.4076 8.13985 31.4491L8.51223 31.303ZM8.60872 31.5726C8.58066 31.4771 8.54449 31.3853 8.51223 31.303L8.13985 31.4491C8.17323 31.5342 8.2027 31.6097 8.22495 31.6854L8.60872 31.5726ZM8.14342 32.5776C8.34566 32.508 8.5008 32.3707 8.58412 32.1848C8.66636 32.0012 8.6711 31.7878 8.60893 31.5733L8.22474 31.6847C8.26606 31.8272 8.25516 31.9407 8.21909 32.0212C8.1841 32.0993 8.11825 32.1632 8.01326 32.1994L8.14342 32.5776ZM7.1618 32.0582C7.23171 32.2839 7.36498 32.4572 7.55 32.551C7.73429 32.6443 7.94434 32.6458 8.14318 32.5777L8.0135 32.1993C7.89756 32.239 7.802 32.2302 7.7308 32.1942C7.66034 32.1584 7.58824 32.0831 7.54389 31.9398L7.1618 32.0582ZM6.87473 31.1667C6.97263 31.4651 7.06987 31.7614 7.1618 32.0582L7.54389 31.9398C7.4508 31.6393 7.35251 31.3398 7.25479 31.042L6.87473 31.1667ZM6.87524 31.1683L6.87526 31.1683L7.25425 31.0404L7.25423 31.0404L6.87524 31.1683ZM6.14809 28.551C6.30924 29.4445 6.59488 30.3139 6.87471 31.1667L7.25477 31.0419C6.97341 30.1846 6.69713 29.3416 6.54174 28.48L6.14809 28.551ZM9.98029 13.0391C6.37813 17.6062 5.11509 22.8244 6.14809 28.551L6.54174 28.48C5.52869 22.864 6.76446 17.7623 10.2944 13.2868L9.98029 13.0391ZM22.239 6.00313C17.2322 6.68233 13.1057 9.07543 9.98027 13.0391L10.2944 13.2867C13.3567 9.40309 17.3906 7.06451 22.2928 6.3995L22.239 6.00313ZM38.8614 11.7339C34.2631 7.09948 28.7088 5.12597 22.239 6.00313L22.2928 6.3995C28.634 5.53976 34.0645 7.46725 38.5775 12.0157L38.8614 11.7339ZM38.9633 11.8311C38.9194 11.7901 38.8895 11.7621 38.8609 11.7334L38.578 12.0162C38.6123 12.0505 38.6474 12.0833 38.69 12.1232L38.9633 11.8311ZM38.9645 11.8322L38.9643 11.832L38.689 12.1222L38.6892 12.1224L38.9645 11.8322ZM38.9648 11.8325L38.9644 11.8322L38.6893 12.1225L38.6896 12.1228L38.9648 11.8325ZM39.0838 11.9447C39.0349 11.8981 38.9961 11.8618 38.9638 11.8316L38.6905 12.1237C38.7227 12.1538 38.7604 12.189 38.8079 12.2343L39.0838 11.9447ZM35.7067 26.2475V26.2476H36.1067V26.2475H35.7067ZM35.7067 26.2474V26.2475H36.1067V26.2474H35.7067ZM35.7083 24.8123C35.7083 25.2904 35.7075 25.7686 35.7067 26.247L36.1067 26.2477C36.1075 25.7693 36.1083 25.2907 36.1083 24.8123H35.7083ZM36.009 24.6347C35.9696 24.6149 35.933 24.6132 35.9288 24.6129C35.9184 24.6121 35.9086 24.6122 35.9083 24.6122V25.0123C35.9123 25.0123 35.9068 25.0124 35.9001 25.0119C35.8963 25.0116 35.8884 25.0109 35.8784 25.0089C35.8694 25.0072 35.8507 25.0029 35.829 24.9919L36.009 24.6347ZM35.7185 23.3091C35.7188 23.8105 35.719 24.3119 35.719 24.8133H36.119C36.119 24.3118 36.1188 23.8103 36.1185 23.3089L35.7185 23.3091ZM35.7212 19.2977C35.7173 20.635 35.7179 21.9722 35.7185 23.3091L36.1185 23.3089C36.1179 21.9719 36.1173 20.6354 36.1212 19.2989L35.7212 19.2977ZM35.4456 18.8319C35.5518 18.8829 35.6164 18.9435 35.6564 19.0109C35.697 19.0794 35.7216 19.1707 35.7212 19.2976L36.1212 19.299C36.1218 19.1198 36.0869 18.9527 36.0003 18.8068C35.9131 18.6598 35.7827 18.5501 35.6188 18.4714L35.4456 18.8319ZM34.9388 18.588C35.1079 18.6692 35.2767 18.7502 35.4451 18.8317L35.6193 18.4716C35.4502 18.3898 35.2808 18.3085 35.1118 18.2274L34.9388 18.588ZM34.4315 18.344C34.6006 18.4258 34.7698 18.507 34.9388 18.588L35.1118 18.2274C34.9428 18.1463 34.7741 18.0654 34.6057 17.9839L34.4315 18.344ZM32.1821 17.2528C32.932 17.6164 33.6817 17.98 34.4312 18.3438L34.6059 17.984C33.8563 17.6201 33.1065 17.2565 32.3567 16.8929L32.1821 17.2528ZM32.179 17.2513L32.1822 17.2529L32.3566 16.8929L32.3535 16.8914L32.179 17.2513ZM32.1757 17.2497L32.1789 17.2513L32.3536 16.8914L32.3504 16.8899L32.1757 17.2497ZM32.1771 17.2504L32.1772 17.2505L32.3489 16.8892L32.3488 16.8891L32.1771 17.2504ZM32.177 17.2504L32.1771 17.2504L32.3488 16.8891L32.3486 16.889L32.177 17.2504ZM25.3959 13.9521C27.6532 15.0567 29.9147 16.1533 32.1756 17.2497L32.3501 16.8897C30.0891 15.7934 27.8283 14.697 25.5717 13.5928L25.3959 13.9521ZM24.6377 13.9516C24.7744 13.8738 24.893 13.8436 25.0063 13.8446C25.1215 13.8456 25.2467 13.879 25.3958 13.952L25.5718 13.5928C25.3876 13.5026 25.2026 13.4463 25.0098 13.4446C24.815 13.4429 24.6277 13.497 24.4397 13.6041L24.6377 13.9516ZM23.9193 14.3104C24.1563 14.2001 24.4021 14.0858 24.6377 13.9516L24.4397 13.6041C24.2208 13.7287 23.9901 13.8363 23.7505 13.9477L23.9193 14.3104ZM23.9185 14.3108L23.9188 14.3106L23.751 13.9475L23.7507 13.9477L23.9185 14.3108ZM23.6165 14.4532C23.7161 14.405 23.8167 14.3581 23.919 14.3105L23.7502 13.9479C23.6484 13.9953 23.545 14.0434 23.4423 14.0931L23.6165 14.4532ZM21.0077 15.7162L23.6165 14.4531L23.4422 14.0931L20.8334 15.3562L21.0077 15.7162ZM14.54 18.8489C16.6955 17.804 18.8515 16.7602 21.0077 15.7162L20.8334 15.3562C18.6772 16.4001 16.5211 17.444 14.3655 18.489L14.54 18.8489ZM14.282 19.3296C14.282 19.2014 14.3036 19.1038 14.3427 19.0297C14.38 18.9588 14.4397 18.8973 14.5397 18.849L14.3658 18.4888C14.1948 18.5714 14.0691 18.691 13.9888 18.8432C13.9103 18.9921 13.882 19.1594 13.882 19.3296H14.282ZM14.2832 19.9635L14.282 19.3293L13.882 19.33L13.8832 19.9643L14.2832 19.9635ZM14.2863 30.117C14.2954 26.7323 14.2893 23.3476 14.2832 19.9635L13.8832 19.9643C13.8893 23.3485 13.8954 26.7322 13.8863 30.1159L14.2863 30.117ZM14.7781 30.906C14.5794 30.8109 14.4634 30.7109 14.3935 30.598C14.3234 30.4846 14.2858 30.3358 14.2863 30.1169L13.8863 30.116C13.8857 30.3793 13.9306 30.6101 14.0534 30.8084C14.1764 31.0072 14.3636 31.1511 14.6053 31.2668L14.7781 30.906ZM24.2494 35.5129C21.1044 33.9508 17.9436 32.4245 14.7782 30.9061L14.6052 31.2667C17.7702 32.7849 20.929 34.3102 24.0715 35.8711L24.2494 35.5129ZM25.7041 35.5282C25.4247 35.6677 25.1941 35.7246 24.9741 35.7202C24.7529 35.7159 24.5244 35.6493 24.2494 35.5129L24.0716 35.8712C24.3784 36.0234 24.6663 36.1142 24.9662 36.1201C25.2672 36.1261 25.5622 36.0461 25.8828 35.8861L25.7041 35.5282ZM35.2486 30.8899C32.0601 32.4188 28.8699 33.9486 25.7041 35.5282L25.8827 35.8861C29.0452 34.3081 32.2325 32.7797 35.4215 31.2505L35.2486 30.8899ZM35.7158 30.1258C35.7178 30.3363 35.6822 30.4811 35.6152 30.5915C35.5486 30.7012 35.4377 30.7988 35.2483 30.89L35.4219 31.2504C35.6567 31.1373 35.8384 30.9947 35.9571 30.799C36.0755 30.6039 36.1182 30.3778 36.1158 30.1222L35.7158 30.1258ZM35.7067 26.2472C35.7046 27.5392 35.7025 28.8328 35.7158 30.126L36.1158 30.1219C36.1025 28.8315 36.1046 27.5403 36.1067 26.2479L35.7067 26.2472ZM34.7232 19.9654C34.6851 19.9783 34.6513 19.9886 34.6181 19.9987L34.7344 20.3814C34.7674 20.3714 34.8068 20.3594 34.8518 20.3441L34.7232 19.9654ZM34.9875 20.1556V20.1547H34.5875V20.1556H34.9875ZM34.9886 20.5411C34.9875 20.4256 34.9875 20.3089 34.9875 20.1556H34.5875C34.5875 20.3085 34.5875 20.4271 34.5886 20.5448L34.9886 20.5411ZM34.9883 22.5053L34.9886 20.543L34.5886 20.5429L34.5883 22.5053L34.9883 22.5053ZM34.994 29.7039C34.9872 27.3045 34.9878 24.9051 34.9883 22.5053L34.5883 22.5052C34.5878 24.9049 34.5872 27.3049 34.594 29.705L34.994 29.7039ZM34.5691 30.409C34.7138 30.3392 34.8306 30.2502 34.9049 30.1192C34.9774 29.9913 34.9946 29.8487 34.994 29.7036L34.594 29.7052C34.5944 29.8229 34.5789 29.8831 34.5569 29.922C34.5366 29.9577 34.497 29.9997 34.3952 30.0488L34.5691 30.409ZM28.0927 33.5482C30.2505 32.4993 32.408 31.4505 34.569 30.4091L34.3953 30.0487C32.2336 31.0905 30.0756 32.1396 27.9179 33.1884L28.0927 33.5482ZM28.09 33.5495L28.0928 33.5482L27.9178 33.1884L27.9151 33.1898L28.09 33.5495ZM28.0901 33.5494L28.0908 33.5491L27.9143 33.1902L27.9136 33.1905L28.0901 33.5494ZM25.9301 34.5991C26.6499 34.2495 27.3696 33.8997 28.0893 33.5499L27.9144 33.1901C27.1948 33.5399 26.4751 33.8898 25.7554 34.2393L25.9301 34.5991ZM25.7715 34.6682C25.8275 34.6449 25.8781 34.6238 25.9284 34.6L25.7571 34.2385C25.7169 34.2575 25.6755 34.2749 25.6175 34.299L25.7715 34.6682ZM25.7713 34.6683L25.7714 34.6683L25.6176 34.299L25.6175 34.299L25.7713 34.6683ZM25.7151 34.6918C25.735 34.6834 25.7536 34.6757 25.7714 34.6682L25.6174 34.2991C25.5996 34.3065 25.5805 34.3145 25.5599 34.3232L25.7151 34.6918ZM25.6643 34.7134C25.6822 34.7057 25.699 34.6986 25.7151 34.6918L25.5599 34.3232C25.5432 34.3302 25.5256 34.3377 25.5068 34.3457L25.6643 34.7134ZM25.3759 34.4029C25.3794 34.4477 25.383 34.4929 25.3859 34.5415L25.7852 34.5175C25.782 34.4645 25.7781 34.4156 25.7746 34.3712L25.3759 34.4029ZM25.3772 34.4153L25.3772 34.4153L25.7732 34.3587L25.7732 34.3587L25.3772 34.4153ZM25.3631 34.1608C25.3631 34.2432 25.3696 34.3238 25.3759 34.4028L25.7746 34.3712C25.7681 34.2891 25.7631 34.2245 25.7631 34.1608H25.3631ZM25.3625 30.4802C25.3625 31.7072 25.3626 32.9341 25.3631 34.1609L25.7631 34.1607C25.7626 32.934 25.7625 31.7071 25.7625 30.4802L25.3625 30.4802ZM25.3609 24.9595C25.3622 26.7995 25.3623 28.6398 25.3625 30.4802L25.7625 30.4802C25.7623 28.6398 25.7622 26.7993 25.7609 24.9592L25.3609 24.9595ZM25.3609 24.9394L25.3609 24.9595L25.7609 24.9591L25.7609 24.939L25.3609 24.9394ZM25.7097 24.2958C25.5557 24.3701 25.4545 24.4715 25.4032 24.606C25.3581 24.7243 25.3608 24.8514 25.3609 24.9395L25.7609 24.9389C25.7607 24.8322 25.7632 24.7846 25.777 24.7485C25.7846 24.7285 25.8013 24.6957 25.8836 24.6561L25.7097 24.2958ZM32.2095 21.1471C30.0442 22.1995 27.8791 23.2518 25.7099 24.2957L25.8834 24.6562C28.0534 23.6119 30.2191 22.5592 32.3843 21.5069L32.2095 21.1471ZM34.4398 20.0635C33.6963 20.4245 32.9528 20.7858 32.2095 21.1471L32.3843 21.5069C33.1277 21.1455 33.871 20.7843 34.6145 20.4233L34.4398 20.0635ZM34.6181 19.9987C34.5636 20.0152 34.5001 20.034 34.4393 20.0637L34.615 20.4231C34.6416 20.4101 34.6726 20.4002 34.7344 20.3814L34.6181 19.9987ZM24.5114 24.4096L21.1724 22.7884L20.9977 23.1483L24.3367 24.7694L24.5114 24.4096ZM24.623 34.5361C24.6241 31.1957 24.6241 27.9007 24.6241 24.5895H24.2241C24.2241 27.9007 24.2241 31.1956 24.223 34.536L24.623 34.5361ZM24.213 34.6658C24.2563 34.6834 24.2998 34.7011 24.3452 34.7203L24.5008 34.3518C24.4525 34.3314 24.4065 34.3127 24.3635 34.2952L24.213 34.6658ZM23.9634 34.5584C24.0458 34.598 24.1299 34.6321 24.213 34.6658L24.3635 34.2952C24.2782 34.2606 24.206 34.2312 24.1368 34.1979L23.9634 34.5584ZM20.9487 33.0937C21.9534 33.5819 22.9581 34.0702 23.9628 34.5581L24.1375 34.1982C23.1329 33.7104 22.1283 33.2222 21.1236 32.7339L20.9487 33.0937ZM20.9466 33.0927L20.9488 33.0937L21.1236 32.7339L21.1214 32.7329L20.9466 33.0927ZM20.9428 33.0908L20.9466 33.0927L21.1214 32.7329L21.1176 32.731L20.9428 33.0908ZM15.437 30.4175C17.2726 31.3071 19.1077 32.1989 20.9428 33.0908L21.1176 32.731C19.2826 31.8392 17.4473 30.9473 15.6115 30.0576L15.437 30.4175ZM15.0071 29.7955C15.0064 29.9616 15.0473 30.0984 15.1403 30.2089C15.2257 30.3105 15.3405 30.3707 15.437 30.4175L15.6115 30.0576C15.5162 30.0113 15.4719 29.9818 15.4464 29.9515C15.4285 29.9301 15.4067 29.8928 15.4071 29.7971L15.0071 29.7955ZM15.0155 22.7444C15.0157 25.0948 15.0159 27.4449 15.0071 29.7956L15.4071 29.7971C15.4159 27.4455 15.4157 25.0947 15.4155 22.7444L15.0155 22.7444ZM15.0157 20.3937C15.0154 21.1773 15.0155 21.9609 15.0155 22.7444L15.4155 22.7444C15.4155 21.9608 15.4154 21.1773 15.4157 20.3938L15.0157 20.3937ZM15.0283 20.2323C15.022 20.287 15.0157 20.3398 15.0157 20.3937H15.4157C15.4157 20.3674 15.4187 20.3391 15.4257 20.278L15.0283 20.2323ZM15.0412 20.1119C15.0367 20.1596 15.0322 20.1982 15.0283 20.2323L15.4257 20.278C15.4296 20.2437 15.4344 20.2019 15.4394 20.15L15.0412 20.1119ZM21.0802 22.7437C19.1711 21.8167 17.2567 20.8873 15.3276 19.951L15.153 20.3109C17.082 21.2471 18.9963 22.1766 20.9055 23.1035L21.0802 22.7437ZM21.1483 22.7767L21.0802 22.7437L20.9055 23.1035L20.9736 23.1366L21.1483 22.7767ZM21.1724 22.7885L21.1483 22.7767L20.9736 23.1366L20.9977 23.1483L21.1724 22.7885ZM28.1825 16.1274L28.1815 16.1268L28.0064 16.4865L28.0075 16.487L28.1825 16.1274ZM28.1834 16.1278L28.1825 16.1274L28.0075 16.487L28.0083 16.4874L28.1834 16.1278ZM28.9636 16.508C28.7004 16.38 28.4407 16.2533 28.1835 16.1278L28.0082 16.4874C28.2653 16.6128 28.5252 16.7395 28.7886 16.8677L28.9636 16.508ZM25.1993 18.6975C26.4251 18.1027 27.651 17.5068 28.9637 16.8677L28.7886 16.508C27.4761 17.1471 26.2504 17.7429 25.0247 18.3376L25.1993 18.6975ZM23.8366 19.3581C24.2908 19.1381 24.7451 18.918 25.1993 18.6974L25.0246 18.3376C24.5706 18.5581 24.1164 18.7781 23.6622 18.9981L23.8366 19.3581ZM23.8277 19.3625L23.8366 19.3581L23.6623 18.9981L23.6533 19.0025L23.8277 19.3625ZM23.8258 19.3634L23.8276 19.3625L23.6534 19.0024L23.6516 19.0033L23.8258 19.3634ZM23.8281 19.3622L23.8282 19.3622L23.6493 19.0044L23.6492 19.0044L23.8281 19.3622ZM23.8281 19.3622L23.8281 19.3622L23.6492 19.0044L23.6492 19.0045L23.8281 19.3622ZM20.2543 21.103C21.4421 20.5181 22.6334 19.941 23.8258 19.3633L23.6515 19.0034C22.4592 19.5809 21.2668 20.1586 20.0776 20.7442L20.2543 21.103ZM19.4468 21.1038C19.5795 21.1697 19.7114 21.2087 19.8517 21.2081C19.9917 21.2075 20.123 21.1677 20.2543 21.103L20.0776 20.7442C19.9828 20.7909 19.9121 20.8078 19.8501 20.8081C19.7885 20.8083 19.7185 20.7921 19.625 20.7456L19.4468 21.1038ZM16.9206 19.868C17.7816 20.2852 18.6164 20.6898 19.4467 21.1037L19.6252 20.7457C18.7926 20.3306 17.9557 19.9251 17.095 19.508L16.9206 19.868ZM16.9205 19.868L16.9208 19.8681L17.0948 19.5079L17.0945 19.5078L16.9205 19.868ZM15.8921 19.3689C16.2396 19.538 16.582 19.7039 16.9203 19.8679L17.0948 19.5079C16.7564 19.3439 16.4143 19.1782 16.0672 19.0092L15.8921 19.3689ZM16.0215 18.9456L15.8914 19.0096L16.0679 19.3685L16.1981 19.3045L16.0215 18.9456ZM16.6714 18.6273C16.4659 18.7269 16.2605 18.828 16.0215 18.9456L16.1981 19.3045C16.4373 19.1868 16.6416 19.0863 16.8458 18.9873L16.6714 18.6273ZM17.7968 18.081L16.6713 18.6274L16.846 18.9873L17.9715 18.4408L17.7968 18.081ZM24.6202 14.7774C22.3426 15.8738 20.0699 16.9773 17.7968 18.081L17.9715 18.4408C20.2447 17.3371 22.5168 16.2339 24.7937 15.1378L24.6202 14.7774ZM25.2671 14.7244C25.1538 14.6716 25.0244 14.6724 24.9222 14.6865C24.8152 14.7013 24.7074 14.7351 24.6197 14.7777L24.7942 15.1376C24.8447 15.1131 24.9121 15.0917 24.977 15.0827C25.0468 15.0731 25.0862 15.0814 25.0982 15.087L25.2671 14.7244ZM28.1816 16.1269C27.1871 15.6418 26.2308 15.1754 25.2675 14.7246L25.0979 15.0869C26.0578 15.5361 27.0112 16.0011 28.0062 16.4864L28.1816 16.1269ZM21.0578 21.8766C21.346 22.0169 21.6308 22.156 21.9131 22.2939L22.0887 21.9345C21.8064 21.7966 21.5214 21.6574 21.2328 21.517L21.0578 21.8766ZM27.4869 18.396C25.3675 19.4244 23.2481 20.4528 21.0579 21.5169L21.2327 21.8767C23.4228 20.8126 25.5421 19.7843 27.6616 18.7559L27.4869 18.396ZM28.0873 18.103C27.887 18.201 27.687 18.2988 27.4869 18.396L27.6616 18.7558C27.8624 18.6583 28.0628 18.5603 28.263 18.4624L28.0873 18.103ZM28.0878 18.1028L28.0872 18.1031L28.2631 18.4623L28.2637 18.4621L28.0878 18.1028ZM29.8059 17.2783C29.2282 17.545 28.6567 17.8245 28.0878 18.1028L28.2636 18.4621C28.8332 18.1835 29.4006 17.906 29.9736 17.6415L29.8059 17.2783ZM30.4544 17.2474C30.3456 17.1965 30.221 17.1894 30.1162 17.1984C30.0085 17.2076 29.8984 17.236 29.8065 17.2781L29.973 17.6418C30.0204 17.6201 30.0855 17.6025 30.1505 17.5969C30.2186 17.591 30.2643 17.6001 30.2851 17.6098L30.4544 17.2474ZM33.2007 18.5703C32.2754 18.1187 31.3683 17.676 30.4547 17.2475L30.2848 17.6097C31.1952 18.0366 32.0995 18.478 33.0252 18.9298L33.2007 18.5703ZM33.2012 18.5706L33.2005 18.5703L33.0254 18.9299L33.0261 18.9302L33.2012 18.5706ZM33.2015 18.5707L33.2009 18.5705L33.0263 18.9303L33.0269 18.9306L33.2015 18.5707ZM34.081 18.9995C33.7856 18.8558 33.4928 18.7129 33.2019 18.5709L33.0265 18.9304C33.3174 19.0724 33.6103 19.2154 33.9061 19.3592L34.081 18.9995ZM33.9882 19.4192C34.0228 19.3969 34.058 19.3743 34.0976 19.3501L33.8895 19.0085C33.845 19.0356 33.8058 19.0609 33.7715 19.083L33.9882 19.4192ZM33.7928 19.5344C33.863 19.5002 33.9272 19.4585 33.9882 19.4192L33.7715 19.083C33.7063 19.1251 33.6626 19.1529 33.6178 19.1747L33.7928 19.5344ZM25.382 23.6082C28.1886 22.2553 30.9908 20.8948 33.7927 19.5344L33.618 19.1746C30.816 20.535 28.0143 21.8953 25.2083 23.2479L25.382 23.6082ZM24.7669 23.6698C24.8804 23.7228 25.008 23.7157 25.1023 23.6991C25.203 23.6815 25.3024 23.6465 25.3817 23.6084L25.2087 23.2478C25.1573 23.2724 25.0927 23.2947 25.0332 23.3052C25.0038 23.3103 24.9794 23.3119 24.9609 23.311C24.9418 23.3101 24.9351 23.3069 24.9363 23.3074L24.7669 23.6698ZM21.9133 22.294C22.881 22.7666 23.8201 23.2252 24.7666 23.6697L24.9366 23.3076C23.9934 22.8647 23.057 22.4074 22.0888 21.9345L21.9133 22.294ZM21.9141 22.2944L21.9143 22.2945L22.0878 21.9341L22.0877 21.934L21.9141 22.2944ZM11.9166 37.4111C12.9499 38.5019 14.0087 39.3769 15.1707 40.1228L15.3868 39.7862C14.2529 39.0583 13.2189 38.2043 12.207 37.136L11.9166 37.4111ZM12.3746 37.0965C12.29 37.0904 12.1942 37.0835 12.0777 37.0742L12.0458 37.4729C12.164 37.4824 12.2613 37.4894 12.3459 37.4955L12.3746 37.0965ZM12.3712 37.0963L12.3711 37.0963L12.3495 37.4957L12.3496 37.4957L12.3712 37.0963ZM12.3766 37.0967L12.3763 37.0967L12.3444 37.4954L12.3447 37.4954L12.3766 37.0967ZM12.6693 37.1199C12.5769 37.1111 12.4845 37.1044 12.375 37.0966L12.3463 37.4955C12.4568 37.5035 12.5444 37.5098 12.6313 37.5181L12.6693 37.1199ZM13.9012 37.2532C13.4916 37.2086 13.0817 37.164 12.6716 37.1201L12.629 37.5178C13.0387 37.5617 13.4482 37.6063 13.8579 37.6508L13.9012 37.2532ZM13.9048 37.2536L13.9046 37.2536L13.8545 37.6504L13.8546 37.6504L13.9048 37.2536ZM13.9049 37.2536L13.9048 37.2536L13.8546 37.6504L13.8548 37.6505L13.9049 37.2536ZM15.7283 37.4496C15.1193 37.3857 14.5107 37.3195 13.9015 37.2532L13.8582 37.6509C14.4673 37.7171 15.0767 37.7835 15.6866 37.8475L15.7283 37.4496ZM16.2002 37.1546C16.1816 37.267 16.1308 37.3414 16.0627 37.3876C15.992 37.4354 15.8829 37.4659 15.7284 37.4497L15.6865 37.8474C15.9111 37.8711 16.1205 37.8315 16.2869 37.7188C16.4558 37.6045 16.5605 37.4282 16.5948 37.2197L16.2002 37.1546ZM15.8587 36.7461C15.9985 36.7621 16.0889 36.819 16.1406 36.8851C16.1923 36.9512 16.2185 37.0429 16.2001 37.1548L16.5949 37.2195C16.6295 37.0082 16.5827 36.8012 16.4557 36.6387C16.3287 36.4763 16.1345 36.3749 15.9039 36.3487L15.8587 36.7461ZM10.7123 36.1921C12.4284 36.3659 14.1435 36.5517 15.8588 36.7462L15.9039 36.3487C14.1873 36.1541 12.4705 35.9682 10.7526 35.7941L10.7123 36.1921ZM10.2488 36.5832C10.2676 36.4104 10.3211 36.3138 10.3822 36.2616C10.4413 36.2111 10.5401 36.1746 10.7122 36.1921L10.7527 35.7941C10.5101 35.7695 10.2898 35.8145 10.1224 35.9574C9.95697 36.0987 9.87653 36.3073 9.85113 36.5398L10.2488 36.5832ZM9.69594 41.6937C9.87624 39.99 10.0609 38.2862 10.2487 36.5834L9.85115 36.5395C9.66322 38.2428 9.47853 39.9472 9.29816 41.6516L9.69594 41.6937ZM10.0042 42.1588C9.8948 42.1429 9.81557 42.0918 9.7648 42.0204C9.71311 41.9477 9.6807 41.8389 9.69595 41.6935L9.29814 41.6518C9.27451 41.8771 9.32148 42.0871 9.43879 42.2521C9.55702 42.4185 9.73642 42.5241 9.94666 42.5546L10.0042 42.1588ZM10.4173 41.7639C10.3976 41.9239 10.3381 42.0285 10.2705 42.088C10.2054 42.1453 10.1172 42.1749 10.0036 42.1587L9.94722 42.5547C10.1674 42.5861 10.3751 42.5287 10.5346 42.3884C10.6915 42.2505 10.7854 42.0472 10.8143 41.8128L10.4173 41.7639ZM10.5265 40.7983C10.4916 41.1217 10.4568 41.4431 10.4173 41.7638L10.8143 41.8128C10.8543 41.4886 10.8893 41.1642 10.9242 40.8413L10.5265 40.7983ZM10.5266 40.7978L10.5265 40.7984L10.9242 40.8413L10.9243 40.8407L10.5266 40.7978ZM10.579 40.3181C10.5611 40.4782 10.5438 40.6382 10.5266 40.7978L10.9243 40.8407C10.9415 40.6811 10.9588 40.5218 10.9766 40.3625L10.579 40.3181ZM10.8512 37.9124L10.5791 40.3178L10.9765 40.3628L11.2487 37.9574L10.8512 37.9124ZM11.2876 37.881C11.2585 37.8546 11.2254 37.8246 11.1855 37.7879L10.9143 38.0819C10.9556 38.12 10.9898 38.151 11.019 38.1774L11.2876 37.881ZM11.2862 37.8798L11.2861 37.8797L11.0204 38.1787L11.0204 38.1787L11.2862 37.8798ZM11.2911 37.8843L11.291 37.8842L11.0156 38.1743L11.0157 38.1744L11.2911 37.8843ZM11.416 38.001C11.3771 37.962 11.3366 37.9255 11.2877 37.8811L11.0191 38.1775C11.0699 38.2236 11.1025 38.2532 11.1331 38.2838L11.416 38.001ZM26.59 43.7403C20.6564 44.1725 15.6063 42.2241 11.4165 38.0015L11.1326 38.2833C15.4026 42.5866 20.5661 44.5801 26.6191 44.1392L26.59 43.7403ZM36.8807 39.5946C33.9562 42.1196 30.456 43.4589 26.5901 43.7403L26.6191 44.1392C30.5629 43.8522 34.1467 42.4836 37.1421 39.8974L36.8807 39.5946ZM43.1899 20.1246C44.0726 24.0037 43.9955 27.5731 42.9514 30.8179C41.9074 34.0625 39.8927 36.9951 36.8808 39.5946L37.1421 39.8974C40.2013 37.2571 42.2626 34.2648 43.3322 30.9404C44.4017 27.6163 44.4758 23.9728 43.5799 20.0359L43.1899 20.1246ZM42.6226 18.3674C42.8421 18.9571 43.0561 19.5331 43.1898 20.1244L43.58 20.0361C43.4394 19.4142 43.2153 18.8132 42.9975 18.2279L42.6226 18.3674ZM42.6243 18.3719L42.6243 18.372L42.9957 18.2234L42.9957 18.2234L42.6243 18.3719ZM42.6203 18.3609L42.6203 18.3609L42.9998 18.2344L42.9997 18.2344L42.6203 18.3609ZM42.418 17.8102C42.4846 17.9968 42.5539 18.1828 42.6226 18.3674L42.9975 18.2279C42.9286 18.0428 42.8603 17.8593 42.7947 17.6756L42.418 17.8102ZM41.9594 17.5856C42.0868 17.5404 42.1782 17.5514 42.2419 17.5832C42.3072 17.6158 42.3728 17.685 42.4182 17.8108L42.7944 17.675C42.7232 17.4778 42.5993 17.3146 42.4205 17.2254C42.2402 17.1353 42.033 17.135 41.8256 17.2087L41.9594 17.5856ZM41.7498 18.0693C41.7127 17.9312 41.7193 17.8293 41.7491 17.7591C41.7765 17.6946 41.8344 17.6306 41.9601 17.5854L41.8249 17.2089C41.6137 17.2848 41.4594 17.418 41.3809 17.6028C41.3049 17.7819 41.3121 17.9815 41.3635 18.173L41.7498 18.0693ZM41.8595 18.3772C41.8155 18.2665 41.7766 18.1683 41.7497 18.0689L41.3636 18.1734C41.3975 18.2986 41.4453 18.4181 41.4878 18.525L41.8595 18.3772ZM41.91 18.5064C41.8934 18.4624 41.8761 18.4189 41.8595 18.3772L41.4878 18.525C41.5046 18.5673 41.5207 18.6076 41.5359 18.6479L41.91 18.5064ZM42.2911 30.2672C43.5018 26.3128 43.3661 22.3816 41.9102 18.5068L41.5357 18.6475C42.961 22.4406 43.0931 26.2811 41.9086 30.1501L42.2911 30.2672ZM26.4625 42.9786C33.848 42.4005 40.1203 37.3553 42.2911 30.2672L41.9086 30.1501C39.7858 37.0817 33.6523 42.0146 26.4313 42.5798L26.4625 42.9786ZM15.1708 40.1229C18.614 42.331 22.3904 43.2976 26.4625 42.9786L26.4313 42.5798C22.4475 42.8919 18.7576 41.948 15.3867 39.7862L15.1708 40.1229ZM21.3212 27.2134C21.239 27.1843 21.1695 27.1612 21.1101 27.1415L20.9841 27.5212C21.0435 27.5409 21.1097 27.5629 21.1877 27.5905L21.3212 27.2134ZM21.2605 27.1164C21.2115 27.1619 21.1555 27.2135 21.1066 27.2673L21.4023 27.5366C21.4377 27.4977 21.4805 27.4579 21.5324 27.4098L21.2605 27.1164ZM21.5042 26.8284C21.4697 26.9174 21.3862 27 21.2605 27.1164L21.5324 27.4098C21.6404 27.3097 21.8029 27.1644 21.8772 26.9731L21.5042 26.8284ZM21.2666 26.4402C21.379 26.4944 21.4543 26.5605 21.4923 26.6243C21.5255 26.6802 21.5368 26.7438 21.504 26.8289L21.8774 26.9726C21.9544 26.7723 21.9316 26.5805 21.8361 26.4198C21.7452 26.2671 21.5971 26.1556 21.4406 26.08L21.2666 26.4402ZM20.6967 26.1648C20.8866 26.2566 21.0766 26.3484 21.2667 26.4402L21.4406 26.08C21.2506 25.9882 21.0607 25.8965 20.8708 25.8047L20.6967 26.1648ZM18.3942 25.0573C19.1631 25.4235 19.9293 25.7939 20.6967 26.1648L20.8708 25.8047C20.1035 25.4338 19.3363 25.063 18.5661 24.6962L18.3942 25.0573ZM17.8139 25.1826C17.8681 25.0685 17.9404 25.0131 18.0194 24.9921C18.1039 24.9696 18.2281 24.9782 18.3941 25.0573L18.5662 24.6962C18.345 24.5908 18.1209 24.5511 17.9164 24.6056C17.7063 24.6615 17.5488 24.8085 17.4526 25.011L17.8139 25.1826ZM18.1041 25.7092C17.9281 25.623 17.838 25.5299 17.7999 25.4503C17.7655 25.3783 17.7615 25.2929 17.8139 25.1826L17.4526 25.011C17.3567 25.2129 17.3448 25.4259 17.4391 25.623C17.5298 25.8125 17.7053 25.9593 17.9282 26.0684L18.1041 25.7092ZM20.8645 27.0501C19.9433 26.606 19.0232 26.1586 18.104 25.7091L17.9283 26.0684C18.848 26.5182 19.7689 26.9659 20.6908 27.4104L20.8645 27.0501ZM21.1101 27.1415C20.9955 27.1035 20.9273 27.0805 20.8649 27.0503L20.6904 27.4102C20.7811 27.4541 20.876 27.4853 20.9841 27.5212L21.1101 27.1415Z" fill="#01C0CC" mask="url(#path-1-outside-1_4415_923)"/>
</svg>
