<svg width="50" height="50" viewBox="0 0 50 50" fill="none" xmlns="http://www.w3.org/2000/svg">
<g clip-path="url(#clip0_2448_17967)">
<path d="M29.4685 18.7355C29.4685 18.0145 29.4795 17.3627 29.4649 16.7109C29.4563 16.3206 29.6079 16.0507 29.9416 15.8464C33.0375 13.9568 36.1298 12.0636 39.2197 10.1643C39.5729 9.9466 39.8907 9.94295 40.2439 10.1594C43.3338 12.0575 46.4273 13.952 49.5233 15.8403C49.8949 16.0677 50.011 16.3778 50.0024 16.7961C49.9206 21.0288 48.6971 24.8299 45.7783 28.0047C45.6561 28.1373 45.6109 28.3841 45.6097 28.5787C45.5999 32.7275 45.6035 36.8751 45.6023 41.0239C45.6023 43.4887 44.0843 44.9989 41.6092 44.9989C31.0697 44.9989 20.5314 44.9989 9.99189 44.9989C7.5156 45.0001 6 43.4899 6 41.0215C6 34.9284 6 28.8352 6 22.7421C6 20.236 7.50093 18.7355 10.0066 18.7355C16.3452 18.7355 22.6838 18.7355 29.0224 18.7355C29.1886 18.7355 29.3536 18.7355 29.4685 18.7355ZM44.1344 29.5174C43.9816 29.6256 43.8973 29.6827 43.8154 29.7435C42.7288 30.5376 41.5787 31.2161 40.3185 31.711C39.9262 31.8654 39.5729 31.886 39.1745 31.7207C35.0359 30.0062 32.1477 27.0806 30.5649 22.9062C30.2337 22.0332 30.0137 21.12 29.7374 20.208C29.6604 20.2044 29.57 20.1971 29.4795 20.1971C22.8952 20.1971 16.311 20.1934 9.72666 20.1995C8.41396 20.2007 7.46915 21.1382 7.46793 22.4442C7.46304 28.7209 7.46304 34.9977 7.46793 41.2744C7.46915 42.6047 8.41029 43.541 9.7511 43.541C20.4446 43.5446 31.1381 43.5446 41.8317 43.541C43.2018 43.541 44.1246 42.6108 44.1307 41.2428C44.1368 39.9515 44.1319 38.6589 44.1319 37.3676C44.1344 34.7824 44.1344 32.1998 44.1344 29.5174ZM30.879 17.4417C31.0526 18.5349 31.1516 19.6463 31.4144 20.7175C32.49 25.0937 35.108 28.2333 39.2087 30.1533C39.568 30.3211 39.8846 30.3758 40.2378 30.157C41.2706 29.5162 42.3915 28.9872 43.3326 28.2345C46.8539 25.4196 48.3561 21.621 48.5088 17.2216C48.5137 17.0672 48.3426 16.8471 48.1923 16.7547C45.496 15.0889 42.7887 13.44 40.0899 11.7766C39.8357 11.6198 39.6597 11.6064 39.3945 11.7705C36.7116 13.4291 34.0214 15.0767 31.3227 16.7109C31.0196 16.8933 30.8607 17.0806 30.879 17.4417Z" fill="#01C0CC"/>
<path d="M19.9333 28.9496C17.0915 28.9496 14.2498 28.9496 11.408 28.9496C10.6282 28.9496 10.3997 28.7222 10.3997 27.9464C10.3984 26.6392 10.3972 25.3321 10.4009 24.0249C10.4021 23.3695 10.6576 23.1142 11.3164 23.1142C17.061 23.113 22.8043 23.113 28.5489 23.1142C29.2077 23.1142 29.4644 23.3708 29.4656 24.0237C29.4693 25.3613 29.4693 26.6988 29.4656 28.0364C29.4644 28.6906 29.2065 28.9483 28.5502 28.9483C25.6779 28.9508 22.8056 28.9496 19.9333 28.9496ZM27.9806 24.605C22.5904 24.605 17.2406 24.605 11.8884 24.605C11.8884 25.5741 11.8884 26.5091 11.8884 27.4661C17.2602 27.4661 22.61 27.4661 27.9806 27.4661C27.9806 26.5055 27.9806 25.5692 27.9806 24.605Z" fill="#01C0CC"/>
<path d="M21.4017 35.5154C24.7018 35.5154 28.0019 35.5154 31.3019 35.5154C31.4547 35.5154 31.6112 35.5008 31.7591 35.5263C32.1539 35.5968 32.3922 35.8413 32.3922 36.2437C32.3922 36.6474 32.1526 36.8894 31.7578 36.9611C31.61 36.9879 31.4535 36.9733 31.3007 36.9733C24.7005 36.9733 18.1016 36.9733 11.5014 36.9733C11.4562 36.9733 11.4097 36.9733 11.3645 36.9733C10.746 36.9697 10.405 36.7094 10.4063 36.2425C10.4063 35.7756 10.7448 35.5142 11.3657 35.5142C14.7098 35.5154 18.0564 35.5154 21.4017 35.5154Z" fill="#01C0CC"/>
<path d="M21.4004 39.1633C24.7005 39.1633 28.0006 39.1633 31.3007 39.1633C31.4535 39.1633 31.61 39.1487 31.7578 39.1743C32.1526 39.2448 32.391 39.4892 32.391 39.8917C32.391 40.2954 32.1514 40.5374 31.7578 40.6091C31.61 40.6358 31.4535 40.6213 31.3007 40.6213C24.7005 40.6213 18.1016 40.6213 11.5014 40.6213C11.4562 40.6213 11.4097 40.6213 11.3645 40.6213C10.746 40.6176 10.405 40.3586 10.4063 39.8917C10.4063 39.4235 10.7448 39.1633 11.3657 39.1633C14.7086 39.1633 18.0539 39.1633 21.4004 39.1633Z" fill="#01C0CC"/>
<path d="M35.336 37.679C35.3445 36.0727 36.678 34.7729 38.3036 34.7862C39.8999 34.7996 41.2004 36.1104 41.2004 37.7045C41.2004 39.3157 39.873 40.6301 38.2559 40.6216C36.6377 40.6131 35.3274 39.2938 35.336 37.679ZM39.7324 37.7118C39.7373 36.9166 39.0895 36.26 38.2877 36.2466C37.4957 36.2332 36.8174 36.8862 36.8039 37.6729C36.7905 38.4888 37.4541 39.1612 38.2718 39.16C39.0712 39.1588 39.7275 38.5071 39.7324 37.7118Z" fill="#01C0CC"/>
<path d="M14.0654 33.3269C13.1488 33.3269 12.2321 33.3294 11.3154 33.3257C10.7372 33.3233 10.4023 33.0521 10.4023 32.5974C10.4023 32.1414 10.736 31.869 11.3154 31.869C13.1488 31.8666 14.9821 31.8666 16.8143 31.869C17.3924 31.8702 17.7285 32.1414 17.7285 32.5962C17.7285 33.0497 17.3924 33.3233 16.8155 33.3257C15.8988 33.3294 14.9821 33.3269 14.0654 33.3269Z" fill="#01C0CC"/>
<path d="M22.1613 33.3268C21.4585 33.3268 20.7557 33.3316 20.0529 33.3255C19.5224 33.3207 19.1924 33.0228 19.2034 32.5802C19.2144 32.1534 19.5322 31.8737 20.0431 31.8713C21.4328 31.8652 22.8237 31.8652 24.2134 31.8713C24.7439 31.8737 25.0751 32.1728 25.0629 32.6166C25.0519 33.0434 24.7329 33.3219 24.2232 33.3268C23.5351 33.3316 22.8482 33.3268 22.1613 33.3268Z" fill="#01C0CC"/>
<path d="M32.4375 18.0654C32.5524 17.9158 32.6783 17.6179 32.9032 17.478C35.0103 16.1612 37.1346 14.8747 39.2516 13.5736C39.5901 13.3657 39.9067 13.3815 40.2379 13.5846C42.3304 14.8662 44.4217 16.149 46.5191 17.4233C46.8736 17.6386 47.0239 17.9207 46.9787 18.3316C46.4849 22.9012 44.3093 26.3642 40.1976 28.5602C39.8566 28.7426 39.5413 28.7147 39.2002 28.5323C35.6019 26.6099 33.4544 23.6356 32.6807 19.6631C32.5878 19.1852 32.5328 18.7025 32.4375 18.0654ZM45.4716 18.6186C45.4093 18.5542 45.3189 18.4119 45.1893 18.3329C43.4659 17.2701 41.7389 16.211 40.002 15.1689C39.8713 15.0911 39.6158 15.0802 39.4899 15.1568C37.7409 16.2074 36.0016 17.275 34.2709 18.356C34.145 18.435 34.0228 18.6648 34.0423 18.8047C34.5434 22.3917 36.3072 25.1604 39.474 27.0002C39.5987 27.0719 39.8358 27.078 39.958 27.0075C43.1677 25.1617 44.9216 22.3552 45.4716 18.6186Z" fill="#01C0CC"/>
<path d="M38.9669 22.1304C38.6577 21.7912 38.4047 21.4872 38.1248 21.2112C37.7606 20.8525 37.3413 20.8342 37.0309 21.1322C36.707 21.4422 36.7302 21.8702 37.1054 22.2545C37.499 22.657 37.9011 23.0509 38.302 23.4461C38.841 23.9787 39.1637 23.9836 39.6942 23.4571C40.6671 22.4928 41.6363 21.5261 42.6068 20.5594C42.8219 20.3442 43.0529 20.1411 43.2399 19.9028C43.4905 19.5855 43.4673 19.2413 43.1813 18.9556C42.8965 18.6711 42.5591 18.6553 42.2279 18.8911C42.1057 18.9787 42.0018 19.0942 41.8942 19.2024C40.9482 20.1497 40.0022 21.0957 38.9669 22.1304Z" fill="white"/>
<path d="M38.9669 22.1302C40.0022 21.0954 40.9482 20.1494 41.8942 19.2034C42.0018 19.0964 42.1045 18.9797 42.2279 18.8921C42.5591 18.6562 42.8965 18.672 43.1813 18.9566C43.466 19.2411 43.4905 19.5852 43.2399 19.9038C43.0529 20.1409 42.8231 20.3452 42.6068 20.5604C41.6375 21.5271 40.6671 22.4938 39.6942 23.458C39.1637 23.9845 38.8398 23.9797 38.302 23.4471C37.9023 23.0507 37.499 22.6579 37.1054 22.2555C36.7302 21.8712 36.707 21.4444 37.0309 21.1331C37.3413 20.8352 37.7606 20.8535 38.1248 21.2122C38.4047 21.4882 38.6577 21.791 38.9669 22.1302Z" fill="#01C0CC"/>
</g>
<defs>
<clipPath id="clip0_2448_17967">
<rect width="44" height="35" fill="white" transform="translate(6 10)"/>
</clipPath>
</defs>
</svg>
