<svg width="15" height="13" viewBox="0 0 17 15" fill="none" xmlns="http://www.w3.org/2000/svg">
<path d="M1 11.8688C0.668629 11.8688 0.4 12.1374 0.4 12.4688C0.4 12.8001 0.668629 13.0688 1 13.0688V11.8688ZM3.53654 13.0688C3.86791 13.0688 4.13654 12.8001 4.13654 12.4688C4.13654 12.1374 3.86791 11.8688 3.53654 11.8688V13.0688ZM13.6514 11.8688C13.32 11.8688 13.0514 12.1374 13.0514 12.4688C13.0514 12.8001 13.32 13.0688 13.6514 13.0688V11.8688ZM16 7.12501H16.6C16.6 6.79363 16.3314 6.52501 16 6.52501V7.12501ZM8.98536 7.12501H8.38536C8.38536 7.45638 8.65399 7.72501 8.98536 7.72501V7.12501ZM8.98536 1H9.58536C9.58536 0.668629 9.31673 0.4 8.98536 0.4V1ZM2.87888 0.4C2.5475 0.4 2.27888 0.668629 2.27888 1C2.27888 1.33137 2.5475 1.6 2.87888 1.6V0.4ZM12.2735 1.87502L12.7637 1.52909C12.6513 1.36977 12.4685 1.27502 12.2735 1.27502V1.87502ZM2.65961 2.80624C2.32824 2.80624 2.05961 3.07487 2.05961 3.40624C2.05961 3.73761 2.32824 4.00624 2.65961 4.00624V2.80624ZM6.57402 4.00624C6.90539 4.00624 7.17402 3.73761 7.17402 3.40624C7.17402 3.07487 6.90539 2.80624 6.57402 2.80624V4.00624ZM1.68888 5.27504C1.35751 5.27504 1.08888 5.54367 1.08888 5.87504C1.08888 6.20641 1.35751 6.47504 1.68888 6.47504V5.27504ZM5.60329 6.47504C5.93466 6.47504 6.20329 6.20641 6.20329 5.87504C6.20329 5.54367 5.93466 5.27504 5.60329 5.27504V6.47504ZM1.12519 7.74376C0.793816 7.74376 0.525187 8.01239 0.525187 8.34376C0.525187 8.67513 0.793816 8.94376 1.12519 8.94376V7.74376ZM5.0396 8.94376C5.37097 8.94376 5.6396 8.67513 5.6396 8.34376C5.6396 8.01239 5.37097 7.74376 5.0396 7.74376V8.94376ZM7.10649 13.0688H10.1128V11.8688H7.10649V13.0688ZM1 13.0688H3.53654V11.8688H1V13.0688ZM13.6514 13.0688H14.1211V11.8688H13.6514V13.0688ZM14.1211 13.0688C15.4847 13.0688 16.6 11.9576 16.6 10.5938H15.4C15.4 11.2925 14.8243 11.8688 14.1211 11.8688V13.0688ZM16.6 10.5938V7.12501H15.4V10.5938H16.6ZM16 6.52501H8.98536V7.72501H16V6.52501ZM9.58536 7.12501V1H8.38536V7.12501H9.58536ZM8.98536 0.4H2.87888V1.6H8.98536V0.4ZM8.67221 2.47502H12.2735V1.27502H8.67221V2.47502ZM11.7832 2.22094L15.5098 7.5022L16.4902 6.81036L12.7637 1.52909L11.7832 2.22094ZM6.5064 12.2187C6.5064 12.8618 5.98648 13.4 5.32142 13.4V14.6C6.66055 14.6 7.7064 13.5132 7.7064 12.2187H6.5064ZM5.32142 13.4C4.64952 13.4 4.13645 12.8862 4.13645 12.2187H2.93645C2.93645 13.5513 3.98914 14.6 5.32142 14.6V13.4ZM4.13645 12.2187C4.13645 11.5757 4.65637 11.0375 5.32142 11.0375V9.8375C3.9823 9.8375 2.93645 10.9243 2.93645 12.2187H4.13645ZM5.32142 11.0375C5.98648 11.0375 6.5064 11.5757 6.5064 12.2187H7.7064C7.7064 10.9243 6.66055 9.8375 5.32142 9.8375V11.0375ZM13.0514 12.2187C13.0514 12.8618 12.5314 13.4 11.8664 13.4V14.6C13.2055 14.6 14.2514 13.5132 14.2514 12.2187H13.0514ZM11.8664 13.4C11.2189 13.4 10.6814 12.8794 10.6814 12.2187H9.4814C9.4814 13.5581 10.5723 14.6 11.8664 14.6V13.4ZM10.6814 12.2187C10.6814 11.5757 11.2013 11.0375 11.8664 11.0375V9.8375C10.5273 9.8375 9.4814 10.9243 9.4814 12.2187H10.6814ZM11.8664 11.0375C12.5314 11.0375 13.0514 11.5757 13.0514 12.2187H14.2514C14.2514 10.9243 13.2055 9.8375 11.8664 9.8375V11.0375ZM2.65961 4.00624H6.57402V2.80624H2.65961V4.00624ZM1.68888 6.47504H5.60329V5.27504H1.68888V6.47504ZM1.12519 8.94376H5.0396V7.74376H1.12519V8.94376Z" fill="#01C0CC"/>
</svg>
