<svg width="50" height="50" viewBox="0 0 50 50" fill="none" xmlns="http://www.w3.org/2000/svg">
<path d="M35.0568 32.374C33.95 32.1703 33.215 31.5908 32.9436 30.5136C32.8834 30.2757 32.8844 30.0188 32.8834 29.7704C32.8786 27.7007 32.8805 25.631 32.8805 23.5623C32.8805 22.0398 33.4492 21.2918 34.9153 20.8817C34.9478 20.8722 34.9784 20.8531 35.0071 20.8398C34.7165 14.0284 28.874 7.74409 21.0416 7.73076C13.1567 7.71649 7.30655 14.0198 6.99116 20.8484C7.08864 20.875 7.189 20.9055 7.29031 20.9302C8.34068 21.1871 9.1005 22.0588 9.11101 23.1265C9.13395 25.4455 9.14351 27.7655 9.1091 30.0835C9.08712 31.6003 7.72135 32.6014 6.13958 32.3312C4.35997 32.0276 3.06015 30.5622 3.02479 28.7599C2.99612 27.3211 2.98656 25.8804 3.02766 24.4425C3.0678 23.0522 3.73969 21.9998 4.95349 21.3108C5.15611 21.1957 5.23449 21.0834 5.24787 20.8503C5.64068 13.9798 10.4777 8.15707 17.1833 6.47562C25.9322 4.28127 34.7892 9.90323 36.4894 18.7397C36.6242 19.4381 36.6863 20.1509 36.7561 20.8598C36.7771 21.0701 36.8326 21.19 37.0275 21.2994C38.2996 22.0122 38.9582 23.1112 38.984 24.5596C39.0078 25.9146 39.0021 27.2716 38.9859 28.6276C38.9677 30.0911 38.3149 31.2035 37.0304 31.9239C36.8259 32.0381 36.7848 32.1656 36.781 32.374C36.7685 33.2171 36.824 34.0726 36.7007 34.9004C36.3298 37.3946 34.1956 39.2111 31.6543 39.2644C30.8543 39.2815 30.0534 39.2739 29.2535 39.2654C29.0652 39.2635 28.9658 39.313 28.874 39.4947C28.3818 40.4767 27.5752 40.9858 26.4665 40.9944C25.6063 41.0011 24.7461 41.003 23.886 40.9935C22.4208 40.9763 21.3093 39.9039 21.2615 38.4727C21.2146 37.0786 22.2727 35.9091 23.7177 35.8359C24.6945 35.7864 25.677 35.7968 26.6548 35.832C27.687 35.8692 28.422 36.402 28.8874 37.3175C28.9371 37.4145 29.0556 37.5449 29.1416 37.544C30.1318 37.542 31.1296 37.5868 32.1112 37.4831C33.7254 37.3137 35.0033 35.8615 35.0539 34.2477C35.073 33.632 35.0568 33.0144 35.0568 32.374ZM37.2665 26.6188C37.2665 25.9175 37.2808 25.2152 37.2627 24.5148C37.2349 23.4472 36.3814 22.585 35.3617 22.5707C34.8838 22.5641 34.6066 22.802 34.6047 23.273C34.5971 25.4959 34.5971 27.7198 34.6038 29.9427C34.6057 30.4299 34.8876 30.6706 35.3846 30.6554C36.4101 30.6231 37.2407 29.7628 37.2627 28.6885C37.2789 27.9986 37.2674 27.3087 37.2665 26.6188ZM7.40308 26.6464C7.40308 25.5644 7.40308 24.4825 7.40308 23.4005C7.40308 23.3767 7.40308 23.353 7.40308 23.3292C7.38779 22.7963 7.12496 22.5508 6.59165 22.5717C5.60149 22.6107 4.76043 23.4595 4.74419 24.493C4.7222 25.908 4.72316 27.323 4.74419 28.737C4.75948 29.7276 5.54606 30.5603 6.48939 30.6459C7.12783 30.704 7.40022 30.4613 7.40213 29.8209C7.40595 28.7627 7.40308 27.7046 7.40308 26.6464ZM25.182 39.2815C25.6235 39.2815 26.066 39.2892 26.5076 39.2796C27.0371 39.2673 27.3983 38.9076 27.4003 38.4108C27.4012 37.9255 27.06 37.5525 26.5477 37.542C25.6522 37.524 24.7557 37.5249 23.8602 37.5401C23.3278 37.5497 22.9723 37.9303 22.9837 38.4232C22.9952 38.9199 23.3584 39.2692 23.8917 39.2806C24.3218 39.2892 24.7519 39.2825 25.182 39.2815Z" fill="#01C0CC"/>
<path d="M16.4251 28.5817C15.7588 28.5518 15.1542 28.4135 14.6129 28.0663C13.5454 27.3808 13.0173 26.3922 13.012 25.1321C13.0023 22.8967 12.9891 20.6604 13.0155 18.4259C13.0384 16.4152 14.4748 15.0107 16.4788 15.0063C19.8223 14.9975 23.1668 14.9984 26.5112 15.0063C28.517 15.0107 29.9533 16.409 29.978 18.4215C30.0062 20.6675 30.0088 22.9152 29.9771 25.1612C29.9489 27.1834 28.4976 28.5694 26.469 28.5756C25.1382 28.58 23.8066 28.5809 22.4759 28.5721C22.2594 28.5703 22.1089 28.6373 21.9584 28.7897C21.0431 29.7113 20.1251 30.6295 19.1948 31.5362C18.7292 31.9899 18.1607 32.1098 17.5472 31.9001C16.9347 31.6903 16.5633 31.2498 16.4603 30.6074C16.4225 30.3704 16.4277 30.1255 16.4251 29.8832C16.4216 29.4558 16.4251 29.0285 16.4251 28.5817ZM18.0093 30.3475C18.0357 30.3625 18.0621 30.3775 18.0885 30.3925C18.1748 30.3132 18.2628 30.2356 18.3455 30.1537C19.274 29.2303 20.2087 28.3139 21.1249 27.379C21.4004 27.0979 21.6979 26.9807 22.0904 26.9843C23.5197 26.9992 24.949 26.9904 26.3792 26.9904C27.6888 26.9896 28.3991 26.2829 28.4008 24.9735C28.4026 22.8492 28.4026 20.7239 28.4008 18.5995C28.3999 17.2875 27.6967 16.5905 26.3774 16.5905C23.1228 16.5905 19.8681 16.5905 16.6126 16.5905C15.2941 16.5905 14.5945 17.2866 14.5936 18.603C14.5918 20.7274 14.5927 22.8527 14.5945 24.9771C14.5945 25.1198 14.5989 25.2634 14.6147 25.4053C14.7027 26.1992 15.273 26.8213 16.0607 26.9455C16.3732 26.9948 16.6953 26.986 17.0139 26.9896C17.747 26.9975 18.0084 27.2521 18.0102 27.9808C18.0111 28.7685 18.0093 29.558 18.0093 30.3475Z" fill="#01C0CC"/>
<path d="M20.9863 23.9998C20.4411 23.9851 19.9861 23.2782 20.0003 22.4688C20.0153 21.648 20.4884 20.9716 21.0276 21.0009C21.5652 21.0302 22.0045 21.7123 22 22.5094C21.9947 23.3267 21.5269 24.0144 20.9863 23.9998Z" fill="#01C0CC"/>
<path d="M16 22.4855C16.0046 21.6645 16.4715 20.9834 17.0184 21.0003C17.5729 21.0184 18.0111 21.7029 17.9998 22.5351C17.9885 23.3448 17.5389 24.0034 16.9988 24C16.4488 23.9966 15.9948 23.3087 16 22.4855Z" fill="#01C0CC"/>
<path d="M26 22.5128C25.9954 23.3323 25.5272 24.0166 24.982 23.9997C24.4284 23.9828 23.9889 23.2974 24.0002 22.4655C24.0108 21.655 24.4586 20.9978 24.9993 21C25.5491 21.0023 26.0045 21.691 26 22.5128Z" fill="#01C0CC"/>
</svg>
