<svg width="17" height="22" viewBox="0 0 17 22" fill="none" xmlns="http://www.w3.org/2000/svg">
<path fill-rule="evenodd" clip-rule="evenodd" d="M8.48083 20.9988L9.26756 20.1123C10.1603 19.0899 10.9632 18.1199 11.6776 17.1972L12.2674 16.4192C14.7298 13.1015 15.9617 10.4682 15.9617 8.52197C15.9617 4.36762 12.6127 1 8.48083 1C4.34892 1 1 4.36762 1 8.52197C1 10.4682 2.23184 13.1015 4.69428 16.4192L5.28402 17.1972C6.30321 18.5031 7.36951 19.7703 8.48083 20.9988Z" stroke="black" stroke-linecap="round" stroke-linejoin="round"/>
<path d="M8.48127 11.5978C10.2027 11.5978 11.5983 10.2023 11.5983 8.48078C11.5983 6.7593 10.2027 5.36377 8.48127 5.36377C6.75979 5.36377 5.36426 6.7593 5.36426 8.48078C5.36426 10.2023 6.75979 11.5978 8.48127 11.5978Z" stroke="black" stroke-linecap="round" stroke-linejoin="round"/>
</svg>
