<svg width="22" height="18" viewBox="0 0 22 18" fill="none" xmlns="http://www.w3.org/2000/svg">
<path d="M4.33333 3.66667H21L18.8853 11.0667C18.726 11.6237 18.3896 12.1137 17.927 12.4625C17.4644 12.8114 16.9007 13 16.3213 13H7.388C6.73129 13.0004 6.09753 12.7584 5.60816 12.3205C5.11879 11.8825 4.80824 11.2794 4.736 10.6267L3.66667 1H1" stroke="#585858" stroke-linecap="round" stroke-linejoin="round"/>
<path d="M7.00033 17.6669C7.73671 17.6669 8.33366 17.07 8.33366 16.3336C8.33366 15.5972 7.73671 15.0002 7.00033 15.0002C6.26395 15.0002 5.66699 15.5972 5.66699 16.3336C5.66699 17.07 6.26395 17.6669 7.00033 17.6669Z" fill="#585858"/>
<path d="M17.6673 17.6669C18.4037 17.6669 19.0007 17.07 19.0007 16.3336C19.0007 15.5972 18.4037 15.0002 17.6673 15.0002C16.9309 15.0002 16.334 15.5972 16.334 16.3336C16.334 17.07 16.9309 17.6669 17.6673 17.6669Z" fill="#585858"/>
</svg>
