<svg width="155" height="129" viewBox="0 0 155 129" fill="none" xmlns="http://www.w3.org/2000/svg">
<rect x="0.5" y="0.5" width="154" height="128" rx="14.5" fill="#F9F9F9" stroke="#E3E3E3"/>
<path fill-rule="evenodd" clip-rule="evenodd" d="M84 68.7733L85.6827 66.8773C87.592 64.6907 89.3093 62.616 90.8373 60.6427L92.0987 58.9787C97.3653 51.8827 100 46.2507 100 42.088C100 33.2027 92.8373 26 84 26C75.1627 26 68 33.2027 68 42.088C68 46.2507 70.6347 51.8827 75.9013 58.9787L77.1627 60.6427C79.3425 63.4357 81.6231 66.1459 84 68.7733Z" stroke="#8B8B8B" stroke-linecap="round" stroke-linejoin="round"/>
<path d="M84.0007 48.6666C87.6825 48.6666 90.6673 45.6818 90.6673 41.9999C90.6673 38.318 87.6825 35.3333 84.0007 35.3333C80.3188 35.3333 77.334 38.318 77.334 41.9999C77.334 45.6818 80.3188 48.6666 84.0007 48.6666Z" stroke="#8B8B8B" stroke-linecap="round" stroke-linejoin="round"/>
<path d="M52.744 89.432V101.384H52.696L44.2 92.76L44.232 101H42.664V89.08H42.744L51.224 97.8L51.192 89.432H52.744ZM55.1263 97.624C55.1263 96.9733 55.2809 96.3813 55.5903 95.848C55.9103 95.304 56.3476 94.8773 56.9023 94.568C57.4676 94.2587 58.1023 94.104 58.8063 94.104C59.5103 94.104 60.1343 94.2587 60.6783 94.568C61.2329 94.8773 61.6596 95.2987 61.9583 95.832C62.2676 96.3653 62.4223 96.9627 62.4223 97.624C62.4223 98.2853 62.2676 98.888 61.9583 99.432C61.6596 99.9653 61.2329 100.387 60.6783 100.696C60.1236 101.005 59.4889 101.16 58.7743 101.16C58.0809 101.16 57.4569 101.016 56.9023 100.728C56.3476 100.429 55.9103 100.013 55.5903 99.48C55.2809 98.9467 55.1263 98.328 55.1263 97.624ZM56.6303 97.64C56.6303 98.056 56.7209 98.44 56.9023 98.792C57.0943 99.144 57.3503 99.4213 57.6703 99.624C58.0009 99.8267 58.3636 99.928 58.7583 99.928C59.3769 99.928 59.8889 99.7093 60.2943 99.272C60.6996 98.8347 60.9023 98.2907 60.9023 97.64C60.9023 96.9893 60.6996 96.4453 60.2943 96.008C59.8889 95.56 59.3769 95.336 58.7583 95.336C58.3529 95.336 57.9903 95.4427 57.6703 95.656C57.3503 95.8587 57.0943 96.136 56.9023 96.488C56.7209 96.84 56.6303 97.224 56.6303 97.64ZM75.9155 97.96H71.4675L70.2355 101H68.6995L73.7555 88.952H73.8515L78.9075 101H77.1155L75.9155 97.96ZM75.3875 96.616L73.7395 92.392L72.0275 96.616H75.3875ZM87.458 88.6V101H85.954V99.96C85.634 100.333 85.2393 100.627 84.77 100.84C84.3113 101.053 83.8047 101.16 83.25 101.16C82.6313 101.16 82.0713 101.011 81.57 100.712C81.0687 100.413 80.674 99.9973 80.386 99.464C80.1087 98.92 79.97 98.296 79.97 97.592C79.97 96.8773 80.1193 96.2587 80.418 95.736C80.7167 95.2027 81.1273 94.7973 81.65 94.52C82.1727 94.2427 82.7647 94.104 83.426 94.104C83.9273 94.104 84.4073 94.2107 84.866 94.424C85.3353 94.6267 85.7033 94.9093 85.97 95.272V88.6H87.458ZM83.714 99.88C84.29 99.88 84.7753 99.7253 85.17 99.416C85.5753 99.1067 85.8367 98.6907 85.954 98.168V96.92C85.826 96.44 85.554 96.0507 85.138 95.752C84.722 95.4427 84.2473 95.288 83.714 95.288C83.3087 95.288 82.9353 95.3893 82.594 95.592C82.2527 95.784 81.9807 96.056 81.778 96.408C81.5753 96.7493 81.474 97.1387 81.474 97.576C81.474 98.0027 81.5753 98.392 81.778 98.744C81.9807 99.096 82.2527 99.3733 82.594 99.576C82.9353 99.7787 83.3087 99.88 83.714 99.88ZM96.9424 88.6V101H95.4384V99.96C95.1184 100.333 94.7237 100.627 94.2544 100.84C93.7957 101.053 93.289 101.16 92.7344 101.16C92.1157 101.16 91.5557 101.011 91.0544 100.712C90.553 100.413 90.1584 99.9973 89.8704 99.464C89.593 98.92 89.4544 98.296 89.4544 97.592C89.4544 96.8773 89.6037 96.2587 89.9024 95.736C90.201 95.2027 90.6117 94.7973 91.1344 94.52C91.657 94.2427 92.249 94.104 92.9104 94.104C93.4117 94.104 93.8917 94.2107 94.3504 94.424C94.8197 94.6267 95.1877 94.9093 95.4544 95.272V88.6H96.9424ZM93.1984 99.88C93.7744 99.88 94.2597 99.7253 94.6544 99.416C95.0597 99.1067 95.321 98.6907 95.4384 98.168V96.92C95.3104 96.44 95.0384 96.0507 94.6224 95.752C94.2064 95.4427 93.7317 95.288 93.1984 95.288C92.793 95.288 92.4197 95.3893 92.0784 95.592C91.737 95.784 91.465 96.056 91.2624 96.408C91.0597 96.7493 90.9584 97.1387 90.9584 97.576C90.9584 98.0027 91.0597 98.392 91.2624 98.744C91.465 99.096 91.737 99.3733 92.0784 99.576C92.4197 99.7787 92.793 99.88 93.1984 99.88ZM100.955 95.944C101.125 95.5813 101.365 95.2613 101.675 94.984C101.995 94.7067 102.331 94.4933 102.683 94.344C103.035 94.1947 103.344 94.1147 103.611 94.104L103.547 95.592C103.067 95.5707 102.629 95.6667 102.235 95.88C101.851 96.0933 101.547 96.392 101.323 96.776C101.109 97.1493 101.003 97.5493 101.003 97.976V101H99.5148V94.376H100.843L100.955 95.944ZM108.353 99.88C108.908 99.88 109.446 99.688 109.969 99.304L110.657 100.408C110.305 100.643 109.921 100.829 109.505 100.968C109.1 101.096 108.705 101.16 108.321 101.16C107.585 101.16 106.94 101.011 106.385 100.712C105.841 100.403 105.42 99.9813 105.121 99.448C104.822 98.9147 104.673 98.312 104.673 97.64C104.673 96.9893 104.833 96.3973 105.153 95.864C105.484 95.32 105.932 94.8933 106.497 94.584C107.062 94.264 107.681 94.104 108.353 94.104C109.217 94.104 109.937 94.36 110.513 94.872C111.1 95.3733 111.5 96.0773 111.713 96.984L106.465 98.824C106.657 99.1547 106.913 99.416 107.233 99.608C107.564 99.7893 107.937 99.88 108.353 99.88ZM108.241 95.288C107.633 95.288 107.132 95.5013 106.737 95.928C106.342 96.3547 106.145 96.8987 106.145 97.56C106.145 97.72 106.15 97.8427 106.161 97.928L110.017 96.504C109.857 96.1413 109.628 95.848 109.329 95.624C109.041 95.4 108.678 95.288 108.241 95.288ZM115.434 101.144C114.943 101.144 114.474 101.059 114.026 100.888C113.588 100.717 113.231 100.467 112.954 100.136L113.594 99.272C113.86 99.528 114.138 99.7253 114.426 99.864C114.724 100.003 115.018 100.072 115.306 100.072C115.658 100.072 115.946 100.003 116.17 99.864C116.394 99.7253 116.506 99.512 116.506 99.224C116.506 99 116.436 98.8187 116.298 98.68C116.159 98.5413 115.999 98.44 115.818 98.376C115.647 98.312 115.354 98.216 114.938 98.088C113.807 97.7253 113.242 97.08 113.242 96.152C113.242 95.5973 113.444 95.1227 113.85 94.728C114.266 94.3333 114.842 94.136 115.578 94.136C116.047 94.136 116.463 94.1947 116.826 94.312C117.188 94.4293 117.524 94.616 117.834 94.872L117.242 95.784C117.071 95.6027 116.852 95.4587 116.586 95.352C116.33 95.2453 116.084 95.1867 115.85 95.176C115.551 95.176 115.295 95.2507 115.082 95.4C114.868 95.5387 114.762 95.7307 114.762 95.976C114.762 96.1787 114.831 96.3493 114.97 96.488C115.108 96.616 115.252 96.712 115.402 96.776C115.551 96.8293 115.844 96.9253 116.282 97.064C116.826 97.2453 117.247 97.48 117.546 97.768C117.855 98.056 118.01 98.4453 118.01 98.936C118.01 99.576 117.786 100.104 117.338 100.52C116.89 100.936 116.255 101.144 115.434 101.144ZM121.965 101.144C121.474 101.144 121.005 101.059 120.557 100.888C120.12 100.717 119.762 100.467 119.485 100.136L120.125 99.272C120.392 99.528 120.669 99.7253 120.957 99.864C121.256 100.003 121.549 100.072 121.837 100.072C122.189 100.072 122.477 100.003 122.701 99.864C122.925 99.7253 123.037 99.512 123.037 99.224C123.037 99 122.968 98.8187 122.829 98.68C122.69 98.5413 122.53 98.44 122.349 98.376C122.178 98.312 121.885 98.216 121.469 98.088C120.338 97.7253 119.773 97.08 119.773 96.152C119.773 95.5973 119.976 95.1227 120.381 94.728C120.797 94.3333 121.373 94.136 122.109 94.136C122.578 94.136 122.994 94.1947 123.357 94.312C123.72 94.4293 124.056 94.616 124.365 94.872L123.773 95.784C123.602 95.6027 123.384 95.4587 123.117 95.352C122.861 95.2453 122.616 95.1867 122.381 95.176C122.082 95.176 121.826 95.2507 121.613 95.4C121.4 95.5387 121.293 95.7307 121.293 95.976C121.293 96.1787 121.362 96.3493 121.501 96.488C121.64 96.616 121.784 96.712 121.933 96.776C122.082 96.8293 122.376 96.9253 122.813 97.064C123.357 97.2453 123.778 97.48 124.077 97.768C124.386 98.056 124.541 98.4453 124.541 98.936C124.541 99.576 124.317 100.104 123.869 100.52C123.421 100.936 122.786 101.144 121.965 101.144Z" fill="#777777"/>
</svg>
