<svg width="155" height="129" viewBox="0 0 155 129" fill="none" xmlns="http://www.w3.org/2000/svg">
<rect x="0.5" y="0.5" width="154" height="128" rx="14.5" fill="#F9F9F9" stroke="#E3E3E3"/>
<path d="M52.744 89.432V101.384H52.696L44.2 92.76L44.232 101H42.664V89.08H42.744L51.224 97.8L51.192 89.432H52.744ZM55.1263 97.624C55.1263 96.9733 55.2809 96.3813 55.5903 95.848C55.9103 95.304 56.3476 94.8773 56.9023 94.568C57.4676 94.2587 58.1023 94.104 58.8063 94.104C59.5103 94.104 60.1343 94.2587 60.6783 94.568C61.2329 94.8773 61.6596 95.2987 61.9583 95.832C62.2676 96.3653 62.4223 96.9627 62.4223 97.624C62.4223 98.2853 62.2676 98.888 61.9583 99.432C61.6596 99.9653 61.2329 100.387 60.6783 100.696C60.1236 101.005 59.4889 101.16 58.7743 101.16C58.0809 101.16 57.4569 101.016 56.9023 100.728C56.3476 100.429 55.9103 100.013 55.5903 99.48C55.2809 98.9467 55.1263 98.328 55.1263 97.624ZM56.6303 97.64C56.6303 98.056 56.7209 98.44 56.9023 98.792C57.0943 99.144 57.3503 99.4213 57.6703 99.624C58.0009 99.8267 58.3636 99.928 58.7583 99.928C59.3769 99.928 59.8889 99.7093 60.2943 99.272C60.6996 98.8347 60.9023 98.2907 60.9023 97.64C60.9023 96.9893 60.6996 96.4453 60.2943 96.008C59.8889 95.56 59.3769 95.336 58.7583 95.336C58.3529 95.336 57.9903 95.4427 57.6703 95.656C57.3503 95.8587 57.0943 96.136 56.9023 96.488C56.7209 96.84 56.6303 97.224 56.6303 97.64ZM69.1315 95.224C69.1315 94.168 69.3982 93.1867 69.9315 92.28C70.4648 91.3733 71.1795 90.6533 72.0755 90.12C72.9822 89.576 73.9688 89.304 75.0355 89.304C76.0915 89.304 77.0728 89.576 77.9795 90.12C78.8862 90.6533 79.6062 91.3733 80.1395 92.28C80.6835 93.1867 80.9555 94.168 80.9555 95.224C80.9555 96.2907 80.6888 97.2773 80.1555 98.184C79.6222 99.0907 78.8968 99.8107 77.9795 100.344C77.0728 100.867 76.0915 101.128 75.0355 101.128C73.9688 101.128 72.9822 100.867 72.0755 100.344C71.1688 99.8213 70.4488 99.112 69.9155 98.216C69.3928 97.3093 69.1315 96.312 69.1315 95.224ZM70.7315 95.24C70.7315 96.0293 70.9235 96.76 71.3075 97.432C71.6915 98.104 72.2142 98.6373 72.8755 99.032C73.5475 99.4267 74.2782 99.624 75.0675 99.624C75.8568 99.624 76.5768 99.432 77.2275 99.048C77.8888 98.6533 78.4062 98.12 78.7795 97.448C79.1635 96.7653 79.3555 96.024 79.3555 95.224C79.3555 94.424 79.1635 93.6827 78.7795 93C78.3955 92.3173 77.8728 91.7787 77.2115 91.384C76.5502 90.9893 75.8248 90.792 75.0355 90.792C74.2462 90.792 73.5208 90.9947 72.8595 91.4C72.1982 91.7947 71.6755 92.3333 71.2915 93.016C70.9182 93.6987 70.7315 94.44 70.7315 95.24ZM84.6423 95.944C84.8129 95.5813 85.0529 95.2613 85.3623 94.984C85.6823 94.7067 86.0183 94.4933 86.3703 94.344C86.7223 94.1947 87.0316 94.1147 87.2983 94.104L87.2343 95.592C86.7543 95.5707 86.3169 95.6667 85.9223 95.88C85.5383 96.0933 85.2343 96.392 85.0103 96.776C84.7969 97.1493 84.6903 97.5493 84.6903 97.976V101H83.2023V94.376H84.5303L84.6423 95.944ZM95.8486 88.6V101H94.3446V99.96C94.0246 100.333 93.63 100.627 93.1606 100.84C92.702 101.053 92.1953 101.16 91.6406 101.16C91.022 101.16 90.462 101.011 89.9606 100.712C89.4593 100.413 89.0646 99.9973 88.7766 99.464C88.4993 98.92 88.3606 98.296 88.3606 97.592C88.3606 96.8773 88.51 96.2587 88.8086 95.736C89.1073 95.2027 89.518 94.7973 90.0406 94.52C90.5633 94.2427 91.1553 94.104 91.8166 94.104C92.318 94.104 92.798 94.2107 93.2566 94.424C93.726 94.6267 94.094 94.9093 94.3606 95.272V88.6H95.8486ZM92.1046 99.88C92.6806 99.88 93.166 99.7253 93.5606 99.416C93.966 99.1067 94.2273 98.6907 94.3446 98.168V96.92C94.2166 96.44 93.9446 96.0507 93.5286 95.752C93.1126 95.4427 92.638 95.288 92.1046 95.288C91.6993 95.288 91.326 95.3893 90.9846 95.592C90.6433 95.784 90.3713 96.056 90.1686 96.408C89.966 96.7493 89.8646 97.1387 89.8646 97.576C89.8646 98.0027 89.966 98.392 90.1686 98.744C90.3713 99.096 90.6433 99.3733 90.9846 99.576C91.326 99.7787 91.6993 99.88 92.1046 99.88ZM101.525 99.88C102.08 99.88 102.618 99.688 103.141 99.304L103.829 100.408C103.477 100.643 103.093 100.829 102.677 100.968C102.272 101.096 101.877 101.16 101.493 101.16C100.757 101.16 100.112 101.011 99.557 100.712C99.013 100.403 98.5917 99.9813 98.293 99.448C97.9943 98.9147 97.845 98.312 97.845 97.64C97.845 96.9893 98.005 96.3973 98.325 95.864C98.6557 95.32 99.1037 94.8933 99.669 94.584C100.234 94.264 100.853 94.104 101.525 94.104C102.389 94.104 103.109 94.36 103.685 94.872C104.272 95.3733 104.672 96.0773 104.885 96.984L99.637 98.824C99.829 99.1547 100.085 99.416 100.405 99.608C100.736 99.7893 101.109 99.88 101.525 99.88ZM101.413 95.288C100.805 95.288 100.304 95.5013 99.909 95.928C99.5143 96.3547 99.317 96.8987 99.317 97.56C99.317 97.72 99.3223 97.8427 99.333 97.928L103.189 96.504C103.029 96.1413 102.8 95.848 102.501 95.624C102.213 95.4 101.85 95.288 101.413 95.288ZM108.174 95.944C108.344 95.5813 108.584 95.2613 108.894 94.984C109.214 94.7067 109.55 94.4933 109.902 94.344C110.254 94.1947 110.563 94.1147 110.83 94.104L110.766 95.592C110.286 95.5707 109.848 95.6667 109.454 95.88C109.07 96.0933 108.766 96.392 108.542 96.776C108.328 97.1493 108.222 97.5493 108.222 97.976V101H106.734V94.376H108.062L108.174 95.944ZM114.621 101.144C114.13 101.144 113.661 101.059 113.213 100.888C112.776 100.717 112.418 100.467 112.141 100.136L112.781 99.272C113.048 99.528 113.325 99.7253 113.613 99.864C113.912 100.003 114.205 100.072 114.493 100.072C114.845 100.072 115.133 100.003 115.357 99.864C115.581 99.7253 115.693 99.512 115.693 99.224C115.693 99 115.624 98.8187 115.485 98.68C115.346 98.5413 115.186 98.44 115.005 98.376C114.834 98.312 114.541 98.216 114.125 98.088C112.994 97.7253 112.429 97.08 112.429 96.152C112.429 95.5973 112.632 95.1227 113.037 94.728C113.453 94.3333 114.029 94.136 114.765 94.136C115.234 94.136 115.65 94.1947 116.013 94.312C116.376 94.4293 116.712 94.616 117.021 94.872L116.429 95.784C116.258 95.6027 116.04 95.4587 115.773 95.352C115.517 95.2453 115.272 95.1867 115.037 95.176C114.738 95.176 114.482 95.2507 114.269 95.4C114.056 95.5387 113.949 95.7307 113.949 95.976C113.949 96.1787 114.018 96.3493 114.157 96.488C114.296 96.616 114.44 96.712 114.589 96.776C114.738 96.8293 115.032 96.9253 115.469 97.064C116.013 97.2453 116.434 97.48 116.733 97.768C117.042 98.056 117.197 98.4453 117.197 98.936C117.197 99.576 116.973 100.104 116.525 100.52C116.077 100.936 115.442 101.144 114.621 101.144Z" fill="#777777"/>
<path d="M62.5 44H100L95.242 60.65C94.8835 61.9034 94.1266 63.0059 93.0857 63.7907C92.0448 64.5756 90.7766 65.0001 89.473 65H69.373C67.8954 65.0008 66.4694 64.4564 65.3684 63.471C64.2673 62.4857 63.5685 61.1286 63.406 59.66L61 38H55" stroke="#999696" stroke-linecap="round" stroke-linejoin="round"/>
<path d="M68.5 75.5006C70.1569 75.5006 71.5 74.1575 71.5 72.5006C71.5 70.8438 70.1569 69.5006 68.5 69.5006C66.8431 69.5006 65.5 70.8438 65.5 72.5006C65.5 74.1575 66.8431 75.5006 68.5 75.5006Z" fill="#999696"/>
<path d="M92.501 75.5006C94.1578 75.5006 95.501 74.1575 95.501 72.5006C95.501 70.8438 94.1578 69.5006 92.501 69.5006C90.8441 69.5006 89.501 70.8438 89.501 72.5006C89.501 74.1575 90.8441 75.5006 92.501 75.5006Z" fill="#999696"/>
</svg>
