<svg width="20" height="20" viewBox="0 0 20 20" fill="none" xmlns="http://www.w3.org/2000/svg">
<path d="M10 20C15.5228 20 20 15.5228 20 10C20 4.47715 15.5228 0 10 0C4.47715 0 0 4.47715 0 10C0 15.5228 4.47715 20 10 20Z" fill="#1672FA"/>
<path d="M12.5359 9.05395L12.3701 10.4461C12.3629 10.5107 12.3321 10.5704 12.2835 10.6137C12.2349 10.6569 12.172 10.6807 12.1069 10.6803H10.6596V14.8118C10.6599 14.8612 10.6408 14.9086 10.6062 14.9439C10.5717 14.9791 10.5247 14.9993 10.4754 15H9.00037C8.97583 14.9997 8.9516 14.9945 8.92906 14.9848C8.90652 14.9751 8.88612 14.961 8.86901 14.9434C8.85191 14.9258 8.83844 14.905 8.82937 14.8822C8.8203 14.8594 8.81581 14.8351 8.81616 14.8105L8.82405 10.6803H7.728C7.65821 10.6803 7.59127 10.6525 7.54192 10.6032C7.49257 10.5538 7.46484 10.4869 7.46484 10.4171V9.025C7.46484 8.95521 7.49257 8.88827 7.54192 8.83892C7.59127 8.78957 7.65821 8.76184 7.728 8.76184H8.81747V7.41184C8.81747 5.85 9.74642 5 11.1069 5H12.2214C12.2912 5 12.3581 5.02773 12.4075 5.07708C12.4568 5.12643 12.4846 5.19336 12.4846 5.26316V6.43553C12.4846 6.50532 12.4568 6.57226 12.4075 6.62161C12.3581 6.67096 12.2912 6.69868 12.2214 6.69868H11.5385C10.799 6.71053 10.6596 7.06447 10.6596 7.59342V8.75789H12.2793C12.3163 8.75853 12.3527 8.76694 12.3861 8.78258C12.4196 8.79822 12.4495 8.82073 12.4737 8.84866C12.4979 8.87659 12.5159 8.90931 12.5266 8.94468C12.5374 8.98005 12.5405 9.01728 12.5359 9.05395Z" fill="white"/>
</svg>
