<svg width="20" height="20" viewBox="0 0 20 20" fill="none" xmlns="http://www.w3.org/2000/svg">
<path d="M20 10C20 4.47715 15.5228 0 10 0C4.47715 0 0 4.47715 0 10C0 15.5228 4.47715 20 10 20C15.5228 20 20 15.5228 20 10Z" fill="url(#paint0_linear_3042_1029)"/>
<path opacity="0.1" d="M17.5262 3.42093C16.0683 6.09724 14.0065 8.85777 11.4301 11.4341C8.85383 14.0104 6.09331 16.0683 3.42094 17.5262C3.2534 17.3806 3.09068 17.2288 2.93278 17.0709C1.97838 16.1484 1.2172 15.0451 0.69362 13.8253C0.170039 12.6056 -0.105463 11.2938 -0.116821 9.96643C-0.128179 8.63909 0.124834 7.32278 0.627464 6.09423C1.1301 4.86569 1.87229 3.74951 2.81076 2.81078C3.74923 1.87205 4.8652 1.12954 6.0936 0.626569C7.322 0.123595 8.63825 -0.129786 9.96559 -0.118798C11.2929 -0.10781 12.6048 0.167325 13.8247 0.690566C15.0446 1.21381 16.1481 1.97468 17.0709 2.92882C17.2288 3.08672 17.3806 3.25075 17.5262 3.42093Z" fill="white"/>
<path d="M12.3699 4.73682H7.63302C6.86529 4.73682 6.129 5.0418 5.58613 5.58467C5.04326 6.12753 4.73828 6.86382 4.73828 7.63155V12.3684C4.73828 13.1361 5.04326 13.8724 5.58613 14.4153C6.129 14.9582 6.86529 15.2631 7.63302 15.2631H12.3699C13.1376 15.2631 13.8739 14.9582 14.4167 14.4153C14.9596 13.8724 15.2646 13.1361 15.2646 12.3684V7.63155C15.2646 6.86382 14.9596 6.12753 14.4167 5.58467C13.8739 5.0418 13.1376 4.73682 12.3699 4.73682ZM14.3435 11.9526C14.3435 12.5863 14.0918 13.1941 13.6437 13.6422C13.1956 14.0903 12.5878 14.3421 11.9541 14.3421H8.04881C7.41508 14.3421 6.80731 14.0903 6.35919 13.6422C5.91108 13.1941 5.65933 12.5863 5.65933 11.9526V8.04734C5.65933 7.41361 5.91108 6.80584 6.35919 6.35773C6.80731 5.90962 7.41508 5.65787 8.04881 5.65787H11.9541C12.5878 5.65787 13.1956 5.90962 13.6437 6.35773C14.0918 6.80584 14.3435 7.41361 14.3435 8.04734V11.9526Z" fill="white"/>
<path d="M11.9217 8.10001L11.8967 8.07501L11.8756 8.05396C11.3781 7.55818 10.7043 7.27994 10.002 7.28027C9.64728 7.28268 9.29654 7.35495 8.9698 7.49296C8.64306 7.63096 8.34671 7.83199 8.09768 8.08456C7.84866 8.33713 7.65184 8.63629 7.51846 8.96495C7.38509 9.29361 7.31778 9.64533 7.32039 10C7.31985 10.7198 7.60358 11.4107 8.10986 11.9224C8.35784 12.1734 8.65334 12.3725 8.97911 12.508C9.30487 12.6436 9.65438 12.7129 10.0072 12.7119C10.5365 12.7008 11.0511 12.5359 11.4882 12.2373C11.9254 11.9388 12.2663 11.5195 12.4692 11.0306C12.6722 10.5417 12.7285 10.0042 12.6313 9.48388C12.534 8.96351 12.2875 8.48267 11.9217 8.10001ZM10.002 11.7842C9.64805 11.7892 9.30067 11.6888 9.00399 11.4958C8.70731 11.3027 8.47473 11.0259 8.33585 10.7003C8.19697 10.3747 8.15805 10.0152 8.22404 9.66751C8.29004 9.31977 8.45796 8.99952 8.70646 8.74749C8.95496 8.49546 9.27281 8.32303 9.61958 8.25213C9.96635 8.18124 10.3264 8.21508 10.6538 8.34936C10.9813 8.48363 11.2615 8.71228 11.4586 9.00621C11.6558 9.30014 11.7611 9.64607 11.7612 10C11.7629 10.2327 11.7188 10.4634 11.6313 10.6791C11.5438 10.8947 11.4147 11.091 11.2513 11.2567C11.0879 11.4224 10.8935 11.5542 10.6791 11.6448C10.4648 11.7353 10.2346 11.7827 10.002 11.7842Z" fill="white"/>
<path d="M13.478 7.15548C13.4787 7.23991 13.4627 7.32365 13.431 7.40191C13.3993 7.48016 13.3524 7.55139 13.2932 7.61152C13.2339 7.67166 13.1633 7.71951 13.0855 7.75233C13.0077 7.78516 12.9242 7.80233 12.8398 7.80284C12.7561 7.80281 12.6732 7.78615 12.596 7.75386C12.5187 7.72156 12.4486 7.67426 12.3898 7.61469C12.3007 7.52424 12.24 7.40963 12.2154 7.28505C12.1908 7.16047 12.2033 7.03141 12.2514 6.91386C12.2994 6.79632 12.3809 6.69547 12.4858 6.62381C12.5906 6.55215 12.7142 6.51283 12.8411 6.51074C12.9897 6.51071 13.1336 6.56287 13.2477 6.65811L13.2609 6.67127C13.2821 6.68854 13.3015 6.70794 13.3188 6.72916L13.3332 6.74495C13.4274 6.86099 13.4786 7.00603 13.478 7.15548Z" fill="white"/>
<defs>
<linearGradient id="paint0_linear_3042_1029" x1="2.92895" y1="2.92895" x2="17.0711" y2="17.0711" gradientUnits="userSpaceOnUse">
<stop stop-color="#FAE100"/>
<stop offset="0.15" stop-color="#FCB720"/>
<stop offset="0.3" stop-color="#FF7950"/>
<stop offset="0.5" stop-color="#FF1C74"/>
<stop offset="1" stop-color="#6C1CD1"/>
</linearGradient>
</defs>
</svg>
