<svg width="20" height="20" viewBox="0 0 20 20" fill="none" xmlns="http://www.w3.org/2000/svg">
<g clip-path="url(#clip0_1_2646)">
<path d="M20 10C20 15.522 15.522 20 10 20C4.47804 20 0 15.522 0 10C0 4.47804 4.47804 0 10 0C15.522 0 20 4.47804 20 10Z" fill="#CA2127"/>
<path d="M9.15372 3.50218C6.3544 3.79897 3.5664 5.92688 3.45307 8.97315C3.37941 10.8323 4.16707 12.2266 6.0484 12.6186C6.26373 11.7394 6.3034 11.2635 6.3034 11.2635C6.3034 11.2635 5.47607 10.4795 5.39107 9.98111C4.69973 5.97168 10.3041 3.23339 13.245 6.03327C15.2737 7.97639 13.9364 13.9513 10.6611 13.3298C7.52173 12.7362 12.1967 7.98199 9.69205 7.04683C7.65773 6.28526 6.5754 9.37073 7.53873 10.8995C6.97206 13.5314 5.75373 16.0121 6.24673 19.3103C7.85039 18.2184 8.38872 16.124 8.83072 13.9401C9.63539 14.3993 10.0661 14.8809 11.0917 14.9537C14.877 15.2281 16.9907 11.3978 16.475 7.85879C16.0104 4.72293 12.6897 3.127 9.15372 3.50218Z" fill="white"/>
</g>
<defs>
<clipPath id="clip0_1_2646">
<rect width="20" height="20" fill="white"/>
</clipPath>
</defs>
</svg>
