<svg width="20" height="20" viewBox="0 0 20 20" fill="none" xmlns="http://www.w3.org/2000/svg">
<path d="M10 20C15.5228 20 20 15.5228 20 10C20 4.47715 15.5228 0 10 0C4.47715 0 0 4.47715 0 10C0 15.5228 4.47715 20 10 20Z" fill="#279EF5"/>
<path d="M14.9799 6.97353C14.7435 7.32859 14.4547 7.64579 14.1233 7.91432C14.0816 7.94913 14.0481 7.99283 14.0253 8.04222C14.0025 8.09161 13.9911 8.14546 13.9918 8.19984V8.23274C13.9879 8.94582 13.8569 9.65249 13.6049 10.3196C13.3453 11.0197 12.9595 11.6664 12.4668 12.2275C11.8046 12.9813 10.9528 13.5442 9.99966 13.8577C9.37338 14.061 8.71861 14.1627 8.06019 14.1591C7.01563 14.1589 5.9897 13.8825 5.08651 13.3577C5.05414 13.3393 5.02867 13.3109 5.01394 13.2767C4.99922 13.2425 4.99606 13.2044 5.00493 13.1683C5.01404 13.1327 5.03479 13.1012 5.06388 13.0788C5.09297 13.0563 5.12873 13.0443 5.16546 13.0446H5.41546C6.20927 13.0465 6.98552 12.811 7.6444 12.3683C7.25174 12.3047 6.88425 12.1339 6.58243 11.8748C6.28062 11.6157 6.05619 11.2783 5.93388 10.8998C5.92761 10.8809 5.92648 10.8606 5.93058 10.8411C5.93469 10.8215 5.94389 10.8034 5.95725 10.7886C5.97061 10.7738 5.98766 10.7627 6.00666 10.7566C6.02567 10.7505 6.04595 10.7495 6.06546 10.7538C6.1852 10.7763 6.30677 10.7878 6.42861 10.788H6.47467C6.09516 10.6136 5.77428 10.3331 5.55082 9.98028C5.32736 9.62745 5.21088 9.21745 5.21546 8.79984C5.21559 8.7803 5.22079 8.76113 5.23053 8.74419C5.24028 8.72725 5.25424 8.71313 5.27107 8.70319C5.2879 8.69325 5.30701 8.68784 5.32655 8.68749C5.34609 8.68713 5.36538 8.69184 5.38256 8.70116C5.53692 8.78734 5.70255 8.85156 5.87467 8.89195C5.53447 8.55537 5.31565 8.11537 5.25254 7.64099C5.18944 7.16661 5.28561 6.68471 5.52598 6.27089C5.53508 6.255 5.54789 6.24155 5.56333 6.2317C5.57876 6.22185 5.59636 6.21589 5.6146 6.21434C5.63285 6.21279 5.6512 6.21569 5.66808 6.22279C5.68496 6.22989 5.69986 6.24098 5.71151 6.25511C6.18675 6.84353 6.77532 7.33052 7.44231 7.68718C8.10931 8.04385 8.84114 8.26292 9.5944 8.33142H9.60492C9.61599 8.3311 9.62688 8.32853 9.63692 8.32387C9.64696 8.3192 9.65595 8.31255 9.66333 8.3043C9.67072 8.29605 9.67635 8.28639 9.67988 8.27589C9.68341 8.2654 9.68477 8.2543 9.68387 8.24326C9.6545 7.9792 9.67142 7.71204 9.73387 7.45379C9.81877 7.10275 9.99304 6.77965 10.2397 6.51589C10.4864 6.25213 10.7972 6.05667 11.1418 5.94853C11.3628 5.87947 11.593 5.84398 11.8247 5.84326C12.3498 5.84266 12.8571 6.03406 13.251 6.38142C13.302 6.42707 13.368 6.45236 13.4365 6.45247C13.4587 6.452 13.4808 6.44891 13.5023 6.44326C13.8724 6.34975 14.2269 6.20304 14.5549 6.00774C14.5745 5.99563 14.5974 5.98989 14.6205 5.99129C14.6435 5.9927 14.6655 6.00119 14.6835 6.01559C14.7015 6.03 14.7146 6.04962 14.721 6.07177C14.7275 6.09392 14.7269 6.11751 14.7194 6.13932C14.6099 6.48377 14.4148 6.79479 14.1523 7.04326C14.3887 6.98688 14.6195 6.90893 14.8418 6.81037C14.8637 6.8019 14.8877 6.80048 14.9105 6.80629C14.9333 6.8121 14.9537 6.82487 14.9689 6.84281C14.9841 6.86075 14.9933 6.88298 14.9953 6.9064C14.9972 6.92983 14.9919 6.95329 14.9799 6.97353Z" fill="white"/>
</svg>
