<svg width="21" height="21" viewBox="0 0 21 21" fill="none" xmlns="http://www.w3.org/2000/svg">
<g clip-path="url(#clip0_1_2657)">
<g clip-path="url(#clip1_1_2657)">
<path d="M17.94 3.05173C15.9659 1.08494 13.3409 0.00119998 10.5442 0C4.78103 0 0.0910022 4.66791 0.0886949 10.4054C0.0880234 12.2394 0.569346 14.0297 1.48421 15.6078L0.000915527 21L5.54348 19.5531C7.07056 20.3822 8.78996 20.8191 10.5397 20.8198H10.5441H10.5442C16.3064 20.8198 20.9971 16.1511 20.9996 10.4139C21.0005 7.63319 19.9139 5.01866 17.94 3.05173ZM10.5442 19.0623H10.5408C8.98117 19.0615 7.45176 18.6446 6.11775 17.8565L5.80028 17.6692L2.5112 18.5277L3.38934 15.3362L3.1825 15.009C2.31254 13.6318 1.85327 12.0403 1.85392 10.4061C1.85584 5.63725 5.75401 1.75758 10.5475 1.75758C12.8687 1.75854 15.0504 2.65935 16.6912 4.29409C18.3319 5.92881 19.2349 8.10195 19.2342 10.4131C19.2321 15.1821 15.3338 19.0623 10.5442 19.0623Z" fill="#E0E0E0"/>
<path d="M0.480652 20.4016L1.89619 15.2557C1.02289 13.7497 0.563645 12.0411 0.564196 10.2912C0.566486 4.81587 5.04232 0.361328 10.5417 0.361328C13.2108 0.362528 15.716 1.39671 17.5995 3.27371C19.4834 5.15069 20.5203 7.64561 20.5192 10.299C20.5169 15.7744 16.0408 20.2294 10.5421 20.2294C10.5424 20.2294 10.5417 20.2294 10.5421 20.2294H10.5377C8.86789 20.2288 7.22716 19.8115 5.76994 19.0208L0.480652 20.4016Z" fill="url(#paint0_linear_1_2657)"/>
<path fill-rule="evenodd" clip-rule="evenodd" d="M7.96026 5.98787C7.76683 5.5597 7.56317 5.55113 7.37914 5.54364C7.22862 5.53721 7.0563 5.5376 6.88425 5.5376C6.71207 5.5376 6.43227 5.60202 6.19565 5.8593C5.9589 6.11658 5.29169 6.73853 5.29169 8.00347C5.29169 9.26854 6.21718 10.4909 6.34618 10.6626C6.47531 10.834 8.13272 13.5128 10.7576 14.5434C12.9391 15.3998 13.383 15.2295 13.8565 15.1866C14.33 15.1438 15.3844 14.5648 15.5996 13.9644C15.8148 13.3641 15.8148 12.8496 15.7502 12.7421C15.6857 12.6349 15.5135 12.5706 15.2552 12.4421C14.9969 12.3135 13.7274 11.6914 13.4906 11.6057C13.2539 11.52 13.0817 11.4771 12.9095 11.7345C12.7373 11.9917 12.2427 12.5706 12.092 12.7421C11.9413 12.9139 11.7907 12.9353 11.5324 12.8067C11.2741 12.6778 10.4424 12.4066 9.45571 11.5307C8.68802 10.8492 8.16971 10.0076 8.01905 9.75025C7.86839 9.49311 8.0029 9.35383 8.13245 9.22565C8.2484 9.11047 8.39072 8.92552 8.51986 8.77538C8.64872 8.62525 8.69177 8.51811 8.77786 8.34668C8.86395 8.17498 8.82091 8.02486 8.75634 7.89629C8.69177 7.76772 8.18989 6.49625 7.96026 5.98787Z" fill="white"/>
<path d="M17.8544 3.01866C15.9029 1.07445 13.3081 0.00317025 10.5435 0.00195312C4.84646 0.00195312 0.210269 4.61627 0.207979 10.2879C0.207308 12.1009 0.683104 13.8706 1.58747 15.4306L0.121216 20.7609L5.60016 19.3305C7.10973 20.1502 8.80938 20.5821 10.539 20.5827H10.5434H10.5435C16.2395 20.5827 20.8764 15.9676 20.8788 10.2962C20.8797 7.54752 19.8056 4.96301 17.8544 3.01866ZM10.5435 18.8455H10.5401C8.99838 18.8447 7.48652 18.4326 6.16783 17.6535L5.85399 17.4683L2.60268 18.317L3.47073 15.1621L3.26626 14.8386C2.40629 13.4773 1.95229 11.904 1.95296 10.2886C1.95484 5.57453 5.80826 1.73939 10.5467 1.73939C12.8413 1.74034 14.9979 2.63081 16.6199 4.24678C18.2418 5.86274 19.1344 8.01092 19.1337 10.2956C19.1317 15.0098 15.2781 18.8455 10.5435 18.8455Z" fill="white"/>
</g>
</g>
<defs>
<linearGradient id="paint0_linear_1_2657" x1="10.4999" y1="20.4016" x2="10.4999" y2="0.361362" gradientUnits="userSpaceOnUse">
<stop stop-color="#20B038"/>
<stop offset="1" stop-color="#60D66A"/>
</linearGradient>
<clipPath id="clip0_1_2657">
<rect width="21" height="21" fill="white"/>
</clipPath>
<clipPath id="clip1_1_2657">
<rect width="21" height="21" fill="white"/>
</clipPath>
</defs>
</svg>
