<svg width="20" height="20" viewBox="0 0 20 20" fill="none" xmlns="http://www.w3.org/2000/svg">
<path d="M10 20C15.5228 20 20 15.5228 20 10C20 4.47715 15.5228 0 10 0C4.47715 0 0 4.47715 0 10C0 15.5228 4.47715 20 10 20Z" fill="#F20000"/>
<path d="M14.7668 7.59455C14.5668 6.9735 13.905 6.60639 13.2905 6.52086C11.1002 6.28797 8.89134 6.28797 6.70102 6.52086C6.09181 6.60639 5.42997 6.97876 5.22997 7.59455C4.91814 9.18334 4.91814 10.8176 5.22997 12.4064C5.43523 13.0261 6.09707 13.3945 6.71155 13.4801C8.90194 13.7117 11.1106 13.7117 13.301 13.4801C13.9102 13.3945 14.5721 13.0209 14.7721 12.4064C15.0822 10.8173 15.0804 9.183 14.7668 7.59455ZM8.80497 11.9156V8.08402L11.9247 9.99981C10.8734 10.6459 9.85234 11.2748 8.80497 11.9156Z" fill="white"/>
</svg>
