<svg width="159" height="159" viewBox="0 0 159 159" fill="none" xmlns="http://www.w3.org/2000/svg">
<path d="M118.794 118.794C140.663 96.9244 140.663 61.4672 118.794 39.5978C96.9246 17.7285 61.4673 17.7285 39.598 39.5978C17.7286 61.4672 17.7286 96.9244 39.598 118.794C61.4673 140.663 96.9246 140.663 118.794 118.794Z" fill="#EFF8FF"/>
<path d="M116.311 119.724H23.0955C22.8929 119.724 22.7578 119.589 22.7578 119.386C22.7578 119.183 22.8929 119.048 23.0955 119.048H116.311C116.513 119.048 116.648 119.183 116.648 119.386C116.648 119.589 116.446 119.724 116.311 119.724Z" fill="#01C0CC"/>
<path d="M104.96 119.251H45.5182C41.6005 119.251 38.4258 116.077 38.4258 112.159V65.5514C38.4258 61.6337 41.6005 58.459 45.5182 58.459H104.96C108.877 58.459 112.052 61.6337 112.052 65.5514V112.159C112.052 116.077 108.877 119.251 104.96 119.251Z" fill="white"/>
<path d="M104.96 117.833H45.5182C41.6005 117.833 38.4258 114.658 38.4258 110.74V112.159C38.4258 116.076 41.6005 119.251 45.5182 119.251H104.96C108.877 119.251 112.052 116.076 112.052 112.159V110.74C112.052 114.658 108.877 117.833 104.96 117.833Z" fill="#01C0CC"/>
<path d="M104.96 58.5264H45.5182C41.6005 58.5264 38.4258 61.7011 38.4258 65.6188V67.0373C38.4258 63.1196 41.6005 59.9449 45.5182 59.9449H104.96C108.877 59.9449 112.052 63.1196 112.052 67.0373V65.6188C112.052 61.7011 108.877 58.5264 104.96 58.5264Z" fill="white"/>
<path d="M112.052 84.1943H98.7449C96.3808 84.1943 94.4219 86.1532 94.4219 88.5173V92.0973C94.4219 94.4615 96.3808 96.4204 98.7449 96.4204H112.052V84.1943Z" fill="#01C0CC"/>
<path d="M104.95 119.589H45.5083C41.3879 119.589 38.0781 116.279 38.0781 112.159V65.5513C38.0781 61.4309 41.3879 58.1211 45.5083 58.1211H71.7841C71.9868 58.1211 72.1219 58.2562 72.1219 58.4588C72.1219 58.6615 71.9868 58.7966 71.7841 58.7966H45.5083C41.7932 58.7966 38.7536 61.8362 38.7536 65.5513V112.159C38.7536 115.874 41.7932 118.914 45.5083 118.914H104.95C108.665 118.914 111.704 115.874 111.704 112.159V65.5513C111.704 61.8362 108.665 58.7966 104.95 58.7966H77.7958C77.5932 58.7966 77.4581 58.6615 77.4581 58.4588C77.4581 58.2562 77.5932 58.1211 77.7958 58.1211H104.95C109.07 58.1211 112.38 61.4309 112.38 65.5513V112.159C112.38 116.279 109.003 119.589 104.95 119.589Z" fill="#01C0CC"/>
<path d="M104.953 116.077H103.467C103.264 116.077 103.129 115.942 103.129 115.739C103.129 115.536 103.264 115.401 103.467 115.401H104.953C105.088 115.401 105.291 115.401 105.426 115.334C105.628 115.334 105.764 115.401 105.831 115.604C105.831 115.806 105.763 115.941 105.561 116.009C105.291 116.009 105.156 116.077 104.953 116.077ZM100.022 116.077H97.9956C97.7929 116.077 97.6578 115.942 97.6578 115.739C97.6578 115.536 97.7929 115.401 97.9956 115.401H100.022C100.225 115.401 100.36 115.536 100.36 115.739C100.36 115.874 100.225 116.077 100.022 116.077ZM94.5507 116.077H92.5243C92.3216 116.077 92.1865 115.942 92.1865 115.739C92.1865 115.536 92.3216 115.401 92.5243 115.401H94.5507C94.7533 115.401 94.8884 115.536 94.8884 115.739C94.8884 115.874 94.7533 116.077 94.5507 116.077ZM89.1469 116.077H87.1205C86.9179 116.077 86.7828 115.942 86.7828 115.739C86.7828 115.536 86.9179 115.401 87.1205 115.401H89.1469C89.3496 115.401 89.4846 115.536 89.4846 115.739C89.4846 115.874 89.282 116.077 89.1469 116.077ZM83.6756 116.077H81.6492C81.4465 116.077 81.3114 115.942 81.3114 115.739C81.3114 115.536 81.4465 115.401 81.6492 115.401H83.6756C83.8782 115.401 84.0133 115.536 84.0133 115.739C84.0133 115.874 83.8782 116.077 83.6756 116.077ZM78.2043 116.077H76.1779C75.9752 116.077 75.8401 115.942 75.8401 115.739C75.8401 115.536 75.9752 115.401 76.1779 115.401H78.2043C78.4069 115.401 78.542 115.536 78.542 115.739C78.542 115.874 78.4069 116.077 78.2043 116.077ZM72.8005 116.077H70.7741C70.5714 116.077 70.4364 115.942 70.4364 115.739C70.4364 115.536 70.5714 115.401 70.7741 115.401H72.8005C73.0031 115.401 73.1382 115.536 73.1382 115.739C73.1382 115.874 72.9356 116.077 72.8005 116.077ZM67.3292 116.077H65.3028C65.1001 116.077 64.9651 115.942 64.9651 115.739C64.9651 115.536 65.1001 115.401 65.3028 115.401H67.3292C67.5318 115.401 67.6669 115.536 67.6669 115.739C67.6669 115.874 67.5318 116.077 67.3292 116.077ZM61.8579 116.077H59.8315C59.6288 116.077 59.4937 115.942 59.4937 115.739C59.4937 115.536 59.6288 115.401 59.8315 115.401H61.8579C62.0605 115.401 62.1956 115.536 62.1956 115.739C62.1956 115.874 62.0605 116.077 61.8579 116.077ZM56.4541 116.077H54.4277C54.2251 116.077 54.09 115.942 54.09 115.739C54.09 115.536 54.2251 115.401 54.4277 115.401H56.4541C56.6568 115.401 56.7918 115.536 56.7918 115.739C56.7918 115.874 56.5892 116.077 56.4541 116.077ZM50.9828 116.077H48.9564C48.7537 116.077 48.6186 115.942 48.6186 115.739C48.6186 115.536 48.7537 115.401 48.9564 115.401H50.9828C51.1854 115.401 51.3205 115.536 51.3205 115.739C51.3205 115.874 51.1854 116.077 50.9828 116.077ZM45.5115 116.077C44.7009 116.077 43.9579 115.874 43.35 115.469C43.2149 115.334 43.1473 115.131 43.2824 114.996C43.4175 114.861 43.6202 114.793 43.7552 114.928C44.2956 115.266 44.9035 115.469 45.5115 115.469C45.7141 115.469 45.8492 115.604 45.8492 115.806C45.8492 115.874 45.7141 116.077 45.5115 116.077ZM108.128 114.05C108.06 114.05 107.993 114.05 107.993 113.983C107.857 113.915 107.79 113.712 107.857 113.51C108.06 113.037 108.195 112.564 108.195 112.091V111.686C108.195 111.483 108.33 111.348 108.533 111.348C108.736 111.348 108.871 111.483 108.871 111.686V112.091C108.871 112.699 108.736 113.307 108.465 113.848C108.33 113.983 108.263 114.05 108.128 114.05ZM41.9315 112.632C41.7288 112.632 41.5938 112.497 41.5938 112.294V112.159V110.268C41.5938 110.065 41.7288 109.93 41.9315 109.93C42.1341 109.93 42.2692 110.065 42.2692 110.268V112.294C42.2692 112.497 42.1341 112.632 41.9315 112.632ZM108.465 108.714C108.263 108.714 108.128 108.579 108.128 108.376V106.35C108.128 106.147 108.263 106.012 108.465 106.012C108.668 106.012 108.803 106.147 108.803 106.35V108.376C108.803 108.511 108.668 108.714 108.465 108.714ZM41.9315 107.16C41.7288 107.16 41.5938 107.025 41.5938 106.823V104.796C41.5938 104.594 41.7288 104.458 41.9315 104.458C42.1341 104.458 42.2692 104.594 42.2692 104.796V106.823C42.2692 107.025 42.1341 107.16 41.9315 107.16ZM108.465 103.243C108.263 103.243 108.128 103.108 108.128 102.905V100.878C108.128 100.676 108.263 100.541 108.465 100.541C108.668 100.541 108.803 100.676 108.803 100.878V102.905C108.803 103.108 108.668 103.243 108.465 103.243ZM41.9315 101.757C41.7288 101.757 41.5938 101.622 41.5938 101.419V99.3925C41.5938 99.1898 41.7288 99.0547 41.9315 99.0547C42.1341 99.0547 42.2692 99.1898 42.2692 99.3925V101.419C42.2692 101.554 42.1341 101.757 41.9315 101.757ZM108.465 97.7713C108.263 97.7713 108.128 97.6362 108.128 97.4336V95.4072C108.128 95.2045 108.263 95.0694 108.465 95.0694C108.668 95.0694 108.803 95.2045 108.803 95.4072V97.4336C108.803 97.6362 108.668 97.7713 108.465 97.7713ZM41.9315 96.2853C41.7288 96.2853 41.5938 96.1502 41.5938 95.9476V93.9211C41.5938 93.7185 41.7288 93.5834 41.9315 93.5834C42.1341 93.5834 42.2692 93.7185 42.2692 93.9211V95.9476C42.2692 96.1502 42.1341 96.2853 41.9315 96.2853ZM108.465 92.3676C108.263 92.3676 108.128 92.2325 108.128 92.0298V90.0034C108.128 89.8008 108.263 89.6657 108.465 89.6657C108.668 89.6657 108.803 89.8008 108.803 90.0034V92.0298C108.803 92.1649 108.668 92.3676 108.465 92.3676ZM41.9315 90.814C41.7288 90.814 41.5938 90.6789 41.5938 90.4762V88.4498C41.5938 88.2472 41.7288 88.1121 41.9315 88.1121C42.1341 88.1121 42.2692 88.2472 42.2692 88.4498V90.4762C42.2692 90.6789 42.1341 90.814 41.9315 90.814ZM108.465 86.8962C108.263 86.8962 108.128 86.7612 108.128 86.5585V84.5321C108.128 84.3295 108.263 84.1944 108.465 84.1944C108.668 84.1944 108.803 84.3295 108.803 84.5321V86.5585C108.803 86.7612 108.668 86.8962 108.465 86.8962ZM41.9315 85.4102C41.7288 85.4102 41.5938 85.2751 41.5938 85.0725V83.0461C41.5938 82.8434 41.7288 82.7083 41.9315 82.7083C42.1341 82.7083 42.2692 82.8434 42.2692 83.0461V85.0725C42.2692 85.2076 42.1341 85.4102 41.9315 85.4102ZM108.465 81.4249C108.263 81.4249 108.128 81.2898 108.128 81.0872V79.0608C108.128 78.8581 108.263 78.723 108.465 78.723C108.668 78.723 108.803 78.8581 108.803 79.0608V81.0872C108.803 81.2898 108.668 81.4249 108.465 81.4249ZM41.9315 79.9389C41.7288 79.9389 41.5938 79.8038 41.5938 79.6012V77.5747C41.5938 77.3721 41.7288 77.237 41.9315 77.237C42.1341 77.237 42.2692 77.3721 42.2692 77.5747V79.6012C42.2692 79.8038 42.1341 79.9389 41.9315 79.9389ZM108.465 76.0212C108.263 76.0212 108.128 75.8861 108.128 75.6834V73.657C108.128 73.4544 108.263 73.3193 108.465 73.3193C108.668 73.3193 108.803 73.4544 108.803 73.657V75.6834C108.803 75.8185 108.668 76.0212 108.465 76.0212ZM41.9315 74.4676C41.7288 74.4676 41.5938 74.3325 41.5938 74.1298V72.1034C41.5938 71.9008 41.7288 71.7657 41.9315 71.7657C42.1341 71.7657 42.2692 71.9008 42.2692 72.1034V74.1298C42.2692 74.3325 42.1341 74.4676 41.9315 74.4676ZM108.465 70.5498C108.263 70.5498 108.128 70.4148 108.128 70.2121V68.1857C108.128 67.9831 108.263 67.848 108.465 67.848C108.668 67.848 108.803 67.9831 108.803 68.1857V70.2121C108.803 70.4148 108.668 70.5498 108.465 70.5498ZM41.9315 69.0638C41.7288 69.0638 41.5938 68.9287 41.5938 68.7261V66.6997C41.5938 66.497 41.7288 66.3619 41.9315 66.3619C42.1341 66.3619 42.2692 66.497 42.2692 66.6997V68.7261C42.2692 68.9287 42.1341 69.0638 41.9315 69.0638ZM108.398 65.0785C108.263 65.0785 108.128 64.9434 108.06 64.8083C107.925 64.2004 107.587 63.66 107.182 63.2548C107.047 63.1197 107.047 62.917 107.182 62.7819C107.317 62.6468 107.52 62.6468 107.655 62.7819C108.195 63.3223 108.6 63.9978 108.736 64.6732C108.803 64.8759 108.668 65.011 108.465 65.0785C108.398 65.0785 108.398 65.0785 108.398 65.0785ZM42.6745 63.7951C42.607 63.7951 42.5394 63.7951 42.4719 63.7276C42.3368 63.5925 42.2692 63.3899 42.4043 63.2548C42.8771 62.6468 43.4851 62.2415 44.1605 61.9714C44.3632 61.9038 44.4983 61.9714 44.5658 62.174C44.6334 62.3766 44.5658 62.5117 44.3632 62.5793C43.7553 62.7819 43.2824 63.1872 42.8771 63.66C42.8771 63.7276 42.8096 63.7951 42.6745 63.7951ZM104.21 62.3766H102.183C101.981 62.3766 101.846 62.2415 101.846 62.0389C101.846 61.8363 101.981 61.7012 102.183 61.7012H104.21C104.413 61.7012 104.548 61.8363 104.548 62.0389C104.548 62.2415 104.413 62.3766 104.21 62.3766ZM98.8061 62.3766H96.7797C96.5771 62.3766 96.442 62.2415 96.442 62.0389C96.442 61.8363 96.5771 61.7012 96.7797 61.7012H98.8061C99.0088 61.7012 99.1439 61.8363 99.1439 62.0389C99.1439 62.2415 98.9412 62.3766 98.8061 62.3766ZM93.3348 62.3766H91.3084C91.1058 62.3766 90.9707 62.2415 90.9707 62.0389C90.9707 61.8363 91.1058 61.7012 91.3084 61.7012H93.3348C93.5375 61.7012 93.6726 61.8363 93.6726 62.0389C93.6726 62.2415 93.5375 62.3766 93.3348 62.3766ZM87.8635 62.3766H85.8371C85.6345 62.3766 85.4994 62.2415 85.4994 62.0389C85.4994 61.8363 85.6345 61.7012 85.8371 61.7012H87.8635C88.0662 61.7012 88.2013 61.8363 88.2013 62.0389C88.2013 62.2415 88.0662 62.3766 87.8635 62.3766ZM82.4598 62.3766H80.4333C80.2307 62.3766 80.0956 62.2415 80.0956 62.0389C80.0956 61.8363 80.2307 61.7012 80.4333 61.7012H82.4598C82.6624 61.7012 82.7975 61.8363 82.7975 62.0389C82.7975 62.2415 82.5948 62.3766 82.4598 62.3766ZM76.9884 62.3766H74.962C74.7594 62.3766 74.6243 62.2415 74.6243 62.0389C74.6243 61.8363 74.7594 61.7012 74.962 61.7012H76.9884C77.1911 61.7012 77.3262 61.8363 77.3262 62.0389C77.3262 62.2415 77.1911 62.3766 76.9884 62.3766ZM71.5171 62.3766H69.4907C69.2881 62.3766 69.153 62.2415 69.153 62.0389C69.153 61.8363 69.2881 61.7012 69.4907 61.7012H71.5171C71.7198 61.7012 71.8548 61.8363 71.8548 62.0389C71.8548 62.2415 71.7198 62.3766 71.5171 62.3766ZM66.1133 62.3766H64.0869C63.8843 62.3766 63.7492 62.2415 63.7492 62.0389C63.7492 61.8363 63.8843 61.7012 64.0869 61.7012H66.1133C66.316 61.7012 66.4511 61.8363 66.4511 62.0389C66.4511 62.2415 66.2484 62.3766 66.1133 62.3766ZM60.642 62.3766H58.6156C58.413 62.3766 58.2779 62.2415 58.2779 62.0389C58.2779 61.8363 58.413 61.7012 58.6156 61.7012H60.642C60.8447 61.7012 60.9798 61.8363 60.9798 62.0389C60.9798 62.2415 60.8447 62.3766 60.642 62.3766ZM55.1707 62.3766H53.1443C52.9417 62.3766 52.8066 62.2415 52.8066 62.0389C52.8066 61.8363 52.9417 61.7012 53.1443 61.7012H55.1707C55.3734 61.7012 55.5085 61.8363 55.5085 62.0389C55.5085 62.2415 55.3734 62.3766 55.1707 62.3766ZM49.767 62.3766H47.7405C47.5379 62.3766 47.4028 62.2415 47.4028 62.0389C47.4028 61.8363 47.5379 61.7012 47.7405 61.7012H49.767C49.9696 61.7012 50.1047 61.8363 50.1047 62.0389C50.1047 62.2415 49.902 62.3766 49.767 62.3766Z" fill="#01C0CC"/>
<path d="M114.34 95.0019H98.7371C96.3729 95.0019 94.4141 93.043 94.4141 90.6789V87.0989C94.4141 84.7348 96.3729 82.7759 98.7371 82.7759H114.34V95.0019Z" fill="#D9E4FA"/>
<path d="M114.338 95.3395H98.735C96.1682 95.3395 94.0742 93.2455 94.0742 90.6787V87.0987C94.0742 84.532 96.1682 82.438 98.735 82.438H114.338C114.541 82.438 114.676 82.5731 114.676 82.7757V95.0018C114.676 95.2044 114.541 95.3395 114.338 95.3395ZM98.735 83.1135C96.5059 83.1135 94.7497 84.9372 94.7497 87.0987V90.6787C94.7497 92.9078 96.5735 94.664 98.735 94.664H114.001V83.1135H98.735Z" fill="#01C0CC"/>
<path d="M104.282 89.5982C104.282 91.2869 102.931 92.6378 101.243 92.6378C99.5541 92.6378 98.2031 91.2869 98.2031 89.5982C98.2031 87.9095 99.5541 86.5586 101.243 86.5586C102.931 86.5586 104.282 87.9095 104.282 89.5982Z" fill="#8FB5FF"/>
<path d="M100.497 91.8952C102.175 91.8952 103.536 90.5343 103.536 88.8555C103.536 87.1768 102.175 85.8159 100.497 85.8159C98.8179 85.8159 97.457 87.1768 97.457 88.8555C97.457 90.5343 98.8179 91.8952 100.497 91.8952Z" fill="#F2F7FA"/>
<path d="M100.495 92.2327C98.6032 92.2327 97.1172 90.7467 97.1172 88.8554C97.1172 86.9641 98.6032 85.478 100.495 85.478C102.386 85.478 103.872 86.9641 103.872 88.8554C103.872 90.7467 102.386 92.2327 100.495 92.2327ZM100.495 86.1535C99.0085 86.1535 97.7927 87.3693 97.7927 88.8554C97.7927 90.3414 99.0085 91.5573 100.495 91.5573C101.981 91.5573 103.196 90.3414 103.196 88.8554C103.196 87.3693 101.981 86.1535 100.495 86.1535Z" fill="#01C0CC"/>
<path d="M73.4063 97.0957H50.5078V106.755H73.4063V97.0957Z" fill="#01C0CC"/>
<path d="M72.6719 96.4204H49.7734V106.08H72.6719V96.4204Z" fill="#D9E4FA"/>
<path d="M78.0707 76.2911C78.0032 76.2911 77.8681 76.291 77.8005 76.2235C77.6654 76.0884 77.6654 75.8858 77.8005 75.7507L82.1911 71.3601C82.3262 71.225 82.5288 71.225 82.6639 71.3601C82.799 71.4952 82.799 71.6978 82.6639 71.8329L78.2734 76.2235C78.2734 76.2235 78.2058 76.2911 78.0707 76.2911Z" fill="#01C0CC"/>
<path d="M82.4692 74.7378C82.4016 74.7378 82.2665 74.7378 82.199 74.6702C82.0639 74.5351 82.0639 74.3325 82.199 74.1974L84.3605 72.0359C84.4956 71.9008 84.6982 71.9008 84.8333 72.0359C84.9684 72.171 84.9684 72.3736 84.8333 72.5087L82.6718 74.6702C82.6718 74.6702 82.6043 74.7378 82.4692 74.7378Z" fill="#01C0CC"/>
<path d="M136.909 79.5334C141.232 79.5334 144.745 82.9107 144.947 87.2338C144.947 87.0987 144.947 87.0311 144.947 86.896C144.947 82.4379 141.367 78.8579 136.909 78.8579C132.451 78.8579 128.871 82.4379 128.871 86.896C128.871 87.0311 128.871 87.0987 128.871 87.2338C129.074 82.9783 132.586 79.5334 136.909 79.5334Z" fill="white"/>
<path d="M123.457 29.4133C132.914 29.4133 140.614 36.9785 140.817 46.4351C140.817 46.3 140.817 46.2325 140.817 46.0974C140.817 36.5057 133.049 28.7378 123.457 28.7378C113.866 28.7378 106.098 36.5057 106.098 46.0974C106.098 46.2325 106.098 46.3 106.098 46.4351C106.3 37.0461 114.001 29.4133 123.457 29.4133Z" fill="white"/>
<path d="M72.6698 61.0251H71.0487C70.846 61.0251 70.7109 60.89 70.7109 60.6873C70.7109 60.4847 70.846 60.3496 71.0487 60.3496H72.6698C72.8724 60.3496 73.0075 60.4847 73.0075 60.6873C73.0075 60.89 72.8724 61.0251 72.6698 61.0251Z" fill="white"/>
<path d="M82.4556 61.0251H74.5526C74.3499 61.0251 74.2148 60.89 74.2148 60.6873C74.2148 60.4847 74.3499 60.3496 74.5526 60.3496H82.4556C82.6582 60.3496 82.7933 60.4847 82.7933 60.6873C82.7933 60.89 82.6582 61.0251 82.4556 61.0251Z" fill="white"/>
<path d="M99.6078 84.5319H98.1893C97.9867 84.5319 97.8516 84.3968 97.8516 84.1942C97.8516 83.9915 97.9867 83.8564 98.1893 83.8564H99.6078C99.8104 83.8564 99.9455 83.9915 99.9455 84.1942C99.9455 84.3968 99.8104 84.5319 99.6078 84.5319Z" fill="white"/>
<path d="M108.062 84.5319H101.24C101.037 84.5319 100.902 84.3968 100.902 84.1942C100.902 83.9915 101.037 83.8564 101.24 83.8564H108.062C108.265 83.8564 108.4 83.9915 108.4 84.1942C108.4 84.3968 108.265 84.5319 108.062 84.5319Z" fill="white"/>
<path d="M128.334 119.589H122.795C122.592 119.589 122.457 119.453 122.457 119.251C122.457 119.048 122.592 118.913 122.795 118.913H128.334C128.536 118.913 128.671 119.048 128.671 119.251C128.671 119.453 128.536 119.589 128.334 119.589Z" fill="#01C0CC"/>
</svg>
