<svg width="159" height="159" viewBox="0 0 159 159" fill="none" xmlns="http://www.w3.org/2000/svg">
<path d="M118.794 118.794C140.663 96.9244 140.663 61.4672 118.794 39.5978C96.9246 17.7285 61.4673 17.7285 39.598 39.5978C17.7286 61.4672 17.7286 96.9244 39.598 118.794C61.4673 140.663 96.9246 140.663 118.794 118.794Z" fill="#EFF8FF"/>
<path d="M51.6988 90.9669C51.6343 90.9669 51.5051 90.9669 51.5051 90.9024C51.1177 90.515 50.7303 90.1276 50.3429 89.7402C50.2138 89.6111 50.2138 89.4174 50.3429 89.2883C50.4721 89.1591 50.6658 89.1591 50.7949 89.2883C51.1823 89.6756 51.5051 90.063 51.8925 90.4504C52.0216 90.5795 52.0216 90.7732 51.8925 90.9024C51.8925 90.9669 51.7634 90.9669 51.6988 90.9669Z" fill="#01C0CC"/>
<path d="M48.535 87.4156C48.4704 87.4156 48.3413 87.3511 48.2767 87.2865C47.6311 86.4472 46.9854 85.5433 46.4043 84.7039C46.2752 84.5748 46.3398 84.3811 46.4689 84.252C46.598 84.1874 46.7917 84.1874 46.9208 84.3165C47.5019 85.2204 48.083 86.0598 48.7286 86.8991C48.8578 87.0282 48.7932 87.2219 48.6641 87.3511C48.6641 87.4156 48.5995 87.4156 48.535 87.4156ZM105.416 85.7369C105.352 85.7369 105.287 85.7369 105.223 85.6724C105.094 85.5433 105.029 85.3496 105.158 85.2204C105.739 84.3811 106.32 83.4772 106.837 82.5733C106.901 82.4442 107.095 82.3796 107.289 82.4442C107.418 82.5087 107.482 82.7024 107.418 82.8961C106.901 83.8 106.32 84.7039 105.739 85.6078C105.61 85.6724 105.546 85.7369 105.416 85.7369ZM45.0485 82.1213C44.9194 82.1213 44.7902 82.0568 44.7902 81.9276C44.2737 80.9592 43.8218 79.9907 43.4344 79.0222C43.3698 78.8285 43.4344 78.6994 43.6281 78.5703C43.8218 78.5057 43.9509 78.5703 44.08 78.764C44.4674 79.7324 44.9193 80.7009 45.4359 81.6048C45.5004 81.7339 45.4359 81.9276 45.3067 82.0568C45.1776 82.1213 45.1131 82.1213 45.0485 82.1213ZM108.516 80.1844C108.451 80.1844 108.451 80.1844 108.386 80.1844C108.193 80.1198 108.128 79.9261 108.193 79.7324C108.645 78.764 109.032 77.7955 109.355 76.827C109.419 76.6333 109.613 76.5688 109.742 76.6333C109.936 76.6979 110.001 76.8916 109.936 77.0207C109.613 78.0538 109.161 79.0222 108.774 79.9907C108.774 80.1198 108.645 80.1844 108.516 80.1844ZM42.6596 76.246C42.5305 76.246 42.4013 76.1814 42.3368 75.9877C42.0139 74.9547 41.7557 73.9216 41.4974 72.8886C41.4329 72.6949 41.562 72.5658 41.7557 72.5012C41.9494 72.4366 42.0785 72.5658 42.1431 72.7595C42.3368 73.7925 42.6596 74.8255 42.9178 75.794C42.9824 75.9877 42.8533 76.1168 42.7241 76.1814C42.7241 76.246 42.6596 76.246 42.6596 76.246ZM110.582 74.1799H110.517C110.323 74.1153 110.259 73.9862 110.259 73.7925C110.517 72.7595 110.711 71.7264 110.84 70.6934C110.84 70.4997 111.034 70.3706 111.227 70.4351C111.421 70.4351 111.55 70.6288 111.485 70.8225C111.356 71.8556 111.098 72.9532 110.84 73.9862C110.84 74.1153 110.711 74.1799 110.582 74.1799ZM41.3037 70.0477C41.1746 70.0477 40.9809 69.9186 40.9809 69.7895C40.8518 68.7565 40.7872 67.6589 40.7227 66.6258C40.7227 66.4321 40.8518 66.303 41.0455 66.303C41.2392 66.303 41.3683 66.4321 41.3683 66.6258C41.4329 67.6589 41.4974 68.7565 41.6265 69.7895C41.6911 69.8541 41.562 70.0477 41.3037 70.0477C41.3683 70.0477 41.3037 70.0477 41.3037 70.0477ZM111.55 67.9171C111.55 67.9171 111.485 67.9171 111.55 67.9171C111.356 67.9171 111.227 67.7234 111.227 67.5943C111.292 66.8841 111.292 66.1739 111.292 65.3991C111.292 65.0763 111.292 64.7535 111.292 64.4306C111.292 64.2369 111.421 64.1078 111.615 64.1078C111.808 64.1078 111.937 64.2369 111.937 64.4306C111.937 64.7535 111.937 65.0763 111.937 65.3991C111.937 66.1093 111.937 66.8841 111.873 67.5943C111.873 67.788 111.679 67.9171 111.55 67.9171ZM41.11 63.7204C40.9163 63.7204 40.7872 63.5267 40.7872 63.3976C40.8518 62.3 40.9809 61.267 41.11 60.2339C41.11 60.0402 41.3037 59.9111 41.4974 59.9757C41.6911 59.9757 41.8202 60.1694 41.7557 60.3631C41.6265 61.3961 41.4974 62.4291 41.4329 63.4622C41.4329 63.5913 41.3037 63.7204 41.11 63.7204ZM111.356 61.5898C111.163 61.5898 111.034 61.4607 111.034 61.3315C110.904 60.2985 110.711 59.2655 110.517 58.2324C110.452 58.0387 110.582 57.9096 110.775 57.845C110.969 57.7805 111.098 57.9096 111.163 58.1033C111.356 59.1363 111.55 60.2339 111.679 61.267C111.679 61.3961 111.55 61.5898 111.356 61.5898ZM42.0139 57.4576H41.9494C41.7557 57.3931 41.6911 57.264 41.6911 57.0703C41.9494 56.0372 42.2076 55.0042 42.595 53.9712C42.6596 53.7775 42.8533 53.7129 42.9824 53.7775C43.1761 53.842 43.2407 54.0357 43.1761 54.1649C42.8533 55.1333 42.5304 56.1664 42.2722 57.1994C42.3367 57.3931 42.2076 57.4576 42.0139 57.4576ZM110.065 55.3916C109.936 55.3916 109.807 55.327 109.742 55.1333C109.419 54.1649 109.097 53.1318 108.709 52.1634C108.645 51.9697 108.709 51.8405 108.903 51.7114C109.097 51.6468 109.226 51.7114 109.355 51.9051C109.742 52.8736 110.13 53.9066 110.452 54.9396C110.517 55.1333 110.388 55.2624 110.259 55.327C110.13 55.3916 110.065 55.3916 110.065 55.3916ZM44.08 51.4531C44.0155 51.4531 44.0155 51.4531 43.9509 51.4531C43.7572 51.3886 43.6926 51.1949 43.7572 51.0012C44.2092 50.0327 44.6611 49.0643 45.1776 48.1603C45.2422 48.0312 45.4359 47.9667 45.6296 48.0312C45.7587 48.0958 45.8233 48.2895 45.7587 48.4832C45.2422 49.3871 44.7902 50.3555 44.3383 51.324C44.3383 51.3886 44.2092 51.4531 44.08 51.4531ZM107.676 49.5162C107.547 49.5162 107.418 49.4516 107.418 49.3225C106.966 48.4186 106.385 47.4501 105.868 46.6108C105.804 46.4817 105.804 46.288 105.997 46.1588C106.127 46.0943 106.32 46.0943 106.449 46.288C107.031 47.1919 107.547 48.0958 108.064 49.0642C108.128 49.1934 108.064 49.3871 107.934 49.5162C107.741 49.5162 107.741 49.5162 107.676 49.5162ZM47.1791 45.9006C47.1146 45.9006 47.05 45.9006 46.9854 45.836C46.8563 45.7069 46.7917 45.5132 46.9208 45.3841C47.5019 44.4802 48.1476 43.6408 48.8578 42.8015C48.9869 42.6724 49.1806 42.6723 49.3097 42.7369C49.4389 42.866 49.4389 43.0597 49.3743 43.1889C48.7286 43.9637 48.083 44.8676 47.5019 45.7069C47.3728 45.9006 47.2437 45.9006 47.1791 45.9006ZM104.254 44.2219C104.19 44.2219 104.061 44.1573 103.996 44.0928C103.35 43.2534 102.705 42.4787 101.994 41.7039C101.865 41.5748 101.865 41.3811 101.994 41.2519C102.124 41.1228 102.317 41.1228 102.446 41.2519C103.157 42.0267 103.867 42.866 104.512 43.7054C104.642 43.8345 104.577 44.0282 104.448 44.1573C104.383 44.1573 104.319 44.2219 104.254 44.2219ZM51.1821 41.0582C51.1176 41.0582 50.9884 41.0582 50.9239 40.9937C50.7947 40.8645 50.7947 40.6709 50.9239 40.5417C51.6986 39.7669 52.4734 39.0567 53.2482 38.3465C53.3773 38.2174 53.571 38.2174 53.7001 38.4111C53.8293 38.5402 53.8293 38.7339 53.6356 38.863C52.8608 39.5087 52.086 40.2835 51.3112 40.9937C51.3112 40.9937 51.2467 41.0582 51.1821 41.0582ZM99.9284 39.5733C99.8639 39.5733 99.7993 39.5732 99.7347 39.5087C98.9599 38.7985 98.1206 38.1528 97.2812 37.5072C97.1521 37.3781 97.0876 37.1844 97.2167 37.0552C97.3458 36.9261 97.5395 36.8615 97.6687 36.9907C98.508 37.6363 99.3473 38.282 100.122 39.0567C100.251 39.1859 100.251 39.3796 100.122 39.5087C100.122 39.5087 100.058 39.5733 99.9284 39.5733ZM56.0245 36.9261C55.8954 36.9261 55.8308 36.8615 55.7662 36.797C55.6371 36.6678 55.7016 36.4742 55.8308 36.345C56.6701 35.7639 57.574 35.1829 58.5425 34.6018C58.6716 34.5372 58.8653 34.5372 58.9944 34.7309C59.059 34.86 59.059 35.0537 58.8653 35.1829C57.9614 35.6994 57.0575 36.2805 56.2182 36.8615C56.1536 36.9261 56.089 36.9261 56.0245 36.9261ZM94.8923 35.7639C94.8278 35.7639 94.7632 35.7639 94.6987 35.6994C93.7948 35.1183 92.8908 34.6018 91.9869 34.1498C91.8578 34.0853 91.7933 33.8916 91.8578 33.6979C91.9224 33.5687 92.1161 33.5042 92.3098 33.5687C93.2782 34.0207 94.1822 34.5372 95.0861 35.1183C95.2152 35.1829 95.2797 35.4411 95.2152 35.5702C95.086 35.6994 95.0215 35.7639 94.8923 35.7639ZM61.4479 33.7624C61.3188 33.7624 61.1896 33.6979 61.1251 33.5687C61.0605 33.375 61.1251 33.2459 61.2542 33.1168C62.2227 32.6648 63.1911 32.2775 64.2242 31.8901C64.4178 31.8255 64.547 31.8901 64.6116 32.0838C64.6761 32.2774 64.6116 32.4066 64.4179 32.4711C63.4494 32.794 62.4809 33.2459 61.5125 33.6333C61.577 33.7624 61.5124 33.7624 61.4479 33.7624ZM89.2107 32.9231C89.1461 32.9231 89.1461 32.9231 89.0815 32.9231C88.1131 32.5357 87.08 32.2129 86.1116 31.8901C85.9179 31.8255 85.8533 31.6318 85.9179 31.5027C85.9825 31.309 86.1761 31.2444 86.3053 31.309C87.3383 31.6318 88.3713 31.9546 89.3398 32.342C89.5335 32.4066 89.5981 32.6003 89.5335 32.7294C89.4689 32.8585 89.3398 32.9231 89.2107 32.9231ZM67.4524 31.6318C67.3233 31.6318 67.1941 31.5672 67.1296 31.3735C67.065 31.1799 67.1941 31.0507 67.3878 30.9862C68.4209 30.7279 69.4539 30.4696 70.4869 30.3405C70.6806 30.3405 70.8098 30.4051 70.8743 30.5988C70.8743 30.7925 70.8098 30.9216 70.6161 30.9862C69.583 31.1799 68.55 31.3735 67.517 31.6318H67.4524ZM83.1416 31.1153C83.1416 31.1153 83.0771 31.1153 83.1416 31.1153C82.044 30.9216 81.011 30.7279 79.9779 30.6633C79.7842 30.6633 79.6551 30.4696 79.7197 30.3405C79.7197 30.1468 79.9134 30.0177 80.0425 30.0823C81.0755 30.2114 82.1731 30.3405 83.2062 30.5342C83.3999 30.5988 83.4644 30.7279 83.4644 30.9216C83.4644 31.0507 83.2707 31.1153 83.1416 31.1153ZM73.6506 30.5988C73.4569 30.5988 73.3278 30.4696 73.3278 30.2759C73.3278 30.0823 73.4569 29.9531 73.6506 29.9531C74.6836 29.8886 75.7812 29.824 76.8788 29.8886C77.0725 29.8886 77.2017 30.0177 77.2017 30.2114C77.2017 30.4051 77.0725 30.5342 76.8788 30.5342C75.7812 30.4696 74.7482 30.5342 73.6506 30.5988C73.7152 30.5988 73.7152 30.5988 73.6506 30.5988Z" fill="#01C0CC"/>
<path d="M102.38 89.5465C102.316 89.5465 102.251 89.5465 102.187 89.4819C102.058 89.3528 102.058 89.1591 102.187 89.03C102.574 88.6426 102.897 88.2552 103.22 87.8033C103.349 87.6741 103.543 87.6741 103.672 87.7387C103.801 87.8678 103.801 88.0615 103.736 88.1907C103.413 88.578 103.026 89.03 102.639 89.4174C102.574 89.4819 102.445 89.5465 102.38 89.5465Z" fill="#01C0CC"/>
<path d="M109.613 118.73H43.1119C42.9182 118.73 42.7891 118.601 42.7891 118.407C42.7891 118.213 42.9182 118.084 43.1119 118.084H109.613C109.807 118.084 109.936 118.213 109.936 118.407C109.936 118.601 109.743 118.73 109.613 118.73Z" fill="#01C0CC"/>
<path d="M104.838 129.35L103.03 124.249L103.676 113.144C103.998 107.72 103.159 102.232 101.287 97.1318L95.3467 81.0552V104.75H66.0989C66.0989 104.75 65.647 119.407 81.7881 131.738L83.6605 136.516L104.838 129.35Z" fill="white"/>
<path d="M83.6601 135.775C83.531 135.775 83.4019 135.71 83.3373 135.581L81.465 130.932C65.4529 118.665 65.7112 103.88 65.7112 103.75C65.7112 103.557 65.8403 103.428 66.034 103.428H94.959V80.0552C94.959 79.9261 95.0881 79.797 95.2172 79.7324C95.3464 79.7324 95.54 79.797 95.6046 79.9261L101.545 96.0027C103.481 101.168 104.256 106.591 103.933 112.144L103.288 123.184L105.096 128.285C105.16 128.479 105.096 128.608 104.902 128.672C104.708 128.737 104.579 128.672 104.515 128.479L102.707 123.378C102.707 123.314 102.707 123.314 102.707 123.249L103.352 112.144C103.675 106.72 102.9 101.362 100.963 96.261L95.6046 81.8631V103.75C95.6046 103.944 95.4755 104.073 95.2818 104.073H66.3568C66.4214 106.268 67.3899 119.375 81.9169 130.48C81.9815 130.545 81.9815 130.545 82.046 130.609L83.9184 135.387C83.983 135.581 83.9184 135.71 83.7247 135.775H83.6601Z" fill="#01C0CC"/>
<path d="M67.0023 71.8559C67.0023 71.8559 60.0939 70.0481 57.3176 69.7253C54.4767 69.4025 51.2485 75.4715 58.286 77.6667C63.9032 79.41 65.9692 79.7974 65.9692 79.7974H66.1629L67.0023 71.8559Z" fill="white"/>
<path d="M66.1636 80.1847H65.9699C65.8407 80.1847 63.7101 79.7973 58.1576 78.0541C55.0585 77.0856 53.4444 75.0841 53.7672 72.8243C54.09 70.8874 55.7687 69.3378 57.3182 69.5315C60.0945 69.8543 66.7447 71.5976 67.0675 71.6622C67.1966 71.7267 67.3258 71.8558 67.3258 71.985L66.4864 79.9264C66.4864 80.0556 66.3573 80.1847 66.1636 80.1847ZM57.1245 70.048C55.8978 70.048 54.6711 71.3393 54.4774 72.8243C54.3482 73.7928 54.4128 76.1171 58.4158 77.3438C63.129 78.8288 65.3888 79.3453 65.9053 79.4099L66.6801 72.0495C65.3888 71.7267 59.7717 70.3063 57.3182 69.9835C57.2537 70.048 57.1891 70.048 57.1245 70.048Z" fill="#01C0CC"/>
<path d="M66.4827 83.3481C66.4827 83.3481 59.5743 81.5403 56.798 81.2175C53.9572 80.8947 50.729 86.9637 57.7665 89.1589C63.3836 90.9022 65.4497 91.2896 65.4497 91.2896H65.6434L66.4827 83.3481Z" fill="white"/>
<path d="M65.6441 91.6125H65.4504C65.3212 91.6125 63.1906 91.2251 57.6381 89.4819C54.539 88.5134 52.9248 86.5119 53.2476 84.2522C53.5705 82.3152 55.2492 80.7011 56.7987 80.9594C59.575 81.2822 66.2252 83.0254 66.548 83.09C66.6771 83.1546 66.8062 83.2837 66.8062 83.4128L65.9669 91.3543C65.9023 91.4834 65.7732 91.6125 65.6441 91.6125ZM56.5405 81.4759C55.3137 81.4759 54.087 82.7672 53.8933 84.2522C53.7642 85.2206 53.8288 87.545 57.8318 88.7717C62.545 90.2567 64.8047 90.7732 65.3212 90.8378L66.096 83.4774C64.8047 83.1546 59.1876 81.7342 56.7342 81.4113C56.6696 81.4759 56.605 81.4759 56.5405 81.4759Z" fill="#01C0CC"/>
<path d="M67.7796 91.5478C67.7796 91.5478 60.8712 89.74 58.0949 89.4172C55.2541 89.0944 52.0258 95.1634 59.0634 97.3586C64.6805 99.1019 66.7466 99.4893 66.7466 99.4893H66.9403L67.7796 91.5478Z" fill="white"/>
<path d="M66.9409 99.8121H66.7473C66.6181 99.8121 64.4875 99.4247 58.9349 97.6815C55.8358 96.713 54.2217 94.7115 54.5445 92.4517C54.8673 90.5148 56.546 88.9653 58.0956 89.159C60.8719 89.4818 67.522 91.225 67.8449 91.2896C67.974 91.3542 68.1031 91.4833 68.1031 91.6124L67.2638 99.5539C67.2638 99.683 67.1346 99.8121 66.9409 99.8121ZM57.9019 89.74C56.6752 89.74 55.4485 91.0313 55.2548 92.5163C55.1256 93.4848 55.1902 95.8091 59.1932 97.0358C63.9064 98.5208 66.1662 99.0373 66.6827 99.1019L67.4574 91.7415C66.1662 91.4187 60.549 89.9983 58.0956 89.6755C58.031 89.74 57.9665 89.74 57.9019 89.74Z" fill="#01C0CC"/>
<path d="M37.8861 118.6H30.6549C30.4612 118.6 30.332 118.471 30.332 118.277C30.332 118.084 30.4612 117.955 30.6549 117.955H37.8861C38.0798 117.955 38.2089 118.084 38.2089 118.277C38.2089 118.471 38.0798 118.6 37.8861 118.6Z" fill="#01C0CC"/>
<path d="M116.069 118.73H113.616C113.422 118.73 113.293 118.601 113.293 118.407C113.293 118.213 113.422 118.084 113.616 118.084H116.069C116.263 118.084 116.392 118.213 116.392 118.407C116.392 118.601 116.263 118.73 116.069 118.73Z" fill="#01C0CC"/>
<path d="M95.4097 101.943V84.6393L93.279 78.8931V102.588H64.0312C64.0312 102.588 64.1604 105.817 65.3871 110.271C65.6454 110.271 65.8391 110.336 66.0973 110.336H87.0163C91.6649 110.336 95.4097 106.527 95.4097 101.943Z" fill="#B3CDFF"/>
<path d="M57.7695 100.781V47.6439C57.7695 42.9952 61.5143 39.2505 66.1629 39.2505H87.0819C91.7305 39.2505 95.4753 42.9952 95.4753 47.6439V100.781C95.4753 105.429 91.7305 109.174 87.0819 109.174H66.1629C61.5143 109.174 57.7695 105.429 57.7695 100.781Z" fill="#D9E4FA"/>
<path d="M87.0155 108.077H66.0965C61.4479 108.077 57.7031 104.332 57.7031 99.6831V100.781C57.7031 105.429 61.4479 109.174 66.0965 109.174H87.0155C91.6641 109.174 95.4089 105.429 95.4089 100.781V99.6831C95.4089 104.332 91.6641 108.077 87.0155 108.077Z" fill="#01C0CC"/>
<path d="M87.0155 39.2505H66.0965C61.4479 39.2505 57.7031 42.9952 57.7031 47.6439V48.225C57.7031 43.5763 61.4479 39.8316 66.0965 39.8316H87.0155C91.6641 39.8316 95.4089 43.5763 95.4089 48.225V47.6439C95.4089 42.9952 91.6641 39.2505 87.0155 39.2505Z" fill="white"/>
<path d="M60.543 49.9037V101.491C60.543 102.201 61.124 102.847 61.8988 102.847H91.2757C91.9859 102.847 92.6316 102.266 92.6316 101.491V49.9037C92.6316 49.1935 92.0505 48.5479 91.2757 48.5479H61.8988C61.124 48.5479 60.543 49.1935 60.543 49.9037Z" fill="white"/>
<path d="M91.2743 103.17H61.8974C60.9935 103.17 60.2188 102.395 60.2188 101.491V49.9038C60.2188 48.9999 60.9935 48.2251 61.8974 48.2251H91.2743C92.1782 48.2251 92.953 48.9999 92.953 49.9038V101.491C92.953 102.395 92.2428 103.17 91.2743 103.17ZM61.8974 48.8707C61.3163 48.8707 60.8644 49.3227 60.8644 49.9038V101.491C60.8644 102.072 61.3163 102.524 61.8974 102.524H91.2743C91.8554 102.524 92.3073 102.072 92.3073 101.491V49.9038C92.3073 49.3227 91.8554 48.8707 91.2743 48.8707H61.8974Z" fill="#01C0CC"/>
<path d="M87.0141 109.497H66.0951C61.3173 109.497 57.3789 105.558 57.3789 100.781V47.644C57.3789 42.8662 61.3173 38.9277 66.0951 38.9277H80.945C81.1387 38.9277 81.2678 39.0569 81.2678 39.2506C81.2678 39.4443 81.1387 39.5734 80.945 39.5734H66.0951C61.6402 39.5734 58.0246 43.189 58.0246 47.644V100.781C58.0246 105.236 61.6402 108.851 66.0951 108.851H87.0141C91.469 108.851 95.0847 105.236 95.0847 100.781V47.644C95.0847 43.189 91.469 39.5734 87.0141 39.5734H83.9149C83.7213 39.5734 83.5921 39.4443 83.5921 39.2506C83.5921 39.0569 83.7213 38.9277 83.9149 38.9277H87.0141C91.7919 38.9277 95.7303 42.8662 95.7303 47.644V100.781C95.7303 105.623 91.8564 109.497 87.0141 109.497Z" fill="#01C0CC"/>
<path d="M77.6522 42.9306C77.6522 43.5117 77.2003 44.0282 76.5546 44.0282C75.9736 44.0282 75.457 43.5763 75.457 42.9306C75.457 42.3495 75.909 41.833 76.5546 41.833C77.2003 41.833 77.6522 42.3495 77.6522 42.9306Z" fill="#01C0CC"/>
<path d="M80.7553 45.9005H72.3619C72.1682 45.9005 72.0391 45.7714 72.0391 45.5777C72.0391 45.384 72.1682 45.2549 72.3619 45.2549H80.7553C80.949 45.2549 81.0781 45.384 81.0781 45.5777C81.0781 45.7068 80.949 45.9005 80.7553 45.9005Z" fill="#01C0CC"/>
<path d="M62.9312 50.4202C62.9312 50.6785 62.7376 50.8722 62.4793 50.8722C62.221 50.8722 62.0273 50.6785 62.0273 50.4202C62.0273 50.162 62.221 49.9683 62.4793 49.9683C62.7376 49.9683 62.9312 50.162 62.9312 50.4202Z" fill="#01C0CC"/>
<path d="M64.3531 50.4202C64.3531 50.6785 64.1594 50.8722 63.9011 50.8722C63.6429 50.8722 63.4492 50.6785 63.4492 50.4202C63.4492 50.162 63.6429 49.9683 63.9011 49.9683C64.0948 49.9683 64.3531 50.162 64.3531 50.4202Z" fill="#01C0CC"/>
<path d="M65.7086 50.4202C65.7086 50.6785 65.5149 50.8722 65.2566 50.8722C64.9984 50.8722 64.8047 50.6785 64.8047 50.4202C64.8047 50.162 64.9984 49.9683 65.2566 49.9683C65.5149 49.9683 65.7086 50.162 65.7086 50.4202Z" fill="#01C0CC"/>
<path d="M70.8739 50.7433H67.3228C67.1291 50.7433 67 50.6142 67 50.4205C67 50.2268 67.1291 50.0977 67.3228 50.0977H70.8739C71.0676 50.0977 71.1967 50.2268 71.1967 50.4205C71.1967 50.6142 71.0676 50.7433 70.8739 50.7433Z" fill="#01C0CC"/>
<path d="M89.728 51.2595H86.9517C86.758 51.2595 86.6289 51.1304 86.6289 50.9367V50.0328C86.6289 49.8391 86.758 49.71 86.9517 49.71H89.728C89.9217 49.71 90.0508 49.8391 90.0508 50.0328V50.9367C90.0508 51.0658 89.8571 51.2595 89.728 51.2595ZM87.2746 50.6139H89.4052V50.3556H87.2746V50.6139Z" fill="#01C0CC"/>
<path d="M90.3116 50.1621H89.7305V50.7432H90.3116V50.1621Z" fill="#01C0CC"/>
<path d="M77.3931 63.3017C77.1994 63.3017 77.0703 63.1725 77.0703 62.9788V60.8482C77.0703 60.6545 77.1994 60.5254 77.3931 60.5254C77.5868 60.5254 77.716 60.6545 77.716 60.8482V62.9788C77.716 63.1725 77.5868 63.3017 77.3931 63.3017Z" fill="#01C0CC"/>
<path d="M75.4575 63.8828C75.393 63.8828 75.2638 63.8828 75.1992 63.8182L73.5851 62.2041C73.456 62.075 73.456 61.8812 73.5851 61.7521C73.7143 61.623 73.908 61.623 74.0371 61.7521L75.6512 63.3662C75.7803 63.4954 75.7803 63.6891 75.6512 63.8182C75.5866 63.8828 75.5221 63.8828 75.4575 63.8828Z" fill="#01C0CC"/>
<path d="M79.3981 63.8828C79.3335 63.8828 79.2044 63.8828 79.1398 63.8182C79.0107 63.6891 79.0107 63.4954 79.1398 63.3662L80.7539 61.7521C80.8831 61.623 81.0768 61.623 81.2059 61.7521C81.335 61.8812 81.335 62.075 81.2059 62.2041L79.5918 63.8182C79.5918 63.8828 79.4626 63.8828 79.3981 63.8828Z" fill="#01C0CC"/>
<path d="M66.8085 41.2521H66.0338C65.8401 41.2521 65.7109 41.123 65.7109 40.9293C65.7109 40.7356 65.8401 40.6064 66.0338 40.6064H66.8085C67.0022 40.6064 67.1313 40.7356 67.1313 40.9293C67.1313 41.123 67.0022 41.2521 66.8085 41.2521Z" fill="white"/>
<path d="M72.6799 41.2521H68.3541C68.1604 41.2521 68.0312 41.123 68.0312 40.9293C68.0312 40.7356 68.1604 40.6064 68.3541 40.6064H72.6799C72.8736 40.6064 73.0027 40.7356 73.0027 40.9293C73.0027 41.123 72.8736 41.2521 72.6799 41.2521Z" fill="white"/>
<path d="M78.9462 105.946H74.233C74.0393 105.946 73.9102 105.817 73.9102 105.623C73.9102 105.429 74.0393 105.3 74.233 105.3H78.9462C79.1399 105.3 79.2691 105.429 79.2691 105.623C79.2691 105.817 79.1399 105.946 78.9462 105.946Z" fill="#01C0CC"/>
<path d="M77.1371 83.3812C82.2719 83.3812 86.4344 79.2187 86.4344 74.0839C86.4344 68.9492 82.2719 64.7866 77.1371 64.7866C72.0024 64.7866 67.8398 68.9492 67.8398 74.0839C67.8398 79.2187 72.0024 83.3812 77.1371 83.3812Z" fill="#01C0CC"/>
<path d="M77.1363 81.8312C72.875 81.8312 69.4531 78.4093 69.4531 74.148C69.4531 69.8868 72.875 66.4648 77.1363 66.4648C81.3976 66.4648 84.8195 69.8868 84.8195 74.148C84.8195 78.3447 81.333 81.8312 77.1363 81.8312ZM77.1363 66.7231C73.0687 66.7231 69.7759 70.0159 69.7759 74.0835C69.7759 78.151 73.0687 81.4438 77.1363 81.4438C81.2039 81.4438 84.4967 78.151 84.4967 74.0835C84.4967 70.0159 81.2039 66.7231 77.1363 66.7231Z" fill="white"/>
<path d="M100.96 106.171C100.96 106.171 97.2156 92.8707 95.2786 91.1921C93.4063 89.4488 83.9798 86.156 81.8492 85.3812C78.621 84.2191 75.1991 89.4488 79.3958 92.6771C83.1405 95.5179 86.4333 98.6816 86.4333 98.6816L87.1435 108.043C87.1435 108.043 80.0414 115.985 83.9798 127.09L100.96 106.171Z" fill="white"/>
<path d="M81.9798 126.348C81.8507 126.348 81.7215 126.283 81.657 126.154C77.9768 115.695 83.9813 107.883 84.7561 106.849L84.1105 97.7459C83.5294 97.2294 80.5594 94.3885 77.202 91.8705C74.684 89.9336 74.8131 87.4801 75.6525 85.9306C76.5564 84.2519 78.3642 83.4771 79.9138 84.0582L80.4303 84.2519C85.2081 85.9951 91.7937 88.5131 93.4723 89.9981C95.4093 91.7414 99.0894 104.59 99.2186 105.171C99.2831 105.365 99.154 105.494 99.0249 105.558C98.8312 105.623 98.7021 105.494 98.6375 105.365C97.6045 101.684 94.5699 91.8705 93.0849 90.5146C91.3417 88.9651 83.0128 85.9306 80.3011 84.8975L79.7846 84.7038C78.2996 84.1873 76.9438 85.1558 76.2981 86.3179C75.5879 87.6738 75.4588 89.8044 77.654 91.4186C81.3342 94.2594 84.6915 97.4231 84.6915 97.4876C84.7561 97.5522 84.7561 97.6168 84.8207 97.6813L85.5309 107.043C85.5309 107.108 85.5309 107.237 85.4663 107.301C85.4017 107.366 78.5579 115.243 82.3672 126.09C82.4318 126.283 82.3672 126.413 82.1735 126.477C82.0444 126.348 82.0444 126.348 81.9798 126.348Z" fill="#01C0CC"/>
<path opacity="0.5" d="M50.3448 65.9805H28.9094C27.9409 65.9805 27.1016 65.2057 27.1016 64.1727V51.3889C27.1016 50.4204 27.8764 49.5811 28.9094 49.5811H50.3448C51.3133 49.5811 52.1527 50.3558 52.1527 51.3889V64.1727C52.1527 65.2057 51.3133 65.9805 50.3448 65.9805Z" fill="#B3CDFF"/>
<path d="M49.1183 64.8184H27.6828C26.7143 64.8184 25.875 64.0436 25.875 63.0106V50.2268C25.875 49.2583 26.6498 48.4189 27.6828 48.4189H38.4005H43.7594H49.1183C50.0867 48.4189 50.9261 49.1937 50.9261 50.2268V63.0106C50.9261 64.0436 50.1513 64.8184 49.1183 64.8184Z" fill="white"/>
<path d="M49.1183 63.656H27.6828C26.7143 63.656 25.875 62.8812 25.875 61.8481V63.0103C25.875 63.9788 26.6498 64.8181 27.6828 64.8181H49.1183C50.0867 64.8181 50.9261 64.0433 50.9261 63.0103V61.8481C50.9261 62.8166 50.1513 63.656 49.1183 63.656Z" fill="#EFF8FF"/>
<path d="M49.1169 65.1413H27.6814C26.5192 65.1413 25.5508 64.1728 25.5508 63.0106V50.2268C25.5508 49.0647 26.5192 48.0962 27.6814 48.0962H49.1169C50.279 48.0962 51.2475 49.0647 51.2475 50.2268V63.0106C51.2475 64.1728 50.3436 65.1413 49.1169 65.1413ZM27.6814 48.8064C26.8421 48.8064 26.1964 49.4521 26.1964 50.2914V63.0752C26.1964 63.9145 26.8421 64.5602 27.6814 64.5602H49.1169C49.9562 64.5602 50.6018 63.9145 50.6018 63.0752V50.2268C50.6018 49.3875 49.9562 48.7418 49.1169 48.7418H27.6814V48.8064Z" fill="#01C0CC"/>
<path d="M50.6643 54.6813H25.9361C25.7424 54.6813 25.6133 54.5522 25.6133 54.3585C25.6133 54.1648 25.7424 54.0356 25.9361 54.0356H50.6643C50.858 54.0356 50.9872 54.1648 50.9872 54.3585C50.9872 54.5522 50.7935 54.6813 50.6643 54.6813Z" fill="#01C0CC"/>
<path d="M32.3325 59.2008H28.9752C28.7815 59.2008 28.6523 59.0717 28.6523 58.878C28.6523 58.6843 28.7815 58.5552 28.9752 58.5552H32.3325C32.5262 58.5552 32.6554 58.6843 32.6554 58.878C32.6554 59.0717 32.4617 59.2008 32.3325 59.2008Z" fill="#01C0CC"/>
<path d="M37.2388 59.2008H33.8814C33.6877 59.2008 33.5586 59.0717 33.5586 58.878C33.5586 58.6843 33.6877 58.5552 33.8814 58.5552H37.2388C37.4325 58.5552 37.5616 58.6843 37.5616 58.878C37.5616 59.0717 37.4325 59.2008 37.2388 59.2008Z" fill="#01C0CC"/>
<path d="M42.2114 59.2008H38.8541C38.6604 59.2008 38.5312 59.0717 38.5312 58.878C38.5312 58.6843 38.6604 58.5552 38.8541 58.5552H42.2114C42.4051 58.5552 42.5343 58.6843 42.5343 58.878C42.5343 59.0717 42.4051 59.2008 42.2114 59.2008Z" fill="#01C0CC"/>
<path d="M47.1177 59.2008H43.7603C43.5666 59.2008 43.4375 59.0717 43.4375 58.878C43.4375 58.6843 43.5666 58.5552 43.7603 58.5552H47.1177C47.3113 58.5552 47.4405 58.6843 47.4405 58.878C47.4405 59.0717 47.3113 59.2008 47.1177 59.2008Z" fill="#01C0CC"/>
</svg>
